<?xml version="1.0" encoding="UTF-8" standalone="no"?>
<!-- Created with Inkscape (http://www.inkscape.org/) -->

<svg
   xmlns:dc="http://purl.org/dc/elements/1.1/"
   xmlns:cc="http://creativecommons.org/ns#"
   xmlns:rdf="http://www.w3.org/1999/02/22-rdf-syntax-ns#"
   xmlns:svg="http://www.w3.org/2000/svg"
   xmlns="http://www.w3.org/2000/svg"
   xmlns:xlink="http://www.w3.org/1999/xlink"
   xmlns:sodipodi="http://sodipodi.sourceforge.net/DTD/sodipodi-0.dtd"
   xmlns:inkscape="http://www.inkscape.org/namespaces/inkscape"
   width="210mm"
   height="297mm"
   viewBox="0 0 210 297"
   version="1.1"
   id="svg8"
   inkscape:version="0.92.1 r15371"
   sodipodi:docname="taxi.svg">
  <title
     id="title1396">taxi</title>
  <defs
     id="defs2">
    <clipPath
       clipPathUnits="userSpaceOnUse"
       id="clipPath988">
      <path
         style="fill:none;stroke:#000000;stroke-width:0.26458332px;stroke-linecap:butt;stroke-linejoin:miter;stroke-opacity:1"
         d="m 69.222808,121.97855 h -8.325445 c -3.376975,-0.68023 -4.257752,-3.33114 -4.303041,-6.64165 l 0.561266,-5.61266 c 0.820576,-2.98884 3.264551,-4.77778 8.138358,-4.77076 h 11.505952 c 3.407352,0.45922 5.52809,2.19115 5.706205,5.7062 l 0.374174,5.51912 c 0.248996,3.13032 -1.211422,5.14952 -4.490125,5.98684 z"
         id="path990"
         inkscape:connector-curvature="0"
         sodipodi:nodetypes="cccccccccc" />
    </clipPath>
  </defs>
  <sodipodi:namedview
     id="base"
     pagecolor="#ffffff"
     bordercolor="#666666"
     borderopacity="1.0"
     inkscape:pageopacity="0.0"
     inkscape:pageshadow="2"
     inkscape:zoom="0.5"
     inkscape:cx="751.02525"
     inkscape:cy="795.50656"
     inkscape:document-units="mm"
     inkscape:current-layer="svg8"
     showgrid="false"
     inkscape:snap-global="false"
     inkscape:window-width="1366"
     inkscape:window-height="704"
     inkscape:window-x="0"
     inkscape:window-y="27"
     inkscape:window-maximized="1"
     showguides="true"
     inkscape:guide-bbox="true" />
  <metadata
     id="metadata5">
    <rdf:RDF>
      <cc:Work
         rdf:about="">
        <dc:format>image/svg+xml</dc:format>
        <dc:type
           rdf:resource="http://purl.org/dc/dcmitype/StillImage" />
        <dc:title>taxi</dc:title>
        <dc:subject>
          <rdf:Bag>
            <rdf:li>transportation</rdf:li>
            <rdf:li>taxi</rdf:li>
            <rdf:li>car</rdf:li>
          </rdf:Bag>
        </dc:subject>
        <cc:license
           rdf:resource="http://creativecommons.org/publicdomain/zero/1.0/" />
      </cc:Work>
      <cc:License
         rdf:about="http://creativecommons.org/publicdomain/zero/1.0/">
        <cc:permits
           rdf:resource="http://creativecommons.org/ns#Reproduction" />
        <cc:permits
           rdf:resource="http://creativecommons.org/ns#Distribution" />
        <cc:permits
           rdf:resource="http://creativecommons.org/ns#DerivativeWorks" />
      </cc:License>
    </rdf:RDF>
  </metadata>
  <g
     inkscape:groupmode="layer"
     id="layer2"
     inkscape:label="Camada 2"
     style="display:inline" />
  <path
     sodipodi:type="inkscape:offset"
     inkscape:radius="1.6587976"
     inkscape:original="M 246.7793 396.67383 C 228.35861 396.6473 219.12287 403.40868 216.02148 414.70508 L 213.90039 435.91992 C 214.07156 448.43209 217.40069 458.45053 230.16406 461.02148 L 261.62891 461.02148 L 296.27734 461.72852 C 308.66929 458.56385 314.18914 450.93269 313.24805 439.10156 L 311.83398 418.24219 C 311.16079 404.95696 303.14576 398.40946 290.26758 396.67383 L 246.7793 396.67383 z "
     xlink:href="#path965"
     style="fill:none;stroke:#000000;stroke-width:0.26458332px;stroke-linecap:butt;stroke-linejoin:miter;stroke-opacity:1"
     id="path967"
     inkscape:href="#path965"
     d="m 65.294922,103.29492 c -2.639364,-0.004 -4.787068,0.4708 -6.462891,1.50977 -1.676273,1.03924 -2.776154,2.66207 -3.27539,4.48047 a 1.6589635,1.6589635 0 0 0 -0.05078,0.27343 l -0.5625,5.61133 a 1.6589635,1.6589635 0 0 0 -0.0078,0.18946 c 0.02457,1.79621 0.251317,3.54964 1.111328,5.09179 0.860011,1.54216 2.451299,2.7373 4.521484,3.1543 a 1.6589635,1.6589635 0 0 0 0.328125,0.0313 h 8.308594 l 9.152344,0.1875 a 1.6589635,1.6589635 0 0 0 0.443359,-0.0508 c 1.891795,-0.48313 3.466692,-1.3777 4.488281,-2.75196 1.020099,-1.37224 1.391433,-3.11901 1.246094,-4.96484 l -0.373047,-5.48047 c -0.10519,-2.07591 -0.846667,-3.87388 -2.154297,-5.11719 -1.307629,-1.2433 -3.05408,-1.88997 -4.986328,-2.15039 a 1.6589635,1.6589635 0 0 0 -0.220703,-0.0137 H 65.296875 Z" />
  <g
     id="g1394"
     transform="translate(-3.3499436)">
    <g
       transform="matrix(1.7068005,0,0,1.7068005,151.02005,-80.047521)"
       id="g1354">
      <path
         style="opacity:1;fill:#3a414a;fill-opacity:1;stroke:none;stroke-width:0.25371161;stroke-linecap:round;stroke-linejoin:round;stroke-miterlimit:4;stroke-dasharray:none;stroke-opacity:1;paint-order:stroke fill markers"
         d="m -39.67205,63.031053 c -19.02975,0.10449 -19.219,10.64588 -19.93418,22.23792 h -3.3197 c -0.98408,0.14115 -2.07056,0.14062 -2.57969,2.38125 l 0.0661,1.98438 c 0.25763,2.99445 2.86055,3.42832 5.07928,4.02249 -0.0365,0.93045 -0.0403,1.85974 0.014,2.74247 -2.54678,0.75233 -4.39559,3.10025 -4.39559,5.897307 v 20.6251 c 0,3.40782 2.74373,6.15156 6.15157,6.15156 H 9.18079 c 3.40782,0 6.15156,-2.74374 6.15156,-6.15156 v -20.6251 c 0,-3.013947 -2.14665,-5.506197 -5.00021,-6.042527 10e-4,-0.88486 -0.0227,-1.73439 -0.0558,-2.56831 2.24149,-0.61001 4.92801,-1.00787 5.18986,-4.05143 l 0.0661,-1.98438 c -0.50914,-2.24063 -1.59561,-2.2401 -2.57969,-2.38125 H 9.67684 c -0.0611,-0.93509 -0.10375,-1.83683 -0.10335,-2.69854 0.008,-20.3288 -9.98814,-18.38627 -20.62096,-19.53938 z"
         id="rect942"
         inkscape:connector-curvature="0" />
      <g
         id="g963"
         transform="translate(-93.98477,-7.030376)">
        <path
           sodipodi:nodetypes="sssssssss"
           inkscape:connector-curvature="0"
           id="rect953"
           d="m 44.901276,78.386888 h 49.20432 c 3.16124,0 5.40649,2.559207 5.70621,5.706202 l 0.748354,7.85773 c 0.29971,3.14699 -1.110514,5.98683 -6.454564,5.98683 h -49.20432 c -4.51763,0 -5.99794,-2.49924 -5.91668,-5.65943 l 0.21048,-8.18513 c 0.0813,-3.16019 2.54497,-5.706202 5.7062,-5.706202 z"
           style="opacity:1;fill:#699da0;fill-opacity:1;stroke:none;stroke-width:0.2605049;stroke-linecap:round;stroke-linejoin:round;stroke-miterlimit:4;stroke-dasharray:none;stroke-opacity:1;paint-order:stroke fill markers" />
        <path
           inkscape:connector-curvature="0"
           id="path956"
           d="m 42.749761,83.485055 -0.140317,1.917658 9.541523,10.430195 2.104747,-0.09355 z"
           style="fill:#b2cfcf;fill-opacity:1;stroke:none;stroke-width:0.26458332px;stroke-linecap:butt;stroke-linejoin:miter;stroke-opacity:1" />
        <path
           inkscape:connector-curvature="0"
           id="path958"
           d="m 43.685203,80.631952 14.078423,15.294499 3.788545,-0.09354 -14.4526,-15.341272 z"
           style="fill:#b4cfcf;fill-opacity:1;stroke:none;stroke-width:0.26458332px;stroke-linecap:butt;stroke-linejoin:miter;stroke-opacity:1" />
      </g>
      <path
         style="fill:#56606c;fill-opacity:1;stroke:none;stroke-width:0.26458332px;stroke-linecap:butt;stroke-linejoin:miter;stroke-opacity:1"
         d="m -53.99456,92.068203 0.88867,2.61924 c 2.518,0.90806 7.69394,1.4262 9.72861,8.044807 1.13709,3.61129 1.78792,7.3348 1.30962,11.31887 h 2.71278 c -0.27763,-2.12466 -0.63188,-4.21867 -0.63142,-6.45456 0.0324,-1.95485 0.4205,-4.05426 0.70158,-5.63605 0.35232,-1.34608 1.19579,-2.507967 2.03459,-3.671617 z"
         id="path969"
         inkscape:connector-curvature="0"
         sodipodi:nodetypes="ccccccccc" />
      <path
         sodipodi:nodetypes="ccccccccc"
         inkscape:connector-curvature="0"
         id="path992"
         d="m 6.26087,91.605183 -0.88867,2.61924 c -2.518,0.90806 -7.69394,1.4262 -9.72861,8.044807 -1.13709,3.61129 -1.78792,7.3348 -1.30962,11.31887 h -2.71278 c 0.27763,-2.12466 0.63188,-4.21867 0.63142,-6.45456 -0.0324,-1.95485 -0.4205,-4.05426 -0.70158,-5.63605 -0.35232,-1.34608 -1.19579,-2.507967 -2.03459,-3.671617 z"
         style="fill:#23292e;fill-opacity:1;stroke:none;stroke-width:0.26458332px;stroke-linecap:butt;stroke-linejoin:miter;stroke-opacity:1" />
      <path
         style="opacity:1;fill:#56606c;fill-opacity:1;stroke:none;stroke-width:0.25371161;stroke-linecap:round;stroke-linejoin:round;stroke-miterlimit:4;stroke-dasharray:none;stroke-opacity:1;paint-order:stroke fill markers"
         d="m -62.95272,85.335203 c -0.98409,0.14115 -2.07056,0.14061 -2.57969,2.38125 l 0.0661,1.98437 c 0.25763,2.99446 2.86056,3.42832 5.07929,4.0225 -0.006,0.15806 -0.01,0.31557 -0.014,0.47335 l 0.14521,0.0202 0.59016,-8.88162 z"
         id="path1049"
         inkscape:connector-curvature="0" />
      <rect
         style="opacity:1;fill:#31363e;fill-opacity:1;stroke:none;stroke-width:0.25120932;stroke-linecap:round;stroke-linejoin:round;stroke-miterlimit:4;stroke-dasharray:none;stroke-opacity:1;paint-order:stroke fill markers"
         id="rect938"
         width="13.657474"
         height="15.621903"
         x="-62.570911"
         y="123.08652"
         ry="3.8353176" />
      <path
         inkscape:connector-curvature="0"
         id="path985"
         style="fill:#1f2226;fill-opacity:1;stroke:none;stroke-width:0.26458332px;stroke-linecap:butt;stroke-linejoin:miter;stroke-opacity:1"
         d="m 80.896353,105.97083 -0.198437,17.06563 3.505729,-6.01928 -1.389063,-10.12031 z m -3.505729,-1.65365 -0.06615,18.91771 1.852084,-0.13229 v -18.78542 z m -3.439583,-0.26458 -0.06615,19.11615 h 1.785937 L 75.80312,104.0526 Z m -3.241146,0.13229 v 18.91771 l 1.785937,-0.19844 V 104.0526 Z m -3.505729,0.0662 v 18.78542 l 1.785937,-0.1323 0.06615,-18.71927 z m -3.175,0.26458 -0.198438,20.24063 1.653646,-1.71979 0.06615,-18.71928 z m -3.439583,0.46302 0.06615,19.97604 1.719792,-0.19843 -0.132292,-20.24063 z m -1.984375,0.79375 0.132291,18.71927 -3.571875,-1.4552 -0.132291,-16.86719 z"
         clip-path="url(#clipPath988)"
         transform="translate(-93.61059,-6.282022)" />
      <g
         id="g1143"
         transform="translate(-96.13629,-92.716987)">
        <circle
           r="5.622396"
           cy="197.91527"
           cx="42.13295"
           id="path994"
           style="opacity:1;fill:#ffffff;fill-opacity:1;stroke:none;stroke-width:0.31782606;stroke-linecap:round;stroke-linejoin:round;stroke-miterlimit:4;stroke-dasharray:none;stroke-opacity:1;paint-order:stroke fill markers" />
        <path
           inkscape:connector-curvature="0"
           id="path996"
           d="m 37.443069,194.7617 a 5.622396,5.622396 0 0 0 -1.122928,3.36 5.622396,5.622396 0 0 0 5.622395,5.6224 5.622396,5.622396 0 0 0 2.582789,-0.63046 z"
           style="fill:#bdbdbd;fill-opacity:1;stroke:none;stroke-width:0.26458332px;stroke-linecap:butt;stroke-linejoin:miter;stroke-opacity:1" />
      </g>
      <g
         id="g1165"
         transform="translate(-96.37015,-92.716987)">
        <circle
           style="opacity:1;fill:#ffffff;fill-opacity:1;stroke:none;stroke-width:0.31782606;stroke-linecap:round;stroke-linejoin:round;stroke-miterlimit:4;stroke-dasharray:none;stroke-opacity:1;paint-order:stroke fill markers"
           id="circle1007"
           cx="100.39608"
           cy="197.96204"
           r="5.622396" />
        <path
           style="fill:#bdbdbd;fill-opacity:1;stroke:none;stroke-width:0.26458332px;stroke-linecap:butt;stroke-linejoin:miter;stroke-opacity:1"
           d="m 95.799746,194.66815 a 5.622396,5.622396 0 0 0 -1.122929,3.36 5.622396,5.622396 0 0 0 5.622393,5.6224 5.622396,5.622396 0 0 0 2.58279,-0.63045 z"
           id="path1009"
           inkscape:connector-curvature="0" />
      </g>
      <path
         style="fill:#779393;fill-opacity:1;stroke:none;stroke-width:0.26458332px;stroke-linecap:butt;stroke-linejoin:miter;stroke-opacity:1"
         d="m -62.66471,129.84507 v 4.93458 c 0,2.12477 1.71066,3.83543 3.83543,3.83543 h 4.93458 z"
         id="path1072"
         inkscape:connector-curvature="0" />
      <rect
         ry="3.8353176"
         y="123.08652"
         x="-1.692096"
         height="15.621903"
         width="13.657474"
         id="rect1077"
         style="opacity:1;fill:#31363e;fill-opacity:1;stroke:none;stroke-width:0.25120932;stroke-linecap:round;stroke-linejoin:round;stroke-miterlimit:4;stroke-dasharray:none;stroke-opacity:1;paint-order:stroke fill markers" />
      <rect
         style="opacity:1;fill:#ffffff;fill-opacity:1;stroke:none;stroke-width:0.25799999;stroke-linecap:round;stroke-linejoin:round;stroke-miterlimit:4;stroke-dasharray:none;stroke-opacity:1;paint-order:stroke fill markers"
         id="rect1054"
         width="80.830208"
         height="5.0270834"
         x="-65.307175"
         y="119.00339"
         ry="1.0289876" />
      <g
         id="g1022"
         transform="translate(-94.96658,-6.282022)">
        <circle
           r="2.291836"
           cy="121.27698"
           cx="42.5159"
           id="path1013"
           style="opacity:1;fill:#e96e41;fill-opacity:1;stroke:none;stroke-width:0.25799999;stroke-linecap:round;stroke-linejoin:round;stroke-miterlimit:4;stroke-dasharray:none;stroke-opacity:1;paint-order:stroke fill markers" />
        <path
           inkscape:connector-curvature="0"
           id="path1015"
           d="m 40.500907,120.12496 a 2.291836,2.291836 0 0 0 -0.37052,1.24541 2.291836,2.291836 0 0 0 2.29185,2.29185 2.291836,2.291836 0 0 0 1.099675,-0.28371 z"
           style="fill:#cf3140;fill-opacity:1;stroke:none;stroke-width:0.26458332px;stroke-linecap:butt;stroke-linejoin:miter;stroke-opacity:1" />
      </g>
      <g
         id="g1028"
         transform="translate(-40.00969,-6.282022)">
        <circle
           style="opacity:1;fill:#e96e41;fill-opacity:1;stroke:none;stroke-width:0.25799999;stroke-linecap:round;stroke-linejoin:round;stroke-miterlimit:4;stroke-dasharray:none;stroke-opacity:1;paint-order:stroke fill markers"
           id="circle1024"
           cx="42.5159"
           cy="121.27698"
           r="2.291836" />
        <path
           style="fill:#cf3140;fill-opacity:1;stroke:none;stroke-width:0.26458332px;stroke-linecap:butt;stroke-linejoin:miter;stroke-opacity:1"
           d="m 40.500907,120.12496 a 2.291836,2.291836 0 0 0 -0.37052,1.24541 2.291836,2.291836 0 0 0 2.29185,2.29185 2.291836,2.291836 0 0 0 1.099675,-0.28371 z"
           id="path1026"
           inkscape:connector-curvature="0" />
      </g>
      <rect
         style="opacity:1;fill:#ffffff;fill-opacity:1;stroke:none;stroke-width:0.25799999;stroke-linecap:round;stroke-linejoin:round;stroke-miterlimit:4;stroke-dasharray:none;stroke-opacity:1;paint-order:stroke fill markers"
         id="rect1056"
         width="3.5079134"
         height="8.6528473"
         x="-45.522724"
         y="117.28676"
         ry="0.93544334" />
      <path
         style="opacity:1;fill:#ffffff;fill-opacity:1;stroke:none;stroke-width:0.25799999;stroke-linecap:round;stroke-linejoin:round;stroke-miterlimit:4;stroke-dasharray:none;stroke-opacity:1;paint-order:stroke fill markers"
         d="m -7.40003,117.28676 h 0.81851 v 8.65284 h -0.81851 c -0.51824,0 -0.93544,-0.4172 -0.93544,-0.93544 v -6.78196 c 0,-0.51824 0.4172,-0.93544 0.93544,-0.93544 z"
         id="rect1058"
         inkscape:connector-curvature="0"
         sodipodi:nodetypes="sccssss" />
      <path
         sodipodi:nodetypes="sccssss"
         inkscape:connector-curvature="0"
         id="path1061"
         d="m -5.73102,117.28676 h -0.81852 v 8.65284 h 0.81852 c 0.51823,0 0.93544,-0.4172 0.93544,-0.93544 v -6.78196 c 0,-0.51824 -0.41721,-0.93544 -0.93544,-0.93544 z"
         style="opacity:1;fill:#b0b8b8;fill-opacity:1;stroke:none;stroke-width:0.25799999;stroke-linecap:round;stroke-linejoin:round;stroke-miterlimit:4;stroke-dasharray:none;stroke-opacity:1;paint-order:stroke fill markers" />
      <path
         style="opacity:1;fill:#ffffff;fill-opacity:1;stroke:none;stroke-width:0.24963018;stroke-linecap:round;stroke-linejoin:round;stroke-miterlimit:4;stroke-dasharray:none;stroke-opacity:1;paint-order:stroke fill markers"
         d="m -13.50798,119.00339 v 6.87916 c 0,0.98941 -0.79653,1.78593 -1.78595,1.78593 h -17.79322 c -0.98941,0 -1.78594,-0.79652 -1.78594,-1.78593 v -6.87916 z"
         id="rect1063"
         inkscape:connector-curvature="0"
         sodipodi:nodetypes="csssscc" />
      <path
         style="fill:#a5a5a5;fill-opacity:1;stroke:none;stroke-width:0.27116218px;stroke-linecap:butt;stroke-linejoin:miter;stroke-opacity:1"
         d="m -42.01698,118.27581 v 5.85446 h 4.86999 z m 28.50885,0.55581 v 5.29865 h 4.40749 z"
         id="path1068"
         inkscape:connector-curvature="0" />
      <path
         style="fill:#a5a5a5;fill-opacity:1;stroke:none;stroke-width:0.21273944px;stroke-linecap:butt;stroke-linejoin:miter;stroke-opacity:1"
         d="m -4.82626,118.97736 4.41434,5.05256 -4.41434,0.0399 z"
         id="path1070"
         inkscape:connector-curvature="0"
         sodipodi:nodetypes="cccc" />
      <path
         style="fill:#272e32;fill-opacity:1;stroke:none;stroke-width:0.26458332px;stroke-linecap:butt;stroke-linejoin:miter;stroke-opacity:1"
         d="m -36.408334,66.021511 7.577092,5.238482 27.3149463,-0.09354 -12.4413963,-8.606078 z"
         id="path1279"
         inkscape:connector-curvature="0" />
      <g
         id="g1083"
         transform="translate(-99.60132,18.946743)">
        <path
           sodipodi:nodetypes="ccsssscc"
           inkscape:connector-curvature="0"
           id="rect124"
           d="m 75.132552,38.904355 c 2.764013,0.05884 11.922695,-0.357211 12.394624,2.829836 v 3.4259 c 0,1.146314 -0.922844,2.069158 -2.069158,2.069158 H 64.807085 c -1.146313,0 -2.069158,-0.922844 -2.069158,-2.069158 v -3.4259 c -0.261105,-3.475388 9.60888,-2.598326 12.394625,-2.829836 z"
           style="opacity:1;fill:#c4a838;fill-opacity:1;stroke:none;stroke-width:0.25799999;stroke-linecap:round;stroke-linejoin:round;stroke-miterlimit:4;stroke-dasharray:none;stroke-opacity:1;paint-order:stroke fill markers" />
        <path
           style="opacity:1;fill:#f7d548;fill-opacity:1;stroke:none;stroke-width:0.25799999;stroke-linecap:round;stroke-linejoin:round;stroke-miterlimit:4;stroke-dasharray:none;stroke-opacity:1;paint-order:stroke fill markers"
           d="m 74.934114,40.458781 c 2.764013,0.05884 11.922695,-0.357211 12.394624,2.829836 v 1.871473 c 0,1.146314 -0.922844,2.069158 -2.069158,2.069158 H 64.608647 c -1.146313,0 -2.069158,-0.922844 -2.069158,-2.069158 v -1.871473 c -0.261105,-3.475388 9.60888,-2.598326 12.394625,-2.829836 z"
           id="path932"
           inkscape:connector-curvature="0"
           sodipodi:nodetypes="ccsssscc" />
        <text
           id="text936"
           y="46.241142"
           x="65.972435"
           style="font-style:normal;font-weight:normal;font-size:6.60989046px;line-height:1.25;font-family:sans-serif;letter-spacing:0px;word-spacing:0px;fill:#3c5666;fill-opacity:1;stroke:none;stroke-width:0.16524726"
           xml:space="preserve"><tspan
             style="font-style:normal;font-variant:normal;font-weight:normal;font-stretch:normal;font-size:6.60989046px;font-family:'Arial Black';-inkscape-font-specification:'Arial Black, Normal';font-variant-ligatures:normal;font-variant-caps:normal;font-variant-numeric:normal;font-feature-settings:normal;text-align:start;writing-mode:lr-tb;text-anchor:start;fill:#3c5666;fill-opacity:1;stroke-width:0.16524726"
             y="46.241142"
             x="65.972435"
             id="tspan934"
             sodipodi:role="line">TAXI</tspan></text>
      </g>
    </g>
  </g>
</svg>
