<?xml version="1.0" encoding="iso-8859-1"?>
<!-- Generator: Adobe Illustrator 16.0.4, SVG Export Plug-In . SVG Version: 6.00 Build 0)  -->
<!DOCTYPE svg PUBLIC "-//W3C//DTD SVG 1.1//EN" "http://www.w3.org/Graphics/SVG/1.1/DTD/svg11.dtd">
<svg version="1.1" id="at_the_bar_xA0_Image_1_" xmlns="http://www.w3.org/2000/svg" xmlns:xlink="http://www.w3.org/1999/xlink"
	 x="0px" y="0px" width="160.08px" height="234.96px" viewBox="0 0 160.08 234.96"
	 style="enable-background:new 0 0 160.08 234.96;" xml:space="preserve">
<g>
	<path style="fill-rule:evenodd;clip-rule:evenodd;" d="M145.431,94.39c0.913,0.906,1.245,1.937,0.812,3.243
		c-0.189,0.57-0.032,1.255-0.032,1.888c0.097-0.078,0.192-0.156,0.288-0.234c0.445,0.302,0.963,0.539,1.312,0.926
		c0.275,0.305,0.373,0.788,0.501,1.207c0.398,1.309,1.095,2.077,2.637,1.938c1.216-0.11,2.464-0.011,3.686,0.113
		c0.777,0.079,1.566,0.292,2.282,0.604c0.336,0.146,0.509,0.664,0.756,1.013c-0.371,0.258-0.739,0.731-1.115,0.737
		c-1.63,0.025-3.261-0.091-4.893-0.146c-0.504-0.017-1.009-0.002-1.271-0.002c-0.296,0.739-0.542,1.28-0.724,1.842
		c-0.079,0.243-0.125,0.582-0.015,0.785c0.551,1.025-0.044,1.716-0.7,2.305c-1.214,1.089-2.489,2.113-3.767,3.129
		c-0.292,0.232-0.697,0.321-1.051,0.477c-0.13-0.391-0.418-0.805-0.364-1.169c0.357-2.432-0.473-4.601-1.308-6.801
		c-0.37-0.975-0.441-2.06-0.684-3.086c-0.274-1.161-0.775-2.302-0.841-3.471c-0.097-1.716,0.077-3.451,0.193-5.174
		c0.066-0.992,0.205-1.983,0.393-2.959c0.097-0.505,0.37-0.976,0.586-1.52c-0.078-0.375-0.181-0.871-0.283-1.366
		c-0.085-0.039-0.17-0.077-0.255-0.116c-0.393,1.41-0.892,2.8-1.15,4.233c-0.301,1.666-0.414,3.366-0.556,5.057
		c-0.032,0.38,0.133,0.786,0.251,1.166c0.081,0.259,0.324,0.486,0.347,0.74c0.152,1.717,1.047,3.273,0.719,5.144
		c-0.194,1.106,0.495,2.374,0.812,3.562c0.12,0.453,0.367,0.875,0.459,1.332c0.384,1.907,0.848,3.809,1.065,5.737
		c0.326,2.882,0.557,5.781,0.665,8.679c0.092,2.448-0.122,4.907-0.06,7.357c0.041,1.574,0.479,3.142,0.481,4.712
		c0.004,1.941-0.297,3.882-0.392,5.826c-0.055,1.105-0.097,2.242,0.094,3.323c0.319,1.809-0.332,2.949-2.142,3.456
		c-0.557,0.155-1.195,0.342-1.582,0.729c-1.722,1.723-3.698,1.553-5.79,0.987c-0.921-0.249-1.866-0.448-2.813-0.538
		c-0.298-0.028-0.898,0.353-0.917,0.582c-0.219,2.734-0.415,5.475-0.484,8.216c-0.035,1.423,0.312,1.657,1.733,1.644
		c4.827-0.049,9.653-0.112,14.48-0.166c0.279-0.003,0.597-0.048,0.828,0.066c0.289,0.142,0.506,0.429,0.754,0.653
		c-0.25,0.198-0.495,0.557-0.753,0.566c-1.03,0.038-2.065-0.054-3.099-0.06c-4.071-0.023-8.143-0.022-12.214-0.057
		c-0.649-0.006-0.995,0.192-0.971,0.875c0.007,0.199,0.007,0.401-0.01,0.6c-0.176,2.039-0.176,2.085,1.971,2.031
		c3.9-0.099,7.8-0.261,11.7-0.388c0.595-0.02,1.224-0.109,1.776,0.047c0.402,0.113,0.707,0.577,1.055,0.886
		c-0.396,0.245-0.778,0.674-1.189,0.702c-1.342,0.092-2.693,0.034-4.042,0.041c-3.393,0.017-6.784,0.038-10.177,0.054
		c-0.616,0.004-1.474-0.224-1.3,0.798c0.051,0.296,0.886,0.671,1.342,0.646c1.669-0.087,4.801,1.989,5.705,3.642
		c0.97,1.771,0.798,3.721,0.401,5.36c-0.425,1.755-1.684,3.445-2.95,4.822c-1.239,1.347-2.917,2.31-4.461,3.354
		c-1.797,1.217-3.772,2.196-5.459,3.544c-1.55,1.238-3.113,1.187-4.731,0.621c-2.695-0.942-4.229-3.637-3.859-6.48
		c0.031-0.237,0.177-0.529,0.088-0.703c-1.256-2.441,0.028-4.736,0.32-7.1c0.132-1.07-0.127-2.194-0.253-3.289
		c-0.087-0.753-0.306-1.493-0.367-2.247c-0.138-1.7-0.112-1.722-1.824-1.766c-2.356-0.06-4.715-0.067-7.071-0.14
		c-0.793-0.024-1.594-0.124-2.368-0.293c-0.309-0.068-0.555-0.417-0.83-0.638c0.321-0.159,0.643-0.456,0.965-0.458
		c2.396-0.016,4.791,0.033,7.186,0.05c1.537,0.011,3.074,0.002,4.744,0.002c-0.643-1.263-1.098-2.31-1.702-3.262
		c-0.201-0.317-0.779-0.537-1.196-0.555c-2.828-0.123-5.66-0.221-8.49-0.233c-0.806-0.003-1.613,0.303-2.497,0.482
		c0.704,2.023,0.757,3.863,0.161,5.776c-0.319,1.024-0.022,2.246-0.364,3.257c-1.246,3.685-5.871,5.367-9.035,2.742
		c-1.81-1.5-3.685-2.955-5.282-4.663c-1.059-1.131-2.237-0.91-3.41-0.938c-4.387-0.104-8.777-0.05-13.162-0.194
		c-2.818-0.093-2.815-0.202-5.092,1.616c0.214,0.121,0.384,0.261,0.578,0.318c0.612,0.183,0.902,0.53,0.591,1.151
		c-0.319,0.639-0.758,1.27-1.572,0.833c-1.174-0.629-2.329-0.335-3.447-0.02c-3.84,1.084-8.224-1.5-7.665-6.303
		c0.08-0.688,0.637-1.32,1.038-2.106c0-1.897-0.157-4.002,0.046-6.07c0.185-1.89,0.843-3.728,1.143-5.611
		c0.431-2.716,0.709-5.455,1.092-8.179c0.098-0.697,0.27-1.405,0.541-2.053c0.323-0.773,0.396-1.311-0.498-1.772
		c-0.322-0.166-0.604-0.799-0.572-1.192c0.136-1.664,0.365-3.323,0.622-4.975c0.171-1.102-0.302-1.476-1.319-1.37
		c-1.827,0.188-3.653,0.383-5.479,0.577c-0.712,0.075-1.505,0.396-2.119,0.188c-1.566-0.532-2.893,0.297-4.323,0.495
		c-0.179,0.024-0.389,0.268-0.475,0.459c-1.574,3.506-3.272,6.965-4.629,10.554c-0.663,1.753-0.696,3.746-0.991,5.634
		c-0.417,2.669-0.762,5.35-1.256,8.004c-0.11,0.589-0.69,1.105-1.097,1.622c-0.717,0.909-1.79,1.622-0.998,3.102
		c0.249,0.465-0.063,1.238-0.146,1.866c-0.031,0.233-0.163,0.452-0.215,0.685c-0.438,1.94-0.357,2.06,1.587,2.056
		c4.629-0.012,9.259-0.032,13.888-0.072c0.512-0.004,1.025-0.238,1.534-0.225c0.405,0.011,0.805,0.235,1.208,0.364
		c-0.352,0.314-0.673,0.845-1.062,0.9c-1.141,0.163-2.309,0.178-3.466,0.178c-3.953-0.002-7.906-0.038-11.859-0.055
		c-0.479-0.002-0.958,0.04-1.438,0.047c-0.706,0.012-0.942,0.391-0.752,1.021c0.737,2.442,1.397,4.913,2.276,7.304
		c0.76,2.066-0.364,3.961-2.576,3.948c-0.469-0.003-0.992-0.068-1.394-0.284c-1.128-0.604-1.957-0.071-2.829,0.548
		c-0.351,0.249-0.786,0.467-1.203,0.515c-1.283,0.147-1.916,0.729-2.027,2.003c-0.011,0.119-0.028,0.239-0.061,0.354
		c-0.665,2.278-0.649,2.254,1.375,3.553c1.202,0.771,2.327,1.661,3.528,2.434c0.193,0.124,0.854-0.04,0.874-0.149
		c0.635-3.413,3.223-4.975,5.967-6.405c0.2-0.104,0.345-0.315,0.55-0.509c-0.525-0.561-1.02-1.087-1.59-1.693
		c0.314-0.166,0.486-0.328,0.572-0.291c1.511,0.647,3.275,0.812,4.35,2.305c0.191,0.267,0.534,0.474,0.851,0.591
		c1.052,0.388,2.13,0.698,2.714,1.805c0.089,0.169,0.376,0.278,0.593,0.33c4.362,1.035,7.104,4.044,9.29,7.688
		c0.356,0.595,0.683,1.416,0.554,2.035c-0.125,0.598-0.76,1.329-1.34,1.543c-1.257,0.465-2.61,0.781-3.946,0.896
		c-2.409,0.206-4.836,0.312-7.252,0.269c-0.965-0.018-1.939-0.496-2.877-0.849c-0.751-0.283-1.455-0.693-2.261-1.087
		c0,3.003,0.037,5.742-0.014,8.479c-0.031,1.632-0.209,3.261-0.305,4.892c-0.04,0.674-0.054,1.351-0.044,2.026
		c0.035,2.348,0.113,4.695,0.119,7.044c0.004,1.564,0.549,2.762,1.683,3.909c2.18,2.205,4.898,2.541,7.714,2.596
		c4.628,0.089,9.259,0.042,13.887,0.116c1.414,0.022,2.821,0.308,4.236,0.377c1.833,0.089,3.67,0.068,5.504,0.12
		c3.551,0.1,7.107,0.128,10.65,0.35c4.418,0.277,8.824,0.998,13.236,1.006c3.68,0.007,7.367-0.683,11.036-1.178
		c1.358-0.184,1.903-1.209,1.898-2.585c-0.007-1.75,0.126-3.499,0.16-5.25c0.05-2.596,0.05-5.193,0.104-7.789
		c0.024-1.153,0.217-2.308,0.178-3.456c-0.073-2.146-0.312-4.286-0.381-6.432c-0.04-1.265,0.154-2.535,0.178-3.804
		c0.038-2.072-0.06-4.15,0.054-6.217c0.092-1.693,0.35-3.371-0.056-5.056c-0.204-0.851,0.217-1.562,0.98-1.59
		c0.352-0.014,1.043,0.906,1.05,1.409c0.018,1.451-0.332,2.904-0.354,4.358c-0.021,1.42,0.229,2.841,0.279,4.265
		c0.066,1.906,0.033,3.815,0.083,5.723c0.053,2.07,0.209,4.139,0.215,6.209c0.007,2.424-0.128,4.849-0.148,7.272
		c-0.019,2.312,0.227,4.645-0.016,6.928c-0.169,1.589-0.227,3.164-0.329,4.748c-0.088,1.371-1.014,2.453-2.231,3.079
		c-1.688,0.868-3.534,1.215-5.439,1.215c-2.839,0-5.682,0.119-8.514-0.01c-3.901-0.179-7.79-0.643-11.692-0.799
		c-4.657-0.188-9.322-0.168-13.984-0.262c-1.028-0.021-2.053-0.182-3.082-0.208c-5.662-0.146-11.335-0.524-16.98-0.278
		c-2.406,0.105-4.539-0.336-6.709-0.979c-3.466-1.026-4.989-4.625-5.028-7.679c-0.037-2.906,0.038-5.814,0.099-8.721
		c0.061-2.902,0.217-5.803,0.227-8.705c0.004-1.303-0.247-2.606-0.381-3.91c-0.016-0.159-0.091-0.349-0.031-0.474
		c0.729-1.534-0.344-2.01-1.412-2.609c-0.676-0.38-1.175-1.062-1.818-1.516c-0.871-0.615-1.75-1.268-2.72-1.682
		c-1.885-0.805-3.502-1.949-4.738-3.546c-0.716-0.927-1.398-2.001-0.787-3.313c0.062-0.132,0.112-0.357,0.045-0.448
		c-1.143-1.526-0.107-2.978,0.099-4.47c0.217-1.573,0.225-3.175,0.433-4.749c0.446-3.364,0.964-6.719,1.446-10.079
		c0.033-0.227,0.004-0.462,0.004-0.848c-0.794,0.067-1.534,0.17-2.275,0.187c-2.067,0.045-4.136,0.034-6.203,0.09
		c-0.956,0.025-1.909,0.225-2.862,0.214c-0.612-0.008-1.24-0.209-1.817-0.438c-0.105-0.042-0.092-0.872,0.033-0.922
		c0.548-0.219,1.163-0.407,1.744-0.383c2.114,0.088,4.223,0.29,6.336,0.394c0.671,0.033,1.349-0.139,2.025-0.158
		c1-0.029,2.001-0.008,3.205-0.008c0.155-0.798,0.352-1.786,0.531-2.777c0.019-0.103-0.03-0.271-0.106-0.327
		c-2.147-1.558-1.362-3.672-1.122-5.702c0.12-1.017,0.191-2.05,0.159-3.071c-0.085-2.754-0.271-5.505-0.336-8.259
		c-0.015-0.607,0.283-1.23,0.474-1.835c0.211-0.672,0.249-1.198-0.538-1.583c-0.949-0.465-0.97-1.195-0.279-1.943
		c0.753-0.816,0.664-1.621-0.11-2.303c-1.766-1.557-2.646-3.826-4.18-5.455c-2.326-2.471-3.104-5.496-4.196-8.456
		c-0.331-0.896-0.66-1.454-1.792-0.957c-2.694,1.185-5.037-0.069-7.343-1.264c-0.806-0.417-1.59-0.924-2.268-1.522
		c-0.401-0.354-0.894-1.071-0.774-1.436c0.159-0.481,0.826-0.912,1.369-1.128c1.312-0.524,2.678-0.912,4.238-1.426
		c-0.421-0.311-0.625-0.424-0.779-0.586c-0.153-0.159-0.4-0.435-0.351-0.539c0.1-0.21,0.351-0.434,0.577-0.484
		c0.737-0.165,1.488-0.278,2.239-0.367c0.996-0.118,1.34-0.681,1.26-1.8c-0.474,0.337-0.792,0.702-1.178,0.8
		c-0.383,0.097-0.834-0.073-1.256-0.126c0.173-0.371,0.245-0.912,0.536-1.085c1.655-0.986,1.765-1.93,0.278-3.147
		c-1.149-0.94-1.02-1.024-0.156-2.243c1.345-1.897,3.297-3.385,3.974-5.751c0.058-0.201,0.377-0.327,0.575-0.488
		c0.123,0.3,0.381,0.618,0.346,0.898c-0.258,2.061-0.325,4.191-0.932,6.15c-0.849,2.737,0.809,4.271,2.264,6.144
		c3.007-13.05,3.069-26.321,5.091-39.477c-1.521,0.556-2.328,1.854-2.245,3.364c0.077,1.388,0.384,2.798-0.499,4.062
		c-0.578,0.827-1.172,1.642-1.75,2.469c-0.307,0.438-0.594,0.89-0.89,1.336c0.44,0.292,0.847,0.673,1.329,0.856
		c0.767,0.292,1.089,0.758,0.652,1.458c-1.341,2.146-1.144,4.607-1.521,6.953c-0.208,1.296-0.426,2.592-0.709,3.873
		c-0.06,0.271-0.419,0.477-0.64,0.712c-0.226-0.248-0.624-0.482-0.646-0.747c-0.069-0.864-0.152-1.774,0.043-2.602
		c0.622-2.636,1.323-5.255,2.091-7.853c0.228-0.771,0.076-1.026-0.633-1.318c-1.736-0.716-1.833-1.504-0.441-2.793
		c0.234-0.217,0.46-0.45,0.719-0.634c0.947-0.676,1.418-1.49,1.282-2.743c-0.114-1.046-0.061-2.17,0.213-3.18
		c0.264-0.972,0.906-1.84,1.49-2.962c-0.646-0.087-1.161-0.18-1.681-0.223c-1.616-0.135-1.852-0.41-2.166-1.957
		c-0.086-0.424-0.602-1.036-0.979-1.082c-2.227-0.268-2.232-0.22-2.664-2.472c-0.215,0.073-0.416,0.196-0.62,0.202
		c-0.592,0.019-1.42,0.228-1.723-0.073c-0.462-0.46-0.921-1.406-0.744-1.93c0.396-1.173,1.04-2.34,1.856-3.269
		c0.746-0.848,0.762-1.421,0.144-2.268c-1.065-1.458-1.896-3.028-2.162-4.866c-0.284-1.966-0.239-3.875,0.688-5.675
		c0.741-1.439,1.268-3.113,2.358-4.222c2.368-2.408,4.672-5.033,8.204-5.875c0.459-0.109,0.899-0.326,1.327-0.537
		c4.957-2.438,9.667-2.066,13.98,1.415c1.122,0.906,2.005,2.156,2.828,3.364c0.36,0.529,0.293,1.35,0.447,2.187
		c0.904-0.439,2.004-0.893,1.89-1.975c-0.084-0.801-0.935-1.521-1.498-2.357c0.886-0.43,1.627-0.163,2.212,0.613
		c1.26,1.67,1.055,2.37-1.288,4.737c2.077,2.259,3.142,5.009,3.907,7.901c0.244,0.922,0.197,1.986,0.652,2.772
		c0.589,1.017,1.733-0.172,2.596,0.284c0.661,0.35,1.655,0.405,2.014,0.926c0.917,1.334,0.333,2.506-1.294,3.025
		c-0.52,0.166-1.061,0.266-1.866,0.462c0.411,0.557,0.693,0.945,0.98,1.328c0.443,0.592,0.875,1.193,1.342,1.764
		c0.177,0.216,0.44,0.361,0.665,0.539c0.148-0.241,0.313-0.474,0.439-0.726c0.153-0.308,0.189-0.819,0.419-0.922
		c2.134-0.952,2.445-2.829,2.718-4.843c0.179-1.32,0.709-2.592,1.073-3.888c0.053-0.19,0.076-0.395,0.078-0.593
		c0.021-1.732,0.019-1.735,1.73-1.771c2.349-0.049,4.09,1.402,5.997,2.441c0.205,0.112,0.367,0.303,0.573,0.415
		c1.31,0.715,1.912,1.697,1.489,3.138c-0.615,2.091-1.285,4.2-2.247,6.146c-1.443,2.917-3.16,5.699-4.76,8.539
		c-0.059,0.104-0.093,0.24-0.18,0.309c-0.938,0.739-1.709,1.39-0.829,2.812c0.365,0.589-0.525,1.09-1.249,1.271
		c-0.353,0.088-0.938,0.333-0.939,0.512c-0.004,0.364,0.251,0.791,0.515,1.088c1.432,1.613,2.346,3.443,2.902,5.55
		c0.431,1.636,1.342,3.14,1.962,4.733c0.588,1.512,1.072,3.065,1.61,4.597c0.091,0.258,0.154,0.592,0.346,0.736
		c1.231,0.921,1.688,2.152,1.458,3.593c2.421,0,4.726,0.009,7.03-0.002c2.675-0.013,5.35-0.056,8.024-0.055
		c0.812,0.001,1.144,0.634,0.558,1.167c-0.425,0.387-1.205,0.675-1.758,0.584c-3.637-0.592-7.205-0.622-10.786,0.464
		c-0.906,0.274-2.016-0.121-3.19-0.222c0.122,0.796,0.245,1.562,0.355,2.329c0.068,0.474,0.18,0.952,0.162,1.424
		c-0.054,1.379-0.01,1.417,1.424,1.35c4.708-0.217,9.417-0.431,14.126-0.59c0.376-0.013,0.766,0.397,1.148,0.61
		c-0.385,0.318-0.758,0.893-1.156,0.911c-2.27,0.106-4.544,0.084-6.818,0.098c-2.597,0.015-5.195,0.014-7.792,0.04
		c-0.282,0.003-0.562,0.131-0.843,0.202c-0.009,0.115-0.019,0.231-0.028,0.347c0.321,0.097,0.645,0.286,0.963,0.277
		c4.589-0.124,9.178-0.277,13.767-0.416c0.56-0.017,1.124-0.028,1.679,0.03c1.129,0.117,1.414-0.405,1.229-1.428
		c-0.105-0.584-0.08-1.191-0.141-1.785c-0.023-0.221-0.054-0.508-0.196-0.641c-1.685-1.568-1.494-3.402-0.873-5.353
		c0.102-0.318-0.071-0.984-0.313-1.109c-1.829-0.942-2.01-2.651-2.156-4.38c-0.046-0.553,0.141-1.146,0.009-1.667
		c-0.087-0.342-0.539-0.82-0.854-0.841c-2.211-0.146-3.479-1.02-4.144-3.098c-0.631-1.973-1.208-3.962-1.806-5.945
		c-0.529-1.753-1.117-3.491-1.564-5.265c-0.623-2.472-0.809-4.929,0.294-7.376c0.962-2.137,2.69-3.33,5.022-3.304
		c0.279,0.003,0.816-0.433,0.802-0.636c-0.089-1.322,0.757-1.599,1.745-1.59c1.122,0.01,1.632-0.422,1.839-1.55
		c0.329-1.79,1.355-3.079,3.102-3.816c1.583-0.669,2.536,0.428,3.468,1.04c0.546-0.905,0.895-1.957,1.618-2.554
		c0.774-0.641,1.873-1.041,2.885-1.199c0.978-0.152,2.036,0.069,3.032,0.265c0.425,0.084,0.888,0.443,1.15,0.809
		c1.156,1.609,2.269,3.252,3.342,4.918c0.19,0.296,0.113,0.759,0.181,1.141c0.087,0.496,0.194,0.987,0.463,1.501
		c0.747-2.341,2.414-3.134,4.594-3.274c1.393-0.089,1.562-0.622,1.161-2.281c-0.228-0.939-0.396-1.99-0.207-2.912
		c0.446-2.181,1.347-2.454,3.01-1.186c0.349-0.921,0.732-1.853,1.039-2.81c0.074-0.231-0.017-0.626-0.183-0.809
		c-3.373-3.723-2.998-8.407,1.006-10.938c1.452-0.919,3.196-1.376,4.803-2.056c0.311-0.131,0.785-0.251,0.869-0.488
		c0.988-2.79,3.312-3.734,5.887-3.945c2.163-0.177,4.486-0.248,6.522,0.359c2.307,0.688,4.465,1.96,6.435,3.537
		c1.766,1.412,2.986,3.104,3.792,5.113c0.419,1.045,0.514,2.231,0.662,3.366c0.046,0.354-0.099,0.883-0.354,1.098
		c-0.944,0.795-0.627,1.392-0.079,2.324c1.315,2.239,1.886,4.651,0.633,7.169c-0.261,0.523-0.421,1.122-0.775,1.568
		c-0.76,0.957-1.662,1.712-3.048,1.354c-0.194-0.05-0.439,0.093-0.855,0.194c1.077,0.74,0.229,1.18,0.05,1.822
		c-0.289,1.034-0.209,2.232-0.033,3.321c0.418,2.603-0.818,5.121-3.139,6.292c-2.644,1.333-5.637,1.325-8.363,2.272
		c-2.376,0.826-4.955,1.312-6.803,3.261c-0.239,0.252-0.393,0.586-0.581,0.886c-0.274,0.439-0.454,1.002-0.841,1.288
		c-0.413,0.306-1.02,0.352-1.542,0.511c0.01-0.574-0.208-1.325,0.073-1.688c0.673-0.87,1.521-1.638,2.407-2.302
		c2.185-1.636,4.785-2.356,7.373-3.003c2.2-0.55,4.475-0.802,6.68-1.338c0.757-0.185,1.606-0.682,2.06-1.297
		c1.243-1.689,1.937-3.611,1.552-6.194c-0.531,0.668-0.832,1.141-1.227,1.514c-0.381,0.359-0.858,0.614-1.294,0.915
		c-0.217-0.419-0.419-0.849-0.656-1.256c-0.322-0.553-0.672-1.089-1.265-1.6c-0.036,0.358-0.065,0.716-0.109,1.073
		c-0.189,1.566-0.95,2.777-2.334,3.536c-0.85,0.466-1.588,0.104-2.03-0.909c0.052-0.044,0.122-0.147,0.167-0.138
		c0.971,0.211,1.981,0.338,2.509-0.718c0.669-1.342,1.126-2.771,0.273-4.228c-0.423-0.722-1.857-1.215-2.48-0.701
		c-0.851,0.701-2.126,0.458-2.836,1.486c-0.179,0.259-1.011,0.097-1.541,0.079c-0.783-0.027-0.583-0.627-0.777-1.117
		c-0.247-0.625-0.985-1.235-1.648-1.478c-1.567-0.574-3.055,0.107-4.498,0.696c-0.171,0.07-0.265,0.374-0.354,0.586
		c-0.156,0.367-0.204,0.807-0.436,1.112c-0.794,1.047-1.648,2.05-2.658,3.287c-0.403-1.589-0.772-3.062-1.152-4.533
		c-0.084-0.324-0.207-0.639-0.312-0.958c-0.354,0.134-0.717,0.245-1.058,0.406c-0.802,0.377-1.562,0.869-2.395,1.147
		c-0.979,0.327-2.097,0.316-3.004,0.759c-0.597,0.292-1.229,1.091-1.305,1.728c-0.106,0.907,0.761,1.156,1.608,1.16
		c1.052,0.005,2.07,0.239,2.922-0.814c0.644-0.795,2.447-0.75,3.109-0.111c0.229,0.221,0.412,0.612,0.397,0.916
		c-0.009,0.187-0.414,0.471-0.672,0.509c-1.156,0.172-2.321,0.328-3.488,0.383c-1.331,0.063-2.668,0.015-4.048,0.015
		c0.81,1.111,0.28,1.971-0.812,2.513c-2.047,1.017-1.809,2.983-2.068,4.734c-0.27,1.814-0.536,3.636-0.653,5.464
		c-0.116,1.823-0.081,3.659-0.022,5.486c0.012,0.366,0.432,0.719,0.365,1.032c-0.15,1.174-0.419,2.349-0.418,3.524
		c0.001,1.253,0.33,2.503,0.362,3.759c0.011,0.442-0.32,1.125-0.688,1.304c-1.588,0.776-1.65,1.318-0.459,2.268
		c1.459-0.365,2.666-0.667,3.926-0.981c-0.106-0.114-0.262-0.305-0.442-0.468c-1.394-1.255-1.382-2.249-0.122-3.603
		c0.691-0.744,1.198-1.657,1.795-2.489c1.229-1.711,3.142-2.395,4.927-3.27c0.815-0.399,1.629-0.802,2.753-1.356
		c-3.157-0.941-3.271-3.184-3.006-5.629c0.032-0.294-0.112-0.727-0.33-0.908c-0.765-0.633-0.886-1.33-0.543-2.235
		c0.309-0.817,0.495-1.679,0.762-2.608c-1.232-0.546-1.347-1.371-0.563-2.438c0.122-0.167-0.004-0.581-0.114-0.838
		c-0.154-0.359-0.512-0.657-0.579-1.02c-0.068-0.361,0.114-0.768,0.187-1.155c0.228,0.213,0.499,0.396,0.676,0.645
		c0.545,0.77,1.339,0.941,2.129,0.7c1.234-0.376,2.549-0.712,3.057-2.193c0.058-0.169,0.892-0.312,0.977-0.191
		c0.327,0.462,0.596,1.025,0.662,1.578c0.019,0.156-0.714,0.429-1.12,0.606c-1.568,0.685-3.168,1.306-4.696,2.07
		c-0.275,0.138-0.516,1-0.351,1.25c0.604,0.914,0.422,1.767,0.27,2.743c-0.119,0.759,0.198,1.585,0.315,2.383
		c0.068,0.464,0.23,0.945,0.171,1.393c-0.374,2.764,0.663,3.73,2.711,4.862c0.415,0.229,1.132,0.173,1.606-0.014
		c1.356-0.535,2.66-1.204,4.038-1.846c-0.127-0.152-0.286-0.341-0.569-0.678c0.71-0.446,1.349-0.892,2.026-1.268
		c3.939-2.181,7.877-4.364,11.837-6.505c1.575-0.851,4.543-0.146,5.593,1.257c0.476,0.635,0.305,1.047-0.429,1.383
		c-1.22,0.557-2.363,1.294-3.606,1.786c-0.98,0.388-2.061,0.523-3.097,0.77c-2.67,0.634-5.344,1.25-8.006,1.914
		c-0.568,0.142-1.095,0.453-1.641,0.687c0.015,0.105,0.029,0.211,0.043,0.317c0.812-0.087,1.646-0.089,2.434-0.276
		c2.355-0.559,4.702-1.16,7.035-1.803c1.22-0.336,2.411-0.781,3.604-1.204c0.976-0.345,1.93-0.75,2.905-1.093
		c1.872-0.656,2.703-0.31,3.763,1.345c0.284,0.444,0.791,0.811,1.276,1.05c1.57,0.774,2.971,1.699,3.77,3.34
		c0.208,0.425,0.593,0.769,0.773,1.202c0.258,0.619,0.416,1.281,0.59,1.932c0.146,0.548,0.305,1.101,0.364,1.662
		c0.111,1.045,0.107,2.104,0.245,3.145c0.083,0.629,0.323,1.241,0.527,1.849C146.212,91.881,146.085,93.139,145.431,94.39z
		 M131.023,55.896c0.479-0.404,0.959-0.807,1.438-1.211c0.114,0.083,0.229,0.166,0.344,0.249c-0.256,0.625-0.513,1.249-0.811,1.973
		c0.404-0.439,0.721-0.782,1.037-1.126c0.095,0.064,0.188,0.128,0.282,0.192c-0.185,0.422-0.369,0.844-0.584,1.334
		c1.532-0.499,1.66-0.786,1.037-2.036c-0.085-0.171-0.069-0.39-0.135-0.574c-0.313-0.895-1.25-1.6-0.823-2.729
		c0.016-0.043-0.21-0.235-0.347-0.271c-0.951-0.251-0.879-0.722-0.354-1.368c0.123-0.151,0.072-0.442,0.102-0.669
		c-0.46,0.656-0.693,1.381-0.981,2.084c-0.233,0.57-0.532,1.113-0.802,1.668c-0.499,0.55-1.048,1.064-1.483,1.661
		c-0.587,0.803-1.071,1.681-1.637,2.501c-0.12,0.174-0.398,0.239-0.604,0.355c-0.115-0.103-0.23-0.206-0.346-0.309
		c1.211-1.686,2.422-3.372,3.684-5.129c-1.854,0.009-0.264-1.439-0.896-1.987c-0.241,0.378-0.454,0.712-0.797,1.25
		c0-1.781,0-3.269,0-4.793c-0.132-0.119-0.356-0.386-0.637-0.568c-1-0.646-1.541-2.185-3.266-1.441
		c-0.631,0.272-1.506,0.025-2.007-0.788c-0.296-0.481-0.799-0.834-1.355-1.392c0.605,1.263,1.092,2.277,1.592,3.318
		c1.458-0.477,2.519-0.197,3.192,0.943c0.277-0.035,0.581-0.167,0.803-0.084c1.117,0.419,1.622,3.643,0.72,4.464
		c-0.086,0.078-0.206,0.116-0.309,0.177c-0.451,0.27-0.886,0.573-1.357,0.799c-0.242,0.116-0.549,0.095-0.827,0.136
		c-0.095-0.154-0.189-0.308-0.284-0.461c-1.16,1.431-2.321,2.862-3.666,4.52c0-0.571-0.078-0.865,0.013-1.092
		c0.533-1.346,1.146-2.663,1.65-4.019c0.284-0.763,0.951-1.59,0.029-2.532c-0.551,1,0.174,2.373-1.412,2.989
		c0.112-1.237-0.045-2.283-0.718-3.204c-0.089-0.121,0.292-0.586,0.29-0.581c-0.258-0.791-0.496-1.343-0.613-1.92
		c-0.248-1.223-2.273-3.219-3.401-3.37c-0.824-0.111-1.634-0.336-2.556-0.532c1.074,1.413-0.427,2.343-1.027,3.557
		c-0.086,0.172-0.102,0.387-0.119,0.584c-0.088,1.039-0.166,2.079-0.25,3.135c0.519,0.105,1.072,0.11,1.513,0.336
		c0.545,0.28,1.15,0.655,1.435,1.157c0.21,0.373-0.052,1.012-0.104,1.532c-0.45-0.109-0.976-0.109-1.33-0.356
		c-0.405-0.283-0.649-0.792-0.981-1.189c-0.465-0.555-2.115-0.696-2.655-0.19c-0.627,0.588-0.629,1.222-0.029,1.846
		c1.874-0.902,2.802-0.83,3.383,0.417c0.361,0.777,0.7,1.723,0.585,2.527c-0.188,1.329,0.597,1.533,1.474,1.656
		c1.783,0.25,3.581,0.401,5.524,0.609c0.561-1.585,1.566-3.257,3.006-4.66c0.113,2.215-2.272,3.49-2.186,6.059
		c0.604-0.719,0.974-1.16,1.382-1.646c0.143,0.161,0.278,0.314,0.447,0.504c0.151-0.27,0.282-0.504,0.472-0.842
		c-1.241-0.161-1.091-0.643-0.412-1.299c0.247-0.239,0.372-0.603,0.559-0.906c0.438-0.712,0.83-1.461,1.34-2.118
		c0.365-0.472,0.882-0.765,1.055,0.2c0.395-0.367,0.738-0.688,1.082-1.009c0.147,0.118,0.295,0.236,0.441,0.354
		c-1.01,1.568-2.031,3.127-3.019,4.709c-0.207,0.331-0.285,0.743-0.422,1.117c0.412,0.065,0.821,0.161,1.236,0.19
		c1.097,0.077,1.152-0.965,1.563-1.565c0.802-1.17,1.489-2.417,2.233-3.626c0.636-0.235,1.271-0.47,2.122-0.786
		c-0.534,1.183-1.013,2.243-1.491,3.303c-1.399,0.68-2.421,2.379-1.771,3.201C129.88,58.02,130.452,56.958,131.023,55.896z
		 M62.443,56.574c-0.349-0.643,0.883-1.575-0.386-2.058c-0.738-0.281-1.46-0.605-2.196-0.894c-0.181-0.071-0.415-0.03-0.578-0.122
		c-0.721-0.406-1.016-0.039-1.204,0.604c-0.432,1.473-0.906,2.934-1.295,4.417c-0.12,0.456-0.019,0.969-0.019,1.456
		c0.145,0.026,0.289,0.051,0.433,0.077c0.635-2.03,1.271-4.061,1.906-6.09c0.146,0.039,0.291,0.078,0.437,0.117
		c-0.267,1.19-0.356,2.458-0.834,3.556c-1.435,3.3-3.031,6.53-4.545,9.796c-0.758,1.634-1.477,3.287-2.285,5.093
		c1.849-0.184,3.348-0.335,3.65-2.33c0.062-0.412,0.384-0.783,0.577-1.178c1.507-3.07,2.994-6.15,4.527-9.208
		c0.561-1.12,1.228-2.187,1.846-3.278c-0.139,0.499-0.219,1.023-0.427,1.492c-1.304,2.94-2.505,5.937-3.997,8.78
		c-1.379,2.628-2.347,5.369-3.046,8.222c-0.105,0.428,0.16,0.947,0.297,1.643c4.909-5.741,6.162-12.844,9.05-19.156
		c0.101,0.044,0.203,0.088,0.304,0.132c-1.135,3.307-2.27,6.613-3.404,9.92c0.128,0.046,0.256,0.092,0.384,0.138
		c0.591-1.124,1.22-2.229,1.764-3.375c1.077-2.268,2.057-4.562,2.363-7.104c0.146-1.21-0.674-1.517-1.429-1.908
		c-0.777-0.402-1.027,0.18-1.279,0.78C62.97,56.304,62.657,56.415,62.443,56.574z M50.553,107.662
		c-1.104,0.333-2.205,0.677-3.314,0.995c-1.266,0.362-1.583,0.868-1.547,2.136c0.03,1.031-0.067,2.068-0.16,3.099
		c-0.267,2.938-0.668,5.868-0.814,8.811c-0.152,3.068-0.035,6.15-0.106,9.225c-0.022,0.966-0.271,1.927-0.467,3.227
		c0.307-0.383,0.418-0.482,0.481-0.606c0.776-1.529,1.536-3.066,2.317-4.593c0.508-0.991,1.29-1.914,1.521-2.962
		c0.531-2.407,0.912-4.862,1.152-7.318c0.391-4.003,0.62-8.021,0.924-12.027c0.197,0.423,0.581,0.856,0.561,1.269
		c-0.109,2.309-0.449,4.611-0.46,6.917c-0.019,3.846-0.472,7.63-1.169,11.399c-0.129,0.697-0.214,1.402-0.319,2.104
		c0.139,0.05,0.277,0.1,0.415,0.149c0.831-0.985,1.547-2.105,2.515-2.931c2.651-2.26,2.854-5.459,3.211-8.48
		c0.454-3.823,0.454-7.699,0.657-11.553c0.053-1.008-0.235-1.258-1.19-0.842C53.339,106.297,51.954,106.997,50.553,107.662z
		 M49.364,132.237c0.047,0.128,0.094,0.256,0.141,0.383c0.609-0.075,1.219-0.144,1.827-0.227c2.925-0.396,5.851-0.791,8.775-1.197
		c0.6-0.084,1.092-0.018,1.026,0.74c-0.156,1.823-0.415,3.64-0.496,5.464c-0.037,0.832-0.777,1.806,0.287,2.531
		c0.836,0.57,0.843,1.28,0.346,2.077c-0.787,1.263-0.926,2.664-1.024,4.119c-0.136,2.022-0.458,4.032-0.708,6.046
		c-0.162,1.303-0.375,2.599-0.503,3.904c-0.184,1.881-0.246,3.775-0.491,5.646c-0.105,0.801,0.086,1.25,0.809,1.462
		c0.729,0.213,1.028-0.185,1.091-0.866c0.149-1.624,0.306-3.247,0.464-4.871c0.069-0.709,0.205-1.418,0.212-2.128
		c0.014-1.347-0.19-2.71-0.042-4.038c0.314-2.816,0.864-5.607,1.19-8.423c0.385-3.323,0.632-6.662,0.947-9.993
		c0.207-2.187,0.408-4.374,0.653-6.557c0.112-0.997-0.308-1.314-1.233-1.171c-0.896,0.139-1.794,0.264-2.81,0.412
		c-0.345,1.482,0.342,3.282-0.936,5.028c-0.118-0.543-0.194-0.723-0.189-0.9c0.033-1.395,0.077-2.789,0.127-4.183
		c0.026-0.727,0.058-1.367-0.792-1.788c-0.683-0.338-0.346-2.303,0.407-2.512c0.203-0.056,0.54,0.236,0.768,0.426
		c0.982,0.813,1.947,1.648,2.92,2.472c0.024,0.021,0.079,0,0.118,0.007c2.703,0.473,5.405,0.947,8.108,1.417
		c0.743,0.129,0.997,0.544,0.854,1.283c-0.294,1.521-0.519,3.058-0.838,4.574c-0.196,0.931-0.512,1.837-0.781,2.752
		c-0.176,0.601-0.483,1.19-0.526,1.799c-0.184,2.584-0.266,5.175-0.443,7.759c-0.043,0.622-0.166,1.322-0.497,1.826
		c-1.063,1.615-0.838,3.444-1.023,5.203c-0.07,0.663-0.011,1.339-0.011,1.709c1.732-0.755,3.399-1.695,5.188-2.204
		c1.91-0.544,3.733,0.241,5.553,0.95c1.91,0.743,2.616,2.491,3.64,4.178c1.325-2.917,3.462-4.403,6.085-5.271
		c0.848-0.28,1.146-0.675,0.911-1.583c-0.218-0.844-0.203-1.745-0.363-2.607c-0.551-2.969-1.16-5.927-1.691-8.898
		c-0.313-1.753-0.719-3.524-0.716-5.287c0.003-1.442,0.658-2.871,0.823-4.328c0.153-1.354,0.872-2.042,2.039-2.514
		c0.956-0.387,1.866-0.886,2.796-1.336c0.917-0.444,1.822-0.914,2.754-1.326c0.824-0.363,1.763-0.531,2.496-1.019
		c1.445-0.959,2.744-2.136,4.178-3.115c1.117-0.763,1.517-1.752,0.964-3.367c-1.193,0.338-2.668,0.354-3.556,1.083
		c-2.413,1.985-5.046,1.774-6.91-0.816c-0.717-0.997-1.539-1.944-2.439-2.777c-1.282-1.188-2.636-2.312-4.05-3.338
		c-0.676-0.49-1.536-0.859-2.357-0.982c-1.094-0.164-2.232-0.056-3.35-0.025c-4.22,0.116-8.44,0.266-12.661,0.358
		c-0.868,0.019-1.312,0.364-1.538,1.176c-0.898,3.23-2.501,6.084-4.631,8.667c-1.062,1.288-2.14,2.585-3.019,3.997
		c-0.805,1.295-1.515,2.7-1.964,4.15c-0.417,1.347-0.41,2.821-0.642,4.231c-0.059,0.357-0.312,0.683-0.477,1.023
		c-0.114-0.051-0.228-0.103-0.341-0.153c0-1.298,0-2.596,0-4.231C52.178,128.96,50.771,130.599,49.364,132.237z M24.48,115.973
		c0.442-1.527,0.917-2.641,1.067-3.797c0.272-2.089,0.356-4.204,0.51-6.309c0.06-0.811,0.323-1.629-0.432-2.348
		c-0.191-0.182-0.035-0.814,0.075-1.208c0.195-0.692,0.625-1.342,0.699-2.038c0.287-2.698,0.338-5.427,0.728-8.107
		c0.596-4.096,1.235-8.199,2.166-12.227c0.81-3.503,0.324-7.307,2.38-10.51c0.195-0.304,0.661-0.633,0.986-0.619
		c1.392,0.06,3.562,1.917,3.777,3.278c0.211,1.329,0.246,2.686,0.351,4.031c0.071,0.913-0.088,1.946,1.267,2.117
		c-0.193,0.938-0.417,1.79-0.539,2.656c-0.415,2.958-0.665,5.946-1.214,8.878c-1.086,5.8-2.327,11.572-3.511,17.354
		c-0.389,1.897,0.437,3.106,2.375,3.372c0.074-0.212,0.176-0.429,0.225-0.657c0.656-3.032,1.342-6.058,1.947-9.101
		c0.925-4.66,1.858-9.32,2.654-14.003c0.331-1.947,0.24-3.913-1.569-5.323c-0.805-0.627-0.52-1.11,0.304-1.493
		c0.475-0.22,0.894-0.56,1.313-0.829c-1.459-3.05-2.57-6.668-2.16-7.184c0.155,0.25,0.314,0.464,0.432,0.699
		c0.977,1.962,1.886,3.961,2.954,5.872c0.326,0.584,0.326,0.896,0.077,1.482c-0.308,0.725-0.676,1.718-0.411,2.335
		c0.606,1.412,1.582,2.666,2.407,3.983c0.134-0.062,0.268-0.125,0.402-0.188c-0.188-0.835-0.383-1.668-0.561-2.505
		c-0.59-2.766-1.181-5.531-1.75-8.301c-0.076-0.368-0.024-0.763-0.032-1.146c0.373,0.006,0.763-0.057,1.114,0.032
		c0.796,0.201,1.563,0.439,1.805-0.207c0.878-0.111,1.614-0.009,2.094-0.312c0.601-0.379,1.405-0.868,0.923-1.928
		c-0.129-0.284,0.109-0.736,0.2-1.228c-0.222-0.107-0.53-0.256-0.875-0.422c1.203-0.894,1.746-2.018,3.12-2.194
		c0.512-0.066,0.531-0.886-0.267-1.189c-0.876-0.333-1.675-0.373-2.436,0.271c-0.9,0.762-1.821,1.499-2.834,2.33
		c-0.039-0.321-0.058-0.574-0.102-0.824c-0.088-0.495-0.024-1.189-0.324-1.433c-0.439-0.358-1.113-0.379-1.536,0.32
		c-0.071,0.118-0.594,0.111-0.789-0.019c-0.825-0.548-0.941-1.434-0.275-2.291c1.118-1.438,2.268-2.853,3.444-4.245
		c0.361-0.428,0.764-0.681,1.448-0.289c0.505,0.29,1.24,0.235,1.869,0.221c0.226-0.005,0.642-0.348,0.635-0.523
		c-0.041-0.989-0.096-1.948-1.21-2.523c-0.51-0.263-0.961-0.936-1.126-1.512c-0.401-1.406-0.463-2.919-0.954-4.285
		c-0.56-1.56-1.384-3.035-2.199-4.488c-0.385-0.687-0.939-1.013-1.865-0.458c-2.526,1.515-5.17,2.833-7.703,4.335
		c-2.633,1.563-5.308,3.098-7.75,4.93c-2.377,1.783-4.477,3.934-6.71,5.91c-1.048,0.927-1.924,1.945-2.128,3.409
		c0.266-0.025,0.525-0.128,0.721-0.057c1.553,0.57,3.044,0.646,4.587-0.14c0.445-0.227,1.14,0.02,1.715,0.086
		c0.062,0.007,0.094,0.268,0.161,0.474c-0.345,0.106-0.637,0.195-0.925,0.284c0.129,1.076-0.734,2.175-1.836,2.247
		c-0.508,0.269-1.016,0.537-1.551,0.819c0.362,1.541,0.693,1.865,2.323,1.714c1.049-0.097,2.079-0.412,3.11-0.66
		c0.604-0.146,1.08-0.173,0.96,0.668c-0.194,1.376-0.409,2.75-0.601,4.126c-0.428,3.077-0.928,6.146-1.246,9.234
		c-0.251,2.44-0.171,4.916-0.424,7.356c-0.344,3.328-0.829,6.643-1.321,9.954c-0.305,2.05-0.764,4.077-1.1,6.123
		c-0.271,1.647-0.475,3.307-0.671,4.966c-0.034,0.288,0.015,0.733,0.202,0.875C22.069,114.354,23.124,115.041,24.48,115.973z
		 M96.073,91.358c0.037-0.51,0.078-0.931,0.096-1.353c0.204-4.678,0.4-9.356,0.606-14.034c0.163-3.696,0.35-7.391,0.475-11.088
		c0.008-0.233-0.415-0.683-0.65-0.692c-2.188-0.087-4.378-0.108-6.568-0.131c-3.312-0.036-6.624-0.01-9.933-0.115
		c-1.01-0.032-1.209,0.331-1.049,1.173c0.274,1.443,0.601,2.879,0.803,4.333c0.053,0.379-0.271,0.811-0.422,1.219
		c-0.388-0.28-0.978-0.483-1.119-0.855c-0.273-0.722-0.349-1.536-0.406-2.319c-0.085-1.174-0.74-1.938-1.728-1.888
		c-1.36,0.069-3.476,2.407-3.326,3.782c0.22,2.018,0.539,4.024,0.803,6.037c0.479,3.646,1.757,7.056,3.104,10.442
		c0.687,1.729,1.247,1.882,2.757,0.85c0.947-0.647,1.375-0.429,1.495,0.742c0.068,0.669,0.064,1.371,0.275,1.997
		c0.489,1.459,1.081,2.885,1.655,4.315c0.072,0.181,0.292,0.302,0.443,0.451c0.158-0.161,0.398-0.295,0.46-0.486
		c0.547-1.708,1.79-2.646,3.393-3.28c0.436-0.172,0.854-0.601,1.093-1.019c0.665-1.17,1.516-1.972,2.95-1.838
		c1.5,0.14,2.543,0.905,2.953,2.388C94.466,90.833,94.985,91.258,96.073,91.358z M104.883,160.555
		c0.876,0.191,1.405,0.413,1.931,0.403c2.79-0.049,5.58-0.122,8.364-0.284c0.399-0.022,0.938-0.501,1.116-0.9
		c0.47-1.048,0.812-2.159,1.127-3.268c0.106-0.372,0.091-0.858-0.061-1.211c-0.817-1.899-1.214-3.857-1.248-5.934
		c-0.044-2.668-0.212-5.336-0.399-7.998c-0.067-0.968-0.391-1.915-0.514-2.882c-0.377-2.963-2.565-4.399-5.198-3.033
		c-2.467,1.279-4.964,1.289-7.561,1.105c-0.956-0.068-1.482,0.532-1.425,1.438c0.21,3.288,0.35,6.58,0.54,9.869
		c0.037,0.626,0.053,1.304,0.303,1.856c1.078,2.389,2.22,4.75,3.379,7.101C105.83,158.024,106.487,159.187,104.883,160.555z
		 M31.102,179.833c-0.185-0.065-0.369-0.13-0.553-0.195c0-1.389-0.02-2.777,0.003-4.165c0.087-5.254,0.186-10.507,0.287-15.761
		c0.043-2.266-0.13-4.566,0.213-6.787c0.355-2.298,0.26-4.526,0.021-6.792c-0.079-0.752-0.105-1.517-0.065-2.271
		c0.194-3.708,0.411-7.414,0.637-11.12c0.076-1.234,0.257-2.464,0.291-3.698c0.048-1.778,0.029-3.561-0.023-5.339
		c-0.009-0.304-0.263-0.759-0.521-0.866c-0.925-0.385-1.9-0.65-3.097-1.039c-0.139,3.403-0.276,6.743-0.416,10.165
		c0.594-0.113,0.87-0.166,1.352-0.259c0,0.964,0.022,1.796-0.005,2.625c-0.045,1.331,0.317,2.709-0.583,3.954
		c-0.133,0.186,0.354,0.812,0.542,1.238c0.217,0.49,0.74,1.162,0.581,1.451c-1.092,1.979-0.771,4.012-0.523,6.082
		c0.216,1.804,0.348,3.62,0.441,5.435c0.043,0.826-0.27,1.697-0.111,2.485c0.227,1.122,0.571,2.201,0.279,3.358
		c-0.025,0.101,0.043,0.235,0.092,0.343c0.75,1.631,0.447,3.312,0.106,4.942c-0.801,3.834-1.435,7.711-1.158,11.605
		c0.159,2.23-0.224,4.149-1.219,6.058c-0.185,0.355-0.193,0.802-0.319,1.366c1.785-0.908,3.425-1.493,4.761-2.488
		c1.635-1.219,3.334,0.068,4.985-0.396c-0.458-1.745-0.885-3.373-1.312-5.001c-0.103,0.002-0.205,0.003-0.308,0.005
		c-0.143,1.317-0.287,2.635-0.43,3.952c-0.163-0.007-0.326-0.014-0.489-0.02c-0.079-0.281-0.234-0.565-0.226-0.845
		c0.098-3.231,0.23-6.461,0.32-9.692c0.009-0.336-0.094-0.831-0.326-0.994c-1.513-1.062-1.693-2.135-0.373-3.459
		c0.882-0.885,1.198-1.883,1.286-3.103c0.172-2.381,0.51-4.749,0.753-7.126c0.085-0.831,0.124-1.67,0.128-2.506
		c0.01-1.871-0.079-3.743-0.008-5.611c0.094-2.468,0.266-4.935,0.471-7.396c0.265-3.175,0.601-6.343,0.891-9.515
		c0.023-0.253,0.02-0.626-0.132-0.756c-0.577-0.496-0.32-0.866,0.053-1.309c2.065-2.451,3.1-5.387,4.103-8.654
		c-0.546,0.451-0.965,0.662-1.183,1.002c-1.029,1.601-2.06,3.204-2.976,4.87c-0.661,1.203-1.58,1.666-2.862,1.356
		c-0.696-0.168-1.006,0.078-1.07,0.709c-0.287,2.848-0.572,5.696-0.822,8.548c-0.125,1.423-0.139,2.854-0.261,4.277
		c-0.146,1.705-0.747,3.475-0.462,5.095c0.822,4.675,0.002,9.307,0.024,13.952c0.011,2.41-0.369,4.819-0.425,7.232
		c-0.06,2.59,0.053,5.183,0.088,7.774c0.027,1.992,0.082,3.985,0.05,5.977C31.598,178.966,31.277,179.399,31.102,179.833z
		 M36.058,159.958c0.228,0.063,0.456,0.127,0.685,0.191c0.318-1.065,0.739-2.111,0.934-3.198c0.45-2.511,0.595-5.091,1.219-7.552
		c0.939-3.706,2.188-7.333,3.293-10.997c0.841-2.789,1.573-5.565,1.538-8.552c-0.043-3.665,0.222-7.337,0.438-11.001
		c0.153-2.587,0.436-5.167,0.687-7.748c0.105-1.083-0.308-1.506-1.378-1.231c-1.157,0.297-2.305,0.637-3.475,0.865
		c-0.325,0.063-0.715-0.201-1.075-0.314c0.158-0.327,0.284-0.674,0.479-0.978c0.52-0.814,1.236-1.545,1.576-2.425
		c1.278-3.305,2.211-6.763,3.721-9.952c0.958-2.023,0.112-3.738,0.033-5.589c-0.007-0.178-0.401-0.506-0.553-0.473
		c-0.248,0.054-0.483,0.318-0.65,0.548c-0.104,0.143-0.064,0.387-0.1,0.583c-0.846,4.674-1.651,9.357-2.578,14.017
		c-0.187,0.938-0.806,1.801-1.296,2.658c-0.093,0.162-0.52,0.133-0.792,0.192c0.051-0.245,0.064-0.506,0.16-0.732
		c0.418-0.98,1.065-1.91,1.259-2.929c0.926-4.857,1.761-9.732,2.563-14.611c0.317-1.933-0.932-3.384-1.744-4.982
		c-0.206,0.451-0.243,0.873-0.296,1.292c-0.205,1.622-0.359,3.252-0.638,4.861c-0.396,2.277-0.895,4.537-1.333,6.807
		c-0.482,2.502-0.946,5.008-1.416,7.513c-0.285,1.521-0.623,3.035-0.807,4.568c-0.045,0.371,0.372,0.852,0.673,1.199
		c0.63,0.725,1.381,1.349,1.979,2.098c0.778,0.974,1.624,1.795,2.784,2.165c0.384-0.508,0.688-0.911,0.993-1.313
		c0.098,0.04,0.196,0.08,0.294,0.119c0,0.498,0.083,1.012-0.018,1.488c-0.181,0.852-0.542,1.667-0.704,2.52
		c-0.471,2.495-1.734,4.594-3.119,6.659c-0.454,0.678-0.816,1.479-0.983,2.274c-0.369,1.753-0.746,3.53-0.833,5.312
		c-0.198,4.014-0.218,8.037-0.319,12.057c-0.063,2.512-0.04,5.032-0.243,7.533C36.823,155.263,36.387,157.606,36.058,159.958z
		 M36.27,39.246c-0.075-0.217-0.15-0.435-0.226-0.652c-1.335-0.211-2.665-0.532-4.008-0.604c-1.531-0.083-3.135-0.199-4.598,0.152
		c-3.221,0.772-6.002,2.565-8.628,4.518c-3.442,2.559-4.856,6.195-5.035,10.373c-0.019,0.438,0.203,0.887,0.313,1.332
		c0.433-0.132,0.91-0.188,1.292-0.408c2.379-1.368,4.327-3.371,6.835-4.575c1.279-0.614,2.434-1.499,3.614-2.307
		c2.592-1.773,5.189-3.54,7.73-5.385C34.539,40.98,35.371,40.067,36.27,39.246z M67.411,134.17c-0.16,0-0.32,0-0.48,0
		c0-0.404-0.033-0.812,0.006-1.213c0.188-1.947,0.39-3.894,0.597-5.839c0.093-0.87-0.063-1.492-1.137-1.538
		c-0.897-0.039-1.464,0.018-1.573,1.188c-0.349,3.777-0.873,7.539-1.257,11.314c-0.23,2.264-0.217,4.556-0.51,6.809
		c-0.431,3.313-1.212,6.579-1.062,9.961c0.056,1.269-0.158,2.547-0.191,3.821c-0.037,1.44-0.009,2.882-0.009,4.323
		c0.142,0.082,0.283,0.165,0.424,0.248c0.444-0.39,1.121-0.701,1.287-1.187c0.394-1.156,0.617-2.386,0.782-3.603
		c0.409-2.998,0.748-6.006,1.112-9.01c0.221-1.82,0.479-3.637,0.649-5.462c0.238-2.543,0.406-5.092,0.614-7.638
		c0.039-0.479,0.126-0.954,0.19-1.431c0.109,0.008,0.219,0.016,0.328,0.024c0,3.062,0,6.125,0,8.415
		c0.75-5.106,1.611-10.965,2.48-16.874c-1.039-0.408-1.245-0.29-1.402,0.972C67.981,129.693,67.695,131.931,67.411,134.17z
		 M55.76,121.203c0.129,0.059,0.258,0.116,0.387,0.175c0.778-0.947,1.554-1.895,2.333-2.841c2.586-3.138,4.775-6.481,5.631-10.552
		c0.162-0.772,0.646-1.489-0.149-2.192c-0.116-0.103-0.128-0.524-0.019-0.648c1.223-1.385,0.426-2.959,0.416-4.445
		c-0.002-0.345-0.408-0.688-0.628-1.032c-0.336,0.348-0.863,0.646-0.971,1.056c-0.243,0.915-0.35,1.882-0.386,2.833
		c-0.147,3.891-0.95,7.663-2.021,11.385c-0.145,0.504-0.531,0.939-0.806,1.407c-0.171-0.062-0.342-0.125-0.512-0.188
		c2.178-4.472,1.835-9.35,2.751-14.258c-0.565,0.132-0.979,0.128-1.27,0.315c-1.003,0.645-1.981,1.334-2.93,2.058
		c-0.292,0.223-0.621,0.59-0.659,0.922c-0.369,3.204-0.722,6.411-0.986,9.625c-0.116,1.418,0,2.853-0.024,4.281
		C55.906,119.803,55.815,120.502,55.76,121.203z M27.241,100.834c1.306-0.605,2.567-0.807,2.834-2.031
		c0.647-2.957,1.187-5.942,1.66-8.932c0.779-4.921,1.457-9.858,2.219-14.783c0.113-0.728,0.245-1.712,0.737-2.067
		c0.897-0.648,0.518-1.181,0.116-1.663c-0.502-0.602-1.143-1.11-1.79-1.564c-0.52-0.366-0.985-0.255-1.128,0.476
		c-0.084,0.43-0.217,0.851-0.299,1.282c-0.604,3.167-1.218,6.333-1.794,9.505c-0.442,2.43-0.902,4.86-1.231,7.306
		c-0.377,2.803-0.62,5.625-0.917,8.439C27.516,98.047,27.396,99.293,27.241,100.834z M98.935,66.469
		c1.628-0.686,1.799-1.364,1.08-2.686c-0.45-0.828-0.596-1.82-0.894-2.733c-0.105-0.32-0.2-0.668-0.399-0.928
		c-0.752-0.98-1.654-1.861-2.3-2.903c-1.26-2.035-3.028-2.835-5.221-1.931c-0.855,0.352-1.958,0.714-1.949,2.098
		c0.004,0.539-0.335,1.433-0.696,1.536c-0.51,0.146-1.314-0.139-1.77-0.512c-1.5-1.229-2.721-1.139-3.953,0.481
		c0.3,0.237,0.6,0.476,0.973,0.771c-0.262,0.127-0.389,0.245-0.466,0.218c-0.791-0.274-1.288,0.071-1.383,0.812
		c-0.057,0.446,0.077,1.229,0.341,1.337c0.506,0.208,1.293,0.252,1.729-0.017c0.56-0.345,0.856-0.339,1.361,0.005
		c0.326,0.221,0.802,0.299,1.214,0.307c2.795,0.055,5.594,0.018,8.386,0.135c1.049,0.044,2.169,0.242,3.106,0.687
		C99.477,63.803,99.194,65.183,98.935,66.469z M77.999,156.458c-1.183-1.149-2.022-1.967-2.861-2.783
		c-0.081,0.079-0.162,0.158-0.243,0.236c0.363,0.502,0.936,0.972,1.014,1.515c0.051,0.352-0.618,0.809-1.093,1.371
		c-0.072,0.261-0.067,0.991-0.417,1.261c-0.258,0.199-0.979-0.202-1.493-0.335c0.06,0.312,0.25,0.754,0.194,1.161
		c-0.071,0.515-0.343,1.001-0.528,1.499c-0.375-0.34-0.767-0.665-1.118-1.028c-0.13-0.134-0.165-0.359-0.245-0.542
		c-0.753-1.721-2.216-2.595-4.36-2.48c0.049,0.977,0.084,1.957,0.15,2.935c0.13,1.95-1.046,3.451-1.744,5.115
		c-0.037,0.088-0.216,0.104-0.3,0.185c-1.572,1.487-3.312,2.61-5.653,2.468c0.886,1.739,1.687,2.164,3.185,1.503
		c2.073-0.915,4.212-1.781,6.082-3.029c2.302-1.536,4.454-3.339,6.482-5.229C76.264,159.148,77.115,157.63,77.999,156.458z
		 M31.587,107.938c0.679-2.761,1.416-5.399,1.964-8.076c0.759-3.709,1.484-7.433,2.013-11.18c0.333-2.358,1.461-4.75,0.144-7.172
		c-0.159-0.292-0.146-0.708-0.125-1.061c0.082-1.394,0.179-2.788,0.309-4.178c0.096-1.023,0.239-2.038-0.889-3.081
		c-0.773,5.279-1.51,10.307-2.247,15.333c0.127,0.027,0.255,0.055,0.382,0.082c0.595-1.336,1.189-2.672,1.783-4.008
		c0.139,0.053,0.277,0.105,0.416,0.158c-0.095,0.435-0.113,0.907-0.299,1.299c-1.234,2.605-1.596,5.383-1.917,8.215
		c-0.327,2.883-1.694,5.283-4.279,6.851c-0.537,0.326-1.008,0.761-1.509,1.146c0.056,0.088,0.112,0.176,0.168,0.264
		c0.211-0.054,0.419-0.127,0.634-0.157c0.408-0.058,1.072-0.261,1.18-0.101c0.278,0.412,0.358,0.983,0.421,1.502
		c0.036,0.3-0.121,0.621-0.18,0.935C29.174,106.73,29.344,107.032,31.587,107.938z M28.785,118.314
		c-0.133-0.026-0.267-0.053-0.4-0.078c0.016-0.354,0.001-0.714,0.053-1.062c0.365-2.443,0.768-4.88,1.103-7.327
		c0.106-0.773,0.169-1.548-0.875-1.95c-0.37-0.142-0.624-0.871-0.716-1.372c-0.097-0.531,0.105-1.109,0.091-1.665
		c-0.009-0.347-0.178-0.689-0.276-1.034c-0.232,0.307-0.633,0.594-0.67,0.922c-0.257,2.254-0.406,4.52-0.652,6.775
		c-0.191,1.748-0.289,3.535-1.539,5.302c2.431,0.625,3.837,2.408,5.197,4.31c0.486,0.68,1.166,0.141,1.285-0.525
		c0.455-2.54,0.846-5.091,1.212-7.646c0.096-0.674,0.014-1.375,0.014-2.113c-0.195,0.088-0.547,0.248-0.974,0.441
		c-0.222-0.744-0.42-1.41-0.619-2.075c-0.539,1.664-0.654,3.251-1.048,4.767C29.598,115.422,30.121,117.187,28.785,118.314z
		 M86.152,167.357c-1.415-1.508-2.682-2.873-3.973-4.214c-0.181-0.188-0.479-0.359-0.729-0.368
		c-1.938-0.064-3.928-0.855-5.667,0.912c-1.263,1.284-2.825,2.275-4.253,3.397c0.018,0.091,0.036,0.182,0.054,0.272
		C76.396,167.357,81.208,167.357,86.152,167.357z M24.449,118.316c-0.12,0.45-0.286,0.821-0.309,1.202
		c-0.148,2.456-0.168,4.924-0.421,7.368c-0.226,2.189,0.978,3.554,2.38,4.871c0.199,0.187,0.52,0.243,0.912,0.415
		c0-0.452,0.012-0.718-0.002-0.982c-0.065-1.23-0.461-2.554-0.139-3.671c0.6-2.078,0.334-4.108,0.249-6.163
		C27.056,119.804,26.173,118.797,24.449,118.316z M83.786,100.726c0.537-1.229,0.848-2.269,1.406-3.153
		c1.737-2.748,4.225-4.571,7.309-5.59c0.209-0.069,0.451-0.2,0.561-0.376c0.37-0.591-0.172-2.209-0.81-2.519
		c-1.104-0.538-2.673-0.173-2.854,0.801c-0.229,1.227-1.003,1.584-2.038,1.84c-1.335,0.329-2.216,1.166-2.554,2.542
		c-0.083,0.334-0.229,0.711-0.47,0.938C82.842,96.609,83.001,98.644,83.786,100.726z M16.738,109.981
		c-0.262,1.117-0.641,2.195-0.743,3.299c-0.153,1.66-0.121,3.337-0.146,5.008c-0.004,0.257,0.112,0.743,0.163,0.742
		c1.364-0.036,2.727-0.116,4.088-0.218c0.058-0.004,0.109-0.281,0.139-0.436c0.186-0.939,0.371-1.878,0.542-2.821
		c0.109-0.6,0.25-1.292-0.566-1.467c-0.93-0.2-0.978,0.644-1.123,1.212c-0.135,0.532,0.004,1.142-0.166,1.655
		c-0.163,0.491-0.568,0.902-0.867,1.35c-0.049-0.512-0.206-1.04-0.126-1.53c0.172-1.06,0.509-2.092,0.699-3.15
		C18.936,111.939,18.428,110.975,16.738,109.981z M33.752,111.968c-0.389,3.031-0.774,6.04-1.167,9.109
		c0.155-0.058,0.313-0.084,0.433-0.166c2.275-1.552,3.62-3.751,4.28-6.37c0.081-0.321-0.351-1.056-0.668-1.142
		c-0.995-0.268-1.877-0.639-2.583-1.404C33.991,111.934,33.826,111.973,33.752,111.968z M52.89,194.556
		c0.152-0.377,0.693-1.063,0.569-1.594c-0.13-0.559-0.821-1.119-1.402-1.409c-1.237-0.619-2.574-1.034-3.847-1.587
		c-1.667-0.724-4.142-0.355-5.448,0.882c-0.089,0.084-0.071,0.283-0.146,0.624c0.57-0.115,1.019-0.188,1.457-0.299
		c0.729-0.187,1.445-0.517,2.179-0.56c0.529-0.03,1.081,0.307,1.622,0.48c-0.267,0.425-0.537,0.848-0.796,1.278
		c-0.033,0.055-0.004,0.146-0.004-0.107C49.001,193.024,50.812,193.737,52.89,194.556z M113.957,56.206
		c-0.282-1.132-0.362-2.073-0.755-2.858c-0.461-0.924-1.31-0.872-1.661,0.093c-0.417,1.148-0.646,2.371-0.874,3.578
		c-0.045,0.234,0.215,0.654,0.45,0.794c1.195,0.711,1.224,1.198,0.147,2.211c-0.189,0.178-0.268,0.641-0.18,0.898
		c0.077,0.228,0.537,0.547,0.688,0.486c0.372-0.153,0.849-0.443,0.958-0.782C113.215,59.126,113.584,57.59,113.957,56.206z
		 M128.779,181.918c1.186-0.321,1.825-0.921,2.218-1.943c0.568-1.481,1.281-2.907,1.966-4.43c0.703,0.576,1.129,0.924,1.386,1.135
		c0.556-0.58,1.04-0.944,1.312-1.427c0.15-0.266,0.073-0.848-0.134-1.081c-0.315-0.356-0.831-0.534-1.291-0.804
		c-0.304,1.095-0.896,1.394-1.749,0.999c-1.46-0.676-1.572-0.593-1.809,1.083c-0.29,2.067-0.261,4.237-1.798,5.932
		C128.815,181.455,128.835,181.605,128.779,181.918z M54.029,73.542c-0.095-0.1-0.19-0.2-0.286-0.301
		c-1.418,0.816-2.836,1.632-4.255,2.449c-0.091-0.11-0.182-0.22-0.272-0.331c0.234-0.438,0.573-0.854,0.668-1.32
		c0.077-0.376-0.14-0.813-0.226-1.223c-0.329,0.186-0.774,0.293-0.961,0.574c-0.385,0.579-0.632,1.249-0.937,1.886
		c-1.215-0.673-1.215-0.673-1.906,0.204c1.98,0.778,3.944,1.551,6.134,2.412C52.636,76.511,53.333,75.026,54.029,73.542z
		 M91.188,160.282c-0.063,0.793-0.338,1.474-0.116,1.893c1.719,3.259,4.938,5.624,9.026,4.625c0.532-0.131,0.958-0.696,1.434-1.061
		c-0.077-0.121-0.154-0.241-0.231-0.362c-0.404,0.109-0.825,0.178-1.21,0.334c-2.145,0.873-4.965-0.066-5.861-2.179
		C93.642,162.15,92.693,161.26,91.188,160.282z M54.09,66.053c-1.66,0.444-2.682-0.107-3.428-1.219
		c-0.803,0.416-1.15,0.899-0.513,1.605c1.079,1.197,1.036,1.714-0.409,2.436c-0.711,0.355-1.239,0.916-0.89,1.554
		c0.283,0.517,1.064,0.853,1.693,1.063c0.749,0.251,0.968-0.396,1.231-0.973c0.446-0.976,0.994-1.906,1.494-2.857
		C53.498,67.227,53.716,66.787,54.09,66.053z M22.793,56.38c0.058,0.093,0.116,0.186,0.174,0.279
		c5.08-3.099,10.161-6.198,15.241-9.297C32.413,49.258,27.144,52.045,22.793,56.38z M103.184,112.994
		c0.109,0.121,0.219,0.242,0.328,0.363c1.694-1.86,4.185-2.697,5.601-4.983c1.847-2.981,3.915-5.824,5.888-8.727
		c-0.176-0.114-0.351-0.227-0.525-0.341c-0.677,1.083-1.323,2.187-2.04,3.242c-0.438,0.643-0.964,1.23-1.487,1.809
		c-0.723,0.798-1.543,1.514-2.205,2.356c-0.788,1.002-1.352,2.19-2.195,3.133C105.526,110.986,104.313,111.953,103.184,112.994z
		 M13.779,112.841c0.322,0.538,0.566,0.944,0.81,1.352c-0.455,0.269-0.879,0.635-1.37,0.786c-0.89,0.273-1.984,2.027-1.645,2.881
		c0.099,0.249,0.406,0.462,0.667,0.587c0.318,0.151,0.705,0.153,1.034,0.288c1.084,0.445,1.629-0.009,1.702-1.067
		c0.099-1.427,0.188-2.863,0.126-4.289C15.067,112.525,14.403,112.616,13.779,112.841z M40.232,189.86
		c0.05,0.095,0.1,0.189,0.15,0.284c0.5-0.216,1.193-0.297,1.456-0.677c0.439-0.637,0.79-1.46,0.808-2.213
		c0.009-0.382-0.727-0.966-1.234-1.141c-1.237-0.424-3.313,1.227-3.47,2.757c-0.07,0.683-0.202,1.047-0.947,1.041
		c-0.164-0.001-0.471,0.271-0.463,0.403c0.014,0.236,0.161,0.569,0.353,0.668c0.314,0.164,0.708,0.172,1.076,0.247
		c0.281-1.881,1.207-2.929,2.661-3.052c0.304-0.025,0.629,0.202,0.944,0.312c-0.155,0.286-0.26,0.621-0.479,0.845
		C40.859,189.567,40.522,189.689,40.232,189.86z M22.884,119.529c-0.467,0.146-0.722,0.231-0.979,0.304
		c-0.306,0.086-0.61,0.194-0.922,0.233c-1.259,0.156-1.443,0.545-0.858,1.7c0.517,1.021,0.97,2.073,1.467,3.104
		c0.159,0.33,0.37,0.635,0.558,0.952c0.099-0.023,0.198-0.047,0.297-0.07C22.587,123.747,22.728,121.741,22.884,119.529z
		 M47.408,62.426c-0.922-0.081-1.667-1.252-2.633-0.014c-0.574,0.736-1.294,1.357-1.939,2.04c-0.243,0.257-0.532,0.511-0.652,0.824
		c-0.054,0.14,0.264,0.61,0.399,0.605c0.845-0.036,1.686-0.165,2.629-0.273C45.815,64.733,46.539,63.684,47.408,62.426z
		 M113.431,129.302c0.02,2.205,4.907,10.47,6.813,11.156C117.902,136.625,115.647,132.932,113.431,129.302z M14.409,65.514
		c1.672-2.244,3.2-4.295,4.729-6.346c-0.478,0.091-0.802,0.349-1.143,0.583c-0.505,0.347-0.98,0.844-1.541,0.982
		C14.883,61.119,13.575,63.626,14.409,65.514z M107.79,53.065c-1.008,0.882-0.899,1.873-0.743,2.783
		c0.062,0.357,0.613,0.628,0.937,0.943c0.113,0.11,0.211,0.235,0.32,0.35c0.257,0.27,0.494,0.571,0.797,0.773
		c0.051,0.034,0.572-0.375,0.56-0.558c-0.03-0.462-0.199-0.93-0.391-1.361c-0.183-0.408-0.494-0.756-0.695-1.157
		C108.301,54.293,108.078,53.723,107.79,53.065z M133.237,126.96c-0.062,3.812-1.317,7.559-0.498,11.414
		c0.209-1.076,0.186-2.161,0.217-3.244c0.03-1.069-0.224-2.329,0.249-3.166C134.191,130.213,133.396,128.623,133.237,126.96z
		 M116.481,118.324c0.161-0.158,0.322-0.316,0.483-0.474c-0.295-0.107-0.597-0.199-0.883-0.324c-1.304-0.568-2.56-1.316-3.918-1.668
		c-1.192-0.309-2.527-0.109-3.218-1.761c-0.226,1.448,0.428,2.243,1.668,2.331C112.73,116.58,114.645,117.322,116.481,118.324z
		 M16.565,106.848c0.24-1.444,0.477-2.865,0.713-4.285c-0.098-0.061-0.197-0.122-0.295-0.184c-0.503,0.574-1.051,1.115-1.501,1.729
		C14.396,105.587,14.607,106.138,16.565,106.848z M113.007,128.196c-0.785-1.996-1.517-3.858-2.34-5.952
		c-0.258,0.418-0.329,0.479-0.328,0.539c0.029,1.317,1.146,2.505,0.464,3.914c-0.031,0.065,0.061,0.251,0.144,0.301
		C111.573,127.377,112.212,127.737,113.007,128.196z M53.766,76.208c-0.526,0.932-1,1.771-1.542,2.731
		c0.856,0.041,1.55,1.163,2.251-0.103C55.071,77.761,54.949,77.116,53.766,76.208z M95.215,133.074
		c0.653,0.685,1.29,1.364,1.941,2.028c1.125,1.146,1.712,1.415,2.631,1.152C98.659,134.485,97.223,133.297,95.215,133.074z
		 M21.131,118.78c1.143-0.485,1.908-0.811,2.901-1.233c-0.877-0.787-1.473-1.322-2.378-2.136
		C21.464,116.632,21.329,117.506,21.131,118.78z M121.641,185.291c1.165,1.88,2.459,1.708,3.727-0.348
		C123.978,185.072,122.809,185.181,121.641,185.291z M80.95,159.3c-0.818,0.728-1.501,1.335-2.184,1.941
		c0.052,0.141,0.104,0.281,0.155,0.422c0.994-0.09,1.988-0.18,3.216-0.29C81.667,160.552,81.361,160.018,80.95,159.3z
		 M129.075,148.166c-1.842-0.944-3.685-1.888-5.637-2.888C124.854,147.267,126.779,148.061,129.075,148.166z M68.48,154.913
		c1.289,0.463,2.556,0.917,3.838,1.377C72.022,154.428,69.959,153.759,68.48,154.913z M107.014,120.495
		c-0.947-1.452-1.947-2.985-2.948-4.519C104.532,119.128,105.418,120.332,107.014,120.495z M46.483,79.352
		c-0.471-2.813-1.39-4.057-2.548-3.591C44.798,76.976,45.641,78.164,46.483,79.352z M94.068,136.297
		c1.489,0.638,2.979,1.274,4.47,1.911c0.057-0.137,0.112-0.273,0.168-0.411C97.224,137.112,95.966,135.873,94.068,136.297z
		 M39.316,118.649c-0.766-0.194-1.295-1.275-2.079-0.287c-0.117,0.147,0.162,0.806,0.426,1.023
		C38.433,120.018,38.927,119.604,39.316,118.649z M34.368,121.811c0.807,0.373,1.402,0.659,2.013,0.905
		c0.036,0.015,0.321-0.36,0.283-0.421c-0.356-0.555-0.758-1.081-1.222-1.719C35.042,121.037,34.82,121.291,34.368,121.811z
		 M55.647,78.854c-0.216,0.749-1.383,1.052-0.429,1.854c0.262,0.22,1.026,0.316,1.14,0.162
		C56.975,80.024,56.186,79.583,55.647,78.854z M134.197,147.997c0.167-0.028,0.334-0.058,0.502-0.087
		c-0.083-1.16-0.165-2.32-0.247-3.48c-0.085,0.018-0.17,0.034-0.255,0.051C134.197,145.652,134.197,146.825,134.197,147.997z
		 M47.887,130.008c-0.5,0.998-0.916,1.827-1.331,2.657C48.151,132.027,48.454,131.377,47.887,130.008z M123.406,51.923
		c1.249-1.137,1.394-2.181,0.519-3.029C123.759,49.865,123.606,50.751,123.406,51.923z M57.133,81.547
		c-0.238,1.503,0.203,2.237,1.408,2.253C58.059,83.029,57.648,82.371,57.133,81.547z M44.537,192.505
		c-0.092-0.099-0.184-0.198-0.276-0.298c-0.512,0.344-1.052,0.655-1.52,1.052c-0.126,0.106-0.035,0.47-0.043,0.716
		c0.214-0.021,0.509,0.037,0.627-0.08C43.761,193.463,44.138,192.973,44.537,192.505z M125.505,48.949
		c-0.173,0.897-0.289,1.497-0.444,2.305c0.669-0.427,1.068-0.682,1.39-0.887C126.204,49.999,125.958,49.63,125.505,48.949z
		 M9.356,116.801c0.004,0.145,0.009,0.289,0.013,0.434c0.445,0.078,0.891,0.156,1.336,0.234c0.058-0.337,0.116-0.674,0.222-1.293
		C10.214,116.459,9.785,116.63,9.356,116.801z M64.871,161.083c0.162,0.057,0.323,0.112,0.485,0.169
		c0.189-0.447,0.426-0.883,0.536-1.348c0.028-0.118-0.345-0.331-0.696-0.645C65.055,160.053,64.963,160.568,64.871,161.083z
		 M105.316,96.403c0.089-0.092,0.178-0.185,0.268-0.277c-0.306-0.886-1.115-1.075-2.031-1.124
		C104.141,95.469,104.729,95.936,105.316,96.403z M99.56,98.062c-0.132-0.001-0.264-0.003-0.395-0.004
		c0.104,0.99,0.209,1.98,0.313,2.971c0.152-0.019,0.304-0.038,0.455-0.058C99.81,100.001,99.685,99.031,99.56,98.062z
		 M121.564,159.707c0.074-0.103,0.147-0.205,0.223-0.307c-0.716-0.519-1.432-1.037-2.146-1.556c-0.14,0.312-0.137,0.46-0.064,0.511
		C120.231,158.815,120.899,159.258,121.564,159.707z M101.934,100.295c0.184-0.095,0.366-0.19,0.549-0.285
		c-0.321-0.506-0.643-1.012-0.964-1.518c-0.106,0.065-0.214,0.13-0.32,0.195C101.443,99.224,101.688,99.76,101.934,100.295z"/>
	<path style="fill-rule:evenodd;clip-rule:evenodd;" d="M51.276,2.813c3.176,0.26,6.349,0.549,9.527,0.767
		c1.231,0.084,2.476-0.04,3.71,0.015c4.903,0.214,9.802,0.495,14.706,0.684c3.784,0.146,7.572,0.169,11.356,0.291
		c1.233,0.04,2.482,0.115,3.689,0.351c3.558,0.696,7.126,0.608,10.723,0.464c2.096-0.084,4.243,0.061,6.302,0.451
		c1.357,0.257,2.627,1.082,3.869,1.771c0.324,0.18,0.55,0.799,0.565,1.225c0.067,1.908,0.049,3.819,0.048,5.729
		c-0.001,2.793-0.081,5.589,0,8.38c0.073,2.53,0.355,5.054,0.453,7.583c0.017,0.438-0.421,0.895-0.649,1.344
		c-0.485-0.251-1.096-0.398-1.416-0.786c-0.258-0.311-0.215-0.913-0.221-1.386c-0.049-4.427-0.1-8.854-0.103-13.281
		c-0.001-1.349,0.114-2.701,0.234-4.046c0.287-3.22-1.835-4.591-4.578-4.772c-3.613-0.238-7.249-0.142-10.864-0.359
		c-2.785-0.167-5.548-0.705-8.333-0.886c-5.611-0.365-11.229-0.621-16.847-0.879c-3.945-0.181-7.895-0.266-11.841-0.445
		c-2.336-0.105-4.67-0.461-7.002-0.435c-3.732,0.042-7.462,0.298-11.191,0.49c-0.512,0.026-1.019,0.198-1.525,0.313
		c-1.029,0.235-1.7,0.748-1.782,1.926c-0.042,0.607-0.387,1.189-0.564,1.791c-0.893,3.035-0.622,6.158-0.694,9.256
		c-0.086,3.67-0.255,7.34-0.252,11.01c0.001,1.497,0.407,2.99,0.538,4.492c0.059,0.679-0.026,1.399-0.211,2.053
		c-0.059,0.209-0.671,0.401-0.989,0.349c-0.211-0.034-0.494-0.511-0.5-0.796c-0.113-4.896-0.236-9.794-0.253-14.692
		c-0.01-3.071,0.07-6.148,0.272-9.212c0.102-1.536,0.352-3.138,0.939-4.54c0.442-1.055,1.405-2.003,2.352-2.712
		c2.24-1.679,4.951-1.234,7.521-1.343c0.997-0.042,1.997-0.007,2.996-0.007C51.266,2.921,51.271,2.867,51.276,2.813z"/>
	<path style="fill-rule:evenodd;clip-rule:evenodd;" d="M63.733,32.732c0.181,1.697,0.36,3.394,0.522,4.92
		c-1.405,0.346-2.535,0.62-3.661,0.909c-0.148,0.038-0.361,0.13-0.397,0.244c-0.172,0.534-0.396,1.086-0.387,1.628
		c0.005,0.261,0.571,0.775,0.735,0.722c0.526-0.172,1.148-0.444,1.438-0.876c1.121-1.669,1.125-1.715,3.019-1.103
		c0.034,0.011,0.077-0.009,0.329-0.043c0.118-1.118,0.244-2.29,0.366-3.462c0.188-1.821,0.297-3.672,1.8-5.019
		c0.161-0.145,0.365-0.241,0.725-0.472c-0.064,0.373-0.033,0.603-0.132,0.704c-1.631,1.66-1.569,3.661-1.155,5.722
		c0.052,0.258,0.266,0.587,0.492,0.69c2.438,1.108,3.015,2.364,2.281,4.93c-0.126,0.44,0.021,0.952-0.069,1.409
		c-0.299,1.532-0.649,3.054-1.073,5.011c0.542,0.79,1.399,2.015,2.226,3.26c0.445,0.671-0.353,1.83-1.33,1.951
		c-0.576,0.072-1.155,0.121-1.869,0.193c0.458,0.527,0.758,0.917,1.104,1.26c0.639,0.633,1.281,0.977,2.322,0.781
		c2.697-0.509,5.431-0.818,8.152-1.194c1.394-0.192,2.507-0.748,2.984-2.18c0.061-0.182,0.126-0.375,0.126-0.562
		c0.002-1.46,0.001-2.921-0.024-4.381c-0.035-2.029-0.09-4.058-0.141-6.087c-0.033-1.271-0.03-2.545-0.131-3.811
		c-0.056-0.704-0.365-1.387-0.428-2.091c-0.159-1.787-0.241-3.582-0.358-5.373c-0.024-0.358-0.034-0.723-0.111-1.071
		c-0.334-1.505-0.545-1.643-2.071-1.425c-1.068,0.152-2.146,0.481-3.203,0.422c-1.865-0.105-3.717-0.447-5.574-0.69
		c-0.017-0.17-0.033-0.34-0.05-0.51c0.441-0.11,0.897-0.354,1.322-0.309c3.568,0.381,7.096,0.275,10.58-0.661
		c0.706-0.19,0.874,0.196,0.89,0.859c0.104,4.383,0.234,8.766,0.38,13.148c0.13,3.906,0.343,7.81,0.42,11.717
		c0.059,2.942-1.506,4.368-4.829,4.787c-2.641,0.333-5.271,0.763-7.898,1.191c-1.494,0.244-2.814-0.674-3.84-1.795
		c-1.183-1.293-1.346-3.256-3.196-4.135c-1.594-0.758-3.066-1.239-4.779-0.685c-0.297,0.096-0.616,0.128-1.229,0.25
		c1.989-1.872,0.527-3.508,0.234-5.109c-0.147-0.804-0.381-1.415,0.542-1.913c0.276-0.149,0.42-0.76,0.421-1.16
		c0.003-1.05-0.11-2.1-0.168-3.15c-0.112-2.02,0.854-3.081,2.851-3.145c0.195-0.006,0.389-0.029,0.45-0.034
		c0.306-1.496,0.598-2.922,0.89-4.348C63.401,32.674,63.567,32.703,63.733,32.732z M67.067,37.554
		c-0.059,0.773-0.068,1.234-0.135,1.687c-0.057,0.383-0.06,0.96-0.293,1.096c-0.742,0.43-0.609,1.035-0.545,1.663
		c0.117,1.146-0.181,2.157-1.096,2.884c-0.28,0.223-0.727,0.235-1.097,0.344c0.163-0.315,0.263-0.689,0.498-0.936
		c1.021-1.075,1.134-2.857,0.157-3.939c-0.451-0.5-1.073-0.948-1.546-0.087c-0.882,1.605-3.458,2.017-3.132,4.46
		c0.008,0.061-0.063,0.165-0.124,0.197c-0.911,0.47-0.698,1.209-0.503,1.968c0.167,0.654,0.227,1.343,0.452,1.975
		c0.134,0.376,0.445,0.891,0.764,0.964c1.598,0.368,3.224,0.611,4.863,0.902c-0.095-0.344-0.227-0.825-0.386-1.407
		c0.389-0.24,0.79-0.484,1.188-0.732c2.006-1.249,2.761-2.974,2.333-5.269c-0.057-0.303-0.123-0.7,0.019-0.928
		C69.689,40.444,68.677,39.106,67.067,37.554z M68.688,52.757c-0.372-1.377-0.72-2.668-1.112-4.123
		c-0.916,0.716-2.223,0.726-1.507,2.187C67.048,52.817,67.513,53.213,68.688,52.757z"/>
	<path style="fill-rule:evenodd;clip-rule:evenodd;" d="M58.637,28.253c0.234-2.054,0.891-4.382,2.616-6.299
		c0.613-0.681,1.189-1.396,1.817-2.063c0.269-0.285,0.597-0.563,0.954-0.698c0.227-0.086,0.555,0.096,0.837,0.158
		c-0.111,0.251-0.153,0.6-0.345,0.738c-2.306,1.66-4.129,3.611-4.476,6.615c-0.188,1.626,0.74,3.233,2.304,3.716
		c1.281,0.395,2.653-1.113,2.229-2.687c-0.307-1.137-0.137-1.776,0.997-2.043c0.943-0.223,1.845,0.51,2.162,1.541
		c0.09,0.294,0.545,0.463,0.793,0.728c0.191,0.204,0.32,0.466,0.477,0.703c-0.724,0.418-1.45,1.175-2.172,1.173
		c-1.056-0.004-1.753,0.336-2.132,1.164c-0.467,1.018-1.057,1.092-1.998,0.728c-0.658-0.254-1.417-0.234-2.098-0.446
		C59.054,30.799,58.659,30.236,58.637,28.253z M65.653,28.816c0.092,0.01,0.184,0.021,0.275,0.031
		c0.096-0.255,0.267-0.51,0.27-0.767c0.005-0.409-0.087-0.822-0.18-1.224c-0.012-0.052-0.272-0.047-0.417-0.068
		c-0.043,0.398-0.121,0.796-0.119,1.194C65.482,28.261,65.592,28.538,65.653,28.816z"/>
	<path style="fill-rule:evenodd;clip-rule:evenodd;" d="M55.363,162.858c-0.773,1.164-1.733,1.222-2.605,1.213
		c-4.503-0.046-9.005-0.149-13.507-0.259c-0.62-0.016-1.237-0.177-1.855-0.27c-0.002-0.167-0.005-0.334-0.007-0.501
		c0.455-0.122,0.908-0.34,1.365-0.351c4.859-0.114,9.719-0.211,14.579-0.265C53.948,162.418,54.566,162.681,55.363,162.858z"/>
	<path style="fill-rule:evenodd;clip-rule:evenodd;" d="M66.148,18.956c0.43-0.241,0.886-0.718,1.283-0.673
		c0.715,0.081,1.731,0.272,2.032,0.772c1.337,2.221,3.288,2.075,5.368,1.716c2.021-0.349,3.513,0.737,4.966,1.87
		c0.194,0.151,0.307,0.617,0.222,0.851c-0.074,0.202-0.541,0.449-0.734,0.383c-0.639-0.217-1.38-0.427-1.818-0.89
		c-1.358-1.432-3.732-1.789-5.393-0.666c-1.06,0.717-1.548,0.519-1.858-0.753c-0.256-1.048-1.481-2.037-2.624-2.098
		c-0.419-0.022-0.841-0.003-1.262-0.003C66.27,19.295,66.209,19.125,66.148,18.956z"/>
	<path style="fill-rule:evenodd;clip-rule:evenodd;" d="M22,169.636c-1.826,0-3.653,0.028-5.477-0.023
		c-0.372-0.011-0.903-0.229-1.058-0.517c-0.167-0.31-0.12-0.931,0.101-1.19c0.177-0.208,0.753-0.11,1.149-0.092
		c2.258,0.105,4.517,0.201,6.77,0.365c0.466,0.034,0.913,0.339,1.368,0.52c-0.434,0.338-0.823,0.798-1.314,0.979
		c-0.456,0.167-1.021,0.035-1.539,0.035C22,169.687,22,169.662,22,169.636z"/>
	<path style="fill-rule:evenodd;clip-rule:evenodd;" d="M155.438,97.729c-0.356-0.026-0.739,0.022-1.066-0.09
		c-1.978-0.682-4.021-0.31-6.032-0.415c-0.158-0.008-0.36,0.057-0.467-0.018c-0.262-0.185-0.479-0.432-0.714-0.654
		c0.303-0.171,0.607-0.493,0.908-0.489c1.859,0.025,3.717,0.139,5.577,0.188c0.593,0.016,1.188-0.085,1.783-0.112
		c0.645-0.029,1.463-0.094,1.396,0.799c-0.027,0.368-0.776,0.683-1.197,1.022C155.563,97.883,155.5,97.806,155.438,97.729z"/>
	<path style="fill-rule:evenodd;clip-rule:evenodd;" d="M78.563,31.12c1.595,0.106,2.066,0.854,1.939,2.655
		c-0.069,0.973-0.025,1.958-0.17,2.917c-0.07,0.468-0.458,0.888-0.701,1.33c-0.262-0.438-0.727-0.869-0.74-1.313
		c-0.023-0.818,0.055-1.718,0.387-2.449C79.851,33.002,79.94,31.977,78.563,31.12z"/>
	<path style="fill-rule:evenodd;clip-rule:evenodd;" d="M69.727,32.467c0.417-0.27,0.875-0.806,1.241-0.749
		c0.553,0.085,1.402,0.504,1.494,0.92c0.344,1.562,0.447,3.178,0.586,4.779c0.012,0.143-0.481,0.494-0.547,0.451
		c-0.257-0.167-0.602-0.444-0.617-0.698c-0.054-0.908,0.03-1.824,0.031-2.737c0.001-1.793-0.337-2.071-1.957-1.649
		C69.881,32.679,69.804,32.573,69.727,32.467z"/>
	<path style="fill-rule:evenodd;clip-rule:evenodd;" d="M74.683,31.434c1.042-0.82,2.034-0.592,2.229,0.527
		c0.241,1.381,0.314,2.8,0.331,4.204c0.004,0.371-0.468,0.748-0.721,1.121c-0.15-0.398-0.419-0.795-0.425-1.196
		c-0.015-0.909,0.099-1.82,0.164-2.729C76.344,32.184,75.939,31.647,74.683,31.434z"/>
	<path style="fill-rule:evenodd;clip-rule:evenodd;" d="M125.357,62.929c0.284-0.262,0.559-0.515,0.81-0.747
		c-0.045-0.142-0.048-0.232-0.094-0.287c-0.255-0.306-0.521-0.603-0.782-0.903c0.205-0.175,0.449-0.527,0.605-0.492
		c0.406,0.092,0.817,0.299,1.147,0.561c0.668,0.527,0.775,1.204,0.212,1.869C126.797,63.471,126.059,63.458,125.357,62.929z"/>
	<path style="fill-rule:evenodd;clip-rule:evenodd;" d="M29.41,66.049c-0.903,0.632-1.923,0.764-2.881,0.229
		c-0.821-0.459-1.559-1.104-2.234-1.768c-0.257-0.253-0.394-0.821-0.315-1.189c0.499-2.36,1.805-3.469,4.172-3.781
		c0.429-0.056,0.899-0.35,1.207-0.671c0.725-0.758,3.607-1.323,4.508-0.78c0.187,0.113,0.467,0.436,0.428,0.502
		c-0.587,1.02-1.036,2.229-1.89,2.955c-0.969,0.822-2.293,0.252-3.142-0.447c-0.958-0.788-1.73-0.597-2.616-0.137
		c-1.069,0.556-1.032,1.574-0.863,2.516c0.173,0.963,0.833,1.612,1.833,1.811c0.616,0.123,1.24,0.201,1.86,0.298
		C29.455,65.741,29.433,65.895,29.41,66.049z"/>
	<path style="fill-rule:evenodd;clip-rule:evenodd;" d="M44.521,53.694c-0.451-0.043-0.738-0.062-1.023-0.099
		c-1.596-0.204-2.542,0.349-2.17,2.506c0.13,0.756,0.672,1.433,0.928,2.179c0.113,0.328-0.019,0.738-0.039,1.111
		c-0.375-0.071-0.802-0.051-1.116-0.229c-0.899-0.51-1.5-2.661-1.194-4.038c0.267-1.2,1.577-2.596,2.635-2.669
		C43.345,52.4,44.085,52.631,44.521,53.694z"/>
	<path style="fill-rule:evenodd;clip-rule:evenodd;" d="M37.287,71.175c1.715-0.714,3.433-0.229,3.665,0.982
		c0.096,0.499-0.293,1.091-0.462,1.64c-0.311-0.333-0.613-0.674-0.936-0.995c-0.349-0.347-0.692-0.707-1.083-1
		C38.16,71.569,37.78,71.43,37.287,71.175z"/>
	<path style="fill-rule:evenodd;clip-rule:evenodd;" d="M26.548,62.179c0.873-0.091,1.635-0.409,2.066-0.158
		c0.631,0.366,1.044,1.127,1.499,1.756c0.059,0.082-0.184,0.552-0.287,0.551c-0.487-0.001-1.081,0.049-1.436-0.203
		C27.803,63.708,27.369,63.073,26.548,62.179z"/>
	<path style="fill-rule:evenodd;clip-rule:evenodd;" d="M46.011,58.267c-0.705,0.461-1.134,0.96-1.459,0.899
		c-0.415-0.077-0.746-0.607-1.112-0.941c0.326-0.327,0.654-0.919,0.977-0.916C44.841,57.314,45.261,57.786,46.011,58.267z"/>
	<path style="fill-rule:evenodd;clip-rule:evenodd;" d="M79.385,79.312c-0.1,1.171-0.111,2.36-0.349,3.502
		c-0.084,0.403-0.745,0.988-1.1,0.96c-0.485-0.038-1.149-0.487-1.346-0.932c-0.425-0.964-0.665-2.025-0.865-3.068
		c-0.364-1.9-0.666-3.812-0.949-5.726c-0.122-0.822-0.209-1.665-0.163-2.49c0.027-0.491,0.285-1.331,0.544-1.373
		c0.592-0.097,1.26,0.165,1.873,0.358c0.175,0.056,0.33,0.36,0.387,0.578C78.125,73.827,79.637,76.354,79.385,79.312z M77.826,82.38
		c0.122-0.016,0.243-0.031,0.364-0.047c0.059-0.419,0.115-0.839,0.178-1.258c0.188-1.255-0.245-2.37-0.579-3.563
		c-0.482-1.721-0.483-3.573-0.795-5.35c-0.082-0.465-0.553-0.861-0.845-1.289c-0.238,0.443-0.729,0.925-0.669,1.322
		c0.245,1.599,0.673,3.169,1.007,4.755c0.119,0.564,0.175,1.143,0.234,1.717C76.857,79.986,76.96,81.311,77.826,82.38z"/>
	<path style="fill-rule:evenodd;clip-rule:evenodd;" d="M87.37,68.612c0.383-0.965,1.186-0.938,1.796-0.728
		c0.448,0.155,1.014,0.743,1.053,1.18c0.176,1.978,0.187,3.97,0.25,5.958c0.081,2.501,0.154,5.003,0.232,7.504
		c0.02,0.638,0.073,1.275,0.049,1.911c-0.007,0.188-0.229,0.368-0.354,0.551c-0.175-0.174-0.432-0.319-0.51-0.529
		c-0.28-0.752-0.504-1.525-0.737-2.294c-0.045-0.147-0.094-0.327-0.05-0.461c1.19-3.562,0.27-7.207,0.423-10.809
		c0.014-0.313-0.134-0.637-0.107-0.947c0.098-1.168-0.285-1.688-1.508-1.238C87.788,68.754,87.619,68.662,87.37,68.612z"/>
	<path style="fill-rule:evenodd;clip-rule:evenodd;" d="M92.542,68.362c0.128-0.917,0.833-0.887,1.504-0.861
		c0.969,0.038,1.495,0.657,1.517,1.534c0.043,1.748-0.074,3.5-0.073,5.249c0.001,1.844,0.076,3.688,0.092,5.533
		c0.011,1.311,0.012,2.624-0.062,3.931c-0.02,0.349-0.325,0.682-0.633,1.283c-0.195-0.498-0.318-0.667-0.32-0.838
		c-0.026-2.183-0.07-4.366-0.039-6.549c0.039-2.616,0.184-5.231,0.21-7.847c0.016-1.575-0.046-1.575-1.611-1.239
		c-0.111,0.023-0.237,0.011-0.35-0.015C92.708,68.526,92.653,68.451,92.542,68.362z"/>
	<path style="fill-rule:evenodd;clip-rule:evenodd;" d="M81.388,69.059c0.588-0.378,1.141-0.926,1.779-1.057
		c0.281-0.058,0.905,0.671,1.075,1.149c0.327,0.918,0.53,1.903,0.627,2.877c0.335,3.364,0.618,6.734,0.877,10.105
		c0.04,0.526-0.145,1.07-0.226,1.606c-0.119-0.002-0.237-0.003-0.355-0.005c-0.113-0.179-0.31-0.351-0.327-0.539
		c-0.253-2.735-0.507-5.471-0.707-8.211c-0.108-1.468-0.022-2.954-0.19-4.413c-0.204-1.756-0.357-1.788-1.891-1.094
		c-0.121,0.055-0.288,0.007-0.434,0.007C81.54,69.343,81.464,69.201,81.388,69.059z"/>
</g>
</svg>
