<?xml version="1.0" encoding="UTF-8" standalone="no"?>
<svg
   xmlns:dc="http://purl.org/dc/elements/1.1/"
   xmlns:cc="http://creativecommons.org/ns#"
   xmlns:rdf="http://www.w3.org/1999/02/22-rdf-syntax-ns#"
   xmlns:svg="http://www.w3.org/2000/svg"
   xmlns="http://www.w3.org/2000/svg"
   xmlns:sodipodi="http://sodipodi.sourceforge.net/DTD/sodipodi-0.dtd"
   xmlns:inkscape="http://www.inkscape.org/namespaces/inkscape"
   version="1.1"
   id="Layer_1"
   x="0px"
   y="0px"
   viewBox="0 0 1466.88 953.69617"
   enable-background="new 0 0 1280 1920"
   xml:space="preserve"
   inkscape:version="0.91 r13725"
   sodipodi:docname="Double Decker Bus.svg"
   width="1466.88"
   height="953.69617"><metadata
     id="metadata12476"><rdf:RDF><cc:Work
         rdf:about=""><dc:format>image/svg+xml</dc:format><dc:type
           rdf:resource="http://purl.org/dc/dcmitype/StillImage" /><dc:title></dc:title></cc:Work></rdf:RDF></metadata><defs
     id="defs12474" /><sodipodi:namedview
     pagecolor="#ffffff"
     bordercolor="#666666"
     borderopacity="1"
     objecttolerance="10"
     gridtolerance="10"
     guidetolerance="10"
     inkscape:pageopacity="0"
     inkscape:pageshadow="2"
     inkscape:window-width="1916"
     inkscape:window-height="1035"
     id="namedview12472"
     showgrid="false"
     fit-margin-top="0"
     fit-margin-left="0"
     fit-margin-right="0"
     fit-margin-bottom="0"
     inkscape:zoom="0.51708065"
     inkscape:cx="515.29367"
     inkscape:cy="704.08564"
     inkscape:window-x="4"
     inkscape:window-y="1"
     inkscape:window-maximized="1"
     inkscape:current-layer="Layer_1" /><g
     id="_x23_fffdfdff"
     transform="translate(-124.70633,-323.60263)" /><g
     id="g10884"
     transform="matrix(2.4871786,0,0,2.8320231,-360.85121,-916.47385)" /><g
     id="g14967"
     transform="translate(-124.70633,-323.60263)"><path
       style="fill:#ffffff;stroke:#ffffff;stroke-width:0.0938"
       inkscape:connector-curvature="0"
       id="path10886"
       d="m 667.3,419.26 c 0.52,0.69 0.52,0.69 0,0 z"
       transform="matrix(2.4871786,0,0,2.8320231,-236.14488,-592.87122)" /><path
       style="fill:#ffffff;stroke:#ffffff;stroke-width:0.0938"
       inkscape:connector-curvature="0"
       id="path10888"
       d="m 669.2,419.23 c 0.58,0.63 0.58,0.63 0,0 z"
       transform="matrix(2.4871786,0,0,2.8320231,-236.14488,-592.87122)" /><path
       style="stroke:#000000;stroke-width:0.0938"
       inkscape:connector-curvature="0"
       id="path10892"
       d="m 664.24,417.22 c 0.57,0.65 0.57,0.65 0,0 z"
       transform="matrix(2.4871786,0,0,2.8320231,-236.14488,-592.87122)" /><path
       style="stroke:#000000;stroke-width:0.0938"
       inkscape:connector-curvature="0"
       id="path10894"
       d="m 222.42,572.68 c 10.96,-1.65 22.51,0.97 31.59,7.34 11.64,7.62 19.03,21.09 19.45,34.96 0.32,11.49 -3.39,23.55 -11.94,31.55 -6.62,6.17 -14.73,11.04 -23.68,12.81 -14.74,3.1299 -30.91,-1.9901 -41.32,-12.85 -9.01,-10.24 -13.37,-24.59 -10.88,-38.09 2.43,-18.39 18.78,-33.08 36.78,-35.72 m 1.06,22.06 c -7.65,2.09 -14.16,8.37 -15.9,16.2 -2.04,5.88 0,12.28 2.97,17.48 4.35,6.14 11.81,10.31 19.44,9.88 5.1,-0.14 9.75,-2.69 13.93,-5.39 2.05,-2.97 4.96,-5.44 5.77,-9.11 3.8,-10.4 -1.21,-23.42 -11.59,-27.7 -4.42,-2.45 -9.8,-2.2 -14.62,-1.36 z"
       transform="matrix(2.4871786,0,0,2.8320231,-236.14488,-592.87122)" /><path
       style="stroke:#000000;stroke-width:0.0938"
       inkscape:connector-curvature="0"
       id="path10896"
       d="m 524.19,590.97 c 7.01,-10.1299 18.47,-17.04 30.72,-18.45 12.88,-1.64 26.33,2.82 35.7,11.8 12.56,11.07 17,29.8 12.23,45.6 -2.2401,9.51 -9.19,17.32 -17.17,22.65 -14.18,9.21 -33.51,10.59 -48.33,2.08 -9.01,-5.01 -14.95,-14.07 -18.51,-23.51 -4.83,-13.21 -2.8,-28.7 5.36,-40.17 m 29.98,4.13 c -3.01,1.08 -6.38,1.91 -8.57,4.41 -3,2.83 -4.96,6.51 -6.73,10.18 -0.93,4.49 -0.78,9.17 0.08,13.66 2.97,6.58 8.46,12.36 15.63,14.19 6.63,2.02 13.85,0.11 19.38,-3.82 6.11,-4.81 9.28,-13.05 8.16,-20.72 -1.13,-6.84 -5.38,-13.33 -11.73,-16.35 -4.86,-2.78 -10.91,-2.99 -16.22,-1.55 z"
       transform="matrix(2.4871786,0,0,2.8320231,-236.14488,-592.87122)" /><path
       style="fill:#b22128;stroke:#b22128;stroke-width:0.0938"
       inkscape:connector-curvature="0"
       id="path10904"
       d="m 169.12,454.05 c 79.61,0.14 159.23,0.02 238.85,0.07 108.69,-0.06 217.37,0.1 326.06,-0.08 -0.38,0.31 -1.13,0.93 -1.51,1.23 1.43,6.49 0.56,13.15 0.82,19.72 -0.34,12.66 0.06,25.33 -0.5,37.99 -0.16,1.89 0.31,3.74 0.85,5.55 0.05,18.79 -1.11,37.6299 -1.34,56.4399 -0.19,15.25 -0.62,30.4901 -0.48,45.7401 -8.05,0.49 -16.16,1.16 -24.2,0.92 -1.79,-0.8 -3.73,-1 -5.66,-0.83 -11.33,0.57 -22.68,0.11 -34.01,0.31 -10.8,-0.05 -21.62,0.14 -32.39,-0.68 -7.89,-0.71 -16.09,0.51 -23.69,-2.25 -1.93,-3.22 -0.09,-7.58 -2.04,-10.96 -2.56,-10.22 -7.26,-20.55 -15.95,-26.96 -4.07,-2.28 -7.55,-5.52 -11.91,-7.29 -3.03,-1.37 -6.42,-2.7 -9.71,-1.37 -11.39,-2.0699 -23.54,-1.31 -34.11,3.72 -10.57,4.77 -18.95,13.84 -23.2,24.6 -0.11,-0.55 -0.32,-1.65 -0.42,-2.2 -3.52,5.0601 -3.68,11.39 -4.35,17.28 -0.48,3.77 -3.48,8.54 -7.88,7.56 -28.11,0.43 -56.25,0.55 -84.37,0.75 -18,1.16 -35.99,-0.43 -53.99,-0.11 -18.34,-0.11 -36.67,-0.4 -55.01,-0.34 -5.66,-0.26 -11.31,-0.88 -16.98,-0.86 -4.79,0.12 -7.78,-4.97 -7.26,-9.34 -0.35,-0.09 -1.04,-0.2599 -1.39,-0.35 -1.32,-3.39 -2.63,-6.81 -4.58,-9.9 -0.44,0.08 -1.32,0.22 -1.75,0.3 -5.87,-11.14 -13.89,-21.64 -24.99,-27.96 -11.71,-6.77 -26.26,-7.78 -39.12,-3.99 -10.95,3.92 -20.28,11.93 -26.54,21.67 -4.69,7.19 -4.36,16.1 -6.89,24.04 -0.95,3.3 -3.97,5.86 -7.46,5.89 -4.61,0.57 -8.75,-3.46 -9.52,-7.72 1.4,-4.66 -0.61,-9.12 -1.5,-13.6 -0.36,-12.34 -0.48,-24.71 -0.03,-37.05 0.59,-3.76 2.11,-7.32 2.78,-11.07 0.49,-3.07 3.51,-4.53 5.1,-6.95 1.53,-2.3 4.31,-3.1 6.5,-4.6 3.36,-2.2 6.93,-4.4 9.3,-7.72 0.72,-13.52 -0.08,-27.1 0.2,-40.64 -0.02,-5.34 0.27,-10.69 -0.03,-16.03 -0.07,-3.03 -2.36,-6.55 -5.79,-5.91 -3.86,0.26 -8.1,-0.22 -10.75,-3.37 0.04,-4.57 0.94,-9.08 0.84,-13.65 m 537.82,21.39 c -23.3,-0.13 -46.6,0.03 -69.9,-0.07 -2.08,0.09 -4.28,-0.37 -6.2599,0.38 -0.73,1.28 -0.36,2.86 -0.48,4.27 0.11,40.33 0.01,80.67 0.07,121 0.1,0.62 0.32,1.85 0.42,2.47 9.04,0.84 18.15,-0.18 27.2,0.57 18.18,-0.68 36.39,0.09 54.58,-0.42 -0.09,-42.43 -0.06,-84.87 -0.01,-127.3 l -0.35,0.09 c -0.35,-0.5 -1.05,-1.49 -1.4,-1.99 -1.2501,0.49 -2.5101,1.07 -3.8701,1 m -513.06,0.44 c -1.64,5.51 -0.78,11.47 -2.17,17.06 0.25,6.47 -2.23,12.67 -2.03,19.14 0.09,8 -0.07,16.01 0.04,24.02 0.38,0.3 1.14,0.9 1.52,1.2 0.19,0.11 0.56,0.33 0.75,0.44 -0.17,3.19 3.77,3.29 6.03,3.44 18.32,0.12 36.64,0.01 54.96,0.06 2.11,-0.22 5.38,0.36 6.17,-2.26 0.14,-4.68 -1.05,-9.29 -0.82,-13.97 0.26,-10.22 -0.85,-20.39 -0.9,-30.59 -0.67,-2.65 -0.05,-6.34 -2.85,-7.86 -8.94,-5.11 -19.39,-6.05 -29.13,-8.91 -6.9,-0.14 -13.56,-2.73 -20.51,-2.26 -3.62,0.29 -7.74,-0.96 -11.06,0.49 m 74.11,11.99 c -0.85,0.92 -1.72,1.84 -2.56,2.77 0.25,14.49 -0.02,28.98 0.13,43.47 0.06,1.56 1.11,2.87 1.23,4.45 0.27,0.41 0.82,1.25 1.09,1.67 8.34,0.6 16.71,0.22 25.07,0.32 16.01,-0.06 32.02,0.09 48.02,-0.06 2.49,0.06 3.62,-2.5 3.86,-4.6 1.06,-0.2 2.15,-0.29 3.23,-0.19 -0.22,3.03 2.94,5.67 5.88,5.4 23.34,0.14 46.7,-0.08 70.05,0.13 3.47,0.25 5.13,-3.27 7.08,-5.5 2.35,1.18 2,5.28 4.9,5.38 24,0.1 48.03,-0.12 72.04,0.11 3.77,0.58 4.12,-3.7599 6.75,-5.22 1.29,1.77 2.11,4.18 4.27,5.09 24.65,0.23 49.3,-0.15 73.95,0.09 3.35,-1.71 5.35,-5.48 5.17,-9.21 0.27,-11.98 0.09,-23.96 0.06,-35.94 0.54,-4.53 -1.48,-11.13 -7.19,-10.39 -23.34,0.07 -46.69,-0.07 -70.04,0.05 -2.91,-0.29 -4.27,2.86 -6.82,3.61 -1.49,-1.94 -3.45,-3.82 -6.11,-3.63 -23.35,-0.03 -46.71,0.02 -70.07,-0.09 -3.11,-0.15 -4.66,3.06 -7.01,4.54 -1.71,-2.77 -4.65,-4.77 -8.02,-4.49 -23.32,0.07 -46.65,-0.08 -69.96,0.09 -2.01,1.1 -4.24,2.41 -5.08,4.67 -2.21,-0.87 -3.57,-3.55 -6.03,-3.59 -1.22,-0.48 -2.57,-0.4 -3.84,-0.46 -22.01,0.07 -44.01,0.06 -66.01,0 -1.45,0.13 -3.57,-0.34 -4.04,1.53 z"
       transform="matrix(2.4871786,0,0,2.8320231,-236.14488,-592.87122)" /><path
       style="fill:#fefefe;stroke:#fefefe;stroke-width:0.0938"
       inkscape:connector-curvature="0"
       id="path10906"
       d="m 651.11,403.02 c -0.19,-2.59 2.47,-4.32 4.84,-3.51 2.28,0.3 3.17,3.35 1.85,5.08 -1.39,1.85 -3.43,3.08 -4.84,4.92 1.49,0.72 5.36,-1.31 5.67,1.03 -2.55,0.81 -5.34,0.19 -7.98,0.34 0.48,-4.17 7.8,-5.39 5.67,-9.92 -2.6,-1.81 -3.07,1.92 -5.21,2.06 z"
       transform="matrix(2.4871786,0,0,2.8320231,-236.14488,-592.87122)" /><path
       style="fill:#fefefe;stroke:#fefefe;stroke-width:0.0938"
       inkscape:connector-curvature="0"
       id="path10908"
       d="m 661.5,404.72 c -2.6,-1.93 -0.5,-6.04 2.56,-5.32 2.47,-0.17 4.25,3.76 1.65,4.91 2.73,1.92 1.94,6.75 -1.71,6.82 -3.62,0.71 -5.89,-4.61 -2.5,-6.41 m 0.7,-3.59 c -1.95,2.02 2.22,4.51 3.07,1.92 1.1,-1.73 -1.79,-3.42 -3.07,-1.92 m 0.37,4.42 c -2.72,1.16 -0.62,5.33 1.91,4.17 2.99,-0.93 0.76,-5.8 -1.91,-4.17 z"
       transform="matrix(2.4871786,0,0,2.8320231,-236.14488,-592.87122)" /><path
       sodipodi:nodetypes="cccccccc"
       style="fill:#a4272e;fill-opacity:1;stroke:#5d3131;stroke-width:1.1303668;stroke-miterlimit:4;stroke-dasharray:none;stroke-opacity:1"
       inkscape:connector-curvature="0"
       id="path10910"
       d="m 219.29,396.72 c 123.72,-0.1 247.43,0.05 371.15,-0.08 0.45,15.38 0.01,30.78 0.23,46.17 l -0.31,0.14 c -116.11,-0.15 -232.23,-0.02 -348.34,-0.07 -7.17,0.05 -14.35,-0.12 -21.53,0.12 -0.31,-0.1 -0.92,-0.28 -1.23,-0.37 0.1,-15.3 0,-30.61 0.03,-45.91"
       transform="matrix(2.4871786,0,0,2.8320231,-236.14488,-592.87122)" /><path
       style="fill:#b12128;stroke:#b12128;stroke-width:0.0938"
       inkscape:connector-curvature="0"
       id="path10912"
       d="m 601.02,324.86 c 13.02,0.13 26.04,-0.03 39.04,-0.99 8.96,-0.21 18.02,-0.63 26.89,0.95 7.88,1.45 14.97,5.43 21.79,9.43 20.34,11.94 34.68,32.92 40.43,55.54 -0.47,3.04 0.03,6.11 1,9.02 1.6,4.77 0.71,9.87 1.48,14.78 1.55,10.97 1.77,22.09 1.42,33.15 -9.36,-0.15 -18.72,-0.07 -28.08,-0.02 -2.13,0.16 -3.85,-1.24 -5.61,-2.18 -0.24,-1.58 -0.49,-3.15 -0.66,-4.73 -0.3799,-13.64 0.21,-27.31 -0.31,-40.94 -1.35,-3.95 -6.28,-2.28 -9.4,-2.95 -20.01,-0.32 -40.03,-0.01 -60.04,-0.16 -2.77,-0.1 -5.5099,0.36 -8.2,0.94 -0.74,2.02 -1.36,4.11 -1.23,6.29 0.05,11.67 0.01,23.33 0.02,34.99 -0.26,2.07 0.94,3.82 1.79,5.6 -0.21,0.51 -0.63,1.54 -0.85,2.05 -3.92,-0.42 -8,1.69 -11.68,-0.31 -5.96,-1.43 -12.8,1.45 -18.15,-2.51 -0.22,-15.39 0.22,-30.79 -0.23,-46.17 -123.72,0.13 -247.43,-0.02 -371.15,0.08 -1.54,0.37 -2.81,1.31 -4,2.31 0.98,1.83 1.89,3.78 1.71,5.92 -0.08,10 -0.07,20.01 0.05,30.01 0.23,2.27 -0.75,4.33 -1.93,6.2 1,1.37 2.03,2.73 3.06,4.09 -2.96,2.38 -5.5,-0.9 -7.15,-3.1 -3.75,2.9 -8.67,1.82 -13.06,1.96 -7.83,0.08 -15.73,-0.57 -23.5,0.67 -0.23,-0.6 -0.7,-1.81 -0.93,-2.41 -0.84,0.06 -1.67,0.13 -2.51,0.21 -0.09,-4.84 0.17,-9.68 0.17,-14.52 -0.13,-8.42 2.15,-16.65 2.16,-25.07 1.03,-5.97 2.05,-11.95 3.01,-17.93 0.28,4.84 4.86,8.71 9.68,8.19 9.33,-0.31 18.66,-0.18 27.99,-0.04 2.53,-0.09 5.38,0.43 7.45,-1.41 7.68,-0.67 15.44,0.27 23.11,-0.36 2.72,-1.98 6.29,-4.61 5.98,-8.38 -0.05,-13.71 -0.08,-27.42 0.05,-41.12 0.16,-2.06 -1.85,-3.15 -3.02,-4.51 -13.22,0.04 -26.44,0.04 -39.65,0 -1.54,0.02 -3.11,0.01 -4.59,0.47 -4.25,0.88 -7.31,4.21 -10.09,7.31 -1.69,2.04 -3.71,3.89 -4.81,6.35 -0.87,1.63 -1.32,3.74 -3.22,4.52 -1.02,-6.56 5.03,-11.08 5.82,-17.23 5.37,-9.04 16.36,-14.59 26.91,-13.73 114.99,2.99 230,0.63 345,0.09 12.68,-0.11 25.37,0.07 38.04,-0.35 m -313.06,2.26 c 0.26,0.2 0.77,0.59 1.03,0.79 40.64,0.68 81.33,0.4 122,0.13 2,-0.16 4.33,0.55 6.07,-0.77 -0.77,-0.07 -2.32,-0.21 -3.09,-0.28 -41.99,0.47 -84.02,0.36 -126.01,0.13 m -29.61,10.4 c -1.91,1.16 -4.27,2.86 -3.96,5.41 0.05,13.67 0.07,27.35 -0.02,41.03 -0.33,2.74 1.42,5.02 2.36,7.45 6.41,0.73 12.87,0.17 19.31,0.37 17.66,-0.05 35.32,0.07 52.98,-0.03 3.58,0.04 5.7,-3.81 6.63,-6.8 0.34,-13.31 -0.12,-26.65 0.15,-39.96 0.16,-2.74 -1.73,-4.96 -2.37,-7.51 -25.03,-0.01 -50.06,-0.07 -75.08,0.04 m 167.98,-0.14 c -1.87,1.2 -2.98,3.37 -2.73,5.61 0.07,14 0.09,28.01 0.01,42.02 0.48,2.81 2.68,5.04 4.22,7.39 24.06,-0.09 48.12,0.05 72.18,-0.09 4.45,0.18 5.73,-4.75 6.22,-8.23 0.38,-8.04 -0.32,-16.11 0.45,-24.14 0.48,-4.86 -0.22,-9.71 -0.13,-14.58 -0.48,-3.6 -1.9,-8.77 -6.51,-8.45 -22.36,-0.28 -44.75,0.06 -67.12,-0.13 -2.21,0 -4.45,0.03 -6.59,0.6 m 82.14,2.92 c 0,15.24 -0.06,30.49 -0.01,45.73 -0.04,3.38 3.1,6.69 6.55,6.5 23.31,-0.07 46.62,0.09 69.92,-0.07 2.75,-0.86 5.8,-3.18 5.61,-6.41 0.07,-14.36 -0.03,-28.72 0.01,-43.09 0.27,-2.28 -1.54,-3.91 -2.86,-5.49 -24.58,-0.12 -49.16,0.05 -73.74,-0.04 -2.23,-0.16 -4.02,1.37 -5.48,2.87 m 89.34,-2.64 c -0.21,0.44 -0.64,1.33 -0.85,1.77 l -0.6,0.04 -0.11,0.66 c -2.22,-0.17 -1.86,2.42 -1.92,3.83 0.16,14.22 -0.37,28.49 0.21,42.7 2.53,2.05 4.79,5.65 8.5,5.01 33.29,-0.02 66.59,0 99.88,0 0.36,-0.07 1.08,-0.22 1.43,-0.3 2.52,-3.93 3.66,-8.8 4,-13.42 -1.3,-8.16 -3.15,-16.61 -8.0099,-23.49 -3.84,-4.76 -9.01,-8.19 -13.9301,-11.72 -5.17,-1.71 -9.6299,-6.11 -15.4,-5.31 -24.4,0.19 -48.83,-0.23 -73.2,0.23 m -257.35,3.18 c -0.39,14.7 -0.06,29.42 -0.17,44.13 -0.15,1.93 1.06,3.55 1.59,5.33 24.45,0.36 48.91,-0.07 73.36,0.22 1.31,-1.29 2.38,-2.79 3.35,-4.34 -0.02,-14.81 -0.03,-29.63 0,-44.45 -0.92,-1.33 -2.15,-2.35 -3.57,-3.09 -23.72,-0.01 -47.44,0.04 -71.16,-0.03 -1.13,0.75 -2.26,1.5 -3.4,2.23 z"
       transform="matrix(2.4871786,0,0,2.8320231,-236.14488,-592.87122)" /><path
       style="fill:#982c32;stroke:#982c32;stroke-width:0.0938"
       inkscape:connector-curvature="0"
       id="path10920"
       d="m 287.96,327.12 c 41.99,0.23 84.02,0.34 126.01,-0.13 0.77,0.07 2.32,0.21 3.09,0.28 -1.74,1.32 -4.07,0.61 -6.07,0.77 -40.67,0.27 -81.36,0.55 -122,-0.13 -0.26,-0.2 -0.77,-0.59 -1.03,-0.79 z"
       transform="matrix(2.4871786,0,0,2.8320231,-236.14488,-592.87122)" /><path
       style="fill:#9f6063;stroke:#9f6063;stroke-width:0.0938"
       inkscape:connector-curvature="0"
       id="path10922"
       d="m 203.37,337.9 c 1.48,-0.46 3.05,-0.45 4.59,-0.47 13.21,0.04 26.43,0.04 39.65,0 1.17,1.36 3.18,2.45 3.02,4.51 -0.13,13.7 -0.1,27.41 -0.05,41.12 0.31,3.77 -3.26,6.4 -5.98,8.38 -7.67,0.63 -15.43,-0.31 -23.11,0.36 -10.5,-0.46 -21,-0.16 -31.5,-0.21 -3.71,0 -8.42,0.78 -10.68,-3 -2.14,-4.12 0.89,-8.5 1.8,-12.56 2.51,-9.86 5.42,-19.97 11.69,-28.17 2.95,-3.9 7.09,-6.59 10.57,-9.96 m -6.78,7.62 c -8.39,8.42 -11.52,20.33 -14.45,31.48 -0.61,3.48 -2.77,6.55 -2.55,10.19 0.98,1.11 2.06,2.13 3.23,3.04 20.42,-0.12 40.85,-0.01 61.27,-0.02 2.38,-2.14 5.64,-4.63 5.09,-8.24 0.01,-13.01 -0.14,-26.02 0.1,-39.03 -0.1,-2.1 -2.02,-4.08 -4.19,-4.03 -12.05,-0.2 -24.11,0 -36.17,-0.1 -5.08,-0.37 -8.82,3.66 -12.33,6.71 z"
       transform="matrix(2.4871786,0,0,2.8320231,-236.14488,-592.87122)" /><path
       style="fill:#9a5559;stroke:#9a5559;stroke-width:0.0938"
       inkscape:connector-curvature="0"
       id="path10924"
       d="m 258.35,337.52 c 25.02,-0.11 50.05,-0.05 75.08,-0.04 0.64,2.55 2.53,4.77 2.37,7.51 -0.27,13.31 0.19,26.65 -0.15,39.96 -0.93,2.99 -3.05,6.84 -6.63,6.8 -17.66,0.1 -35.32,-0.02 -52.98,0.03 -6.44,-0.2 -12.9,0.36 -19.31,-0.37 -0.94,-2.43 -2.69,-4.71 -2.36,-7.45 0.09,-13.68 0.07,-27.36 0.02,-41.03 -0.31,-2.55 2.05,-4.25 3.96,-5.41 m -2.52,6.42 c 0.03,13.36 -0.04,26.73 0.02,40.1 0.3,2.15 0.64,5.23 2.92,6.2 23.78,0.06 47.57,-0.08 71.36,0.07 2.58,-1.46 4.34,-4.33 4.1,-7.33 -0.01,-12.67 -0.02,-25.33 0,-37.99 0.21,-2.55 -1.24,-5.9 -4.22,-5.76 -23.36,-0.04 -46.71,-0.16 -70.05,-0.01 -2.5,-0.11 -4.39,2.33 -4.13,4.72 z"
       transform="matrix(2.4871786,0,0,2.8320231,-236.14488,-592.87122)" /><path
       style="fill:#912e33;stroke:#912e33;stroke-width:0.0938"
       inkscape:connector-curvature="0"
       id="path10926"
       d="m 426.33,337.38 c 2.14,-0.57 4.38,-0.6 6.59,-0.6 22.37,0.19 44.76,-0.15 67.12,0.13 4.61,-0.32 6.03,4.85 6.51,8.45 -0.09,4.87 0.61,9.72 0.13,14.58 -0.77,8.03 -0.07,16.1 -0.45,24.14 -0.49,3.48 -1.77,8.41 -6.22,8.23 -24.06,0.14 -48.12,0 -72.18,0.09 -1.54,-2.35 -3.74,-4.58 -4.22,-7.39 0.08,-14.01 0.06,-28.02 -0.01,-42.02 -0.25,-2.24 0.86,-4.41 2.73,-5.61 m -0.87,5.59 c 0.03,14.03 0,28.08 0.01,42.12 -0.03,2.02 1.32,3.7 2.33,5.35 24.15,-0.03 48.3,-0.12 72.45,0.04 1.25,-1.3 3.34,-2.31 3.3,-4.38 0.93,-5.64 1.07,-11.45 0.19,-17.1 1.01,-7.28 0.47,-14.71 0.27,-21.98 1.02,-3.33 -0.64,-7.15 -3.97,-8.34 -23.7,-0.01 -47.41,0.01 -71.12,-0.02 -1.43,1.11 -3.8,2.09 -3.46,4.31 z"
       transform="matrix(2.4871786,0,0,2.8320231,-236.14488,-592.87122)" /><path
       style="fill:#945255;stroke:#945255;stroke-width:0.0938"
       inkscape:connector-curvature="0"
       id="path10928"
       d="m 508.47,340.3 c 1.46,-1.5 3.25,-3.03 5.48,-2.87 24.58,0.09 49.16,-0.08 73.74,0.04 1.32,1.58 3.13,3.21 2.86,5.49 -0.04,14.37 0.06,28.73 -0.01,43.09 0.19,3.23 -2.86,5.55 -5.61,6.41 -23.3,0.16 -46.61,0 -69.92,0.07 -3.45,0.19 -6.59,-3.12 -6.55,-6.5 -0.05,-15.24 0.01,-30.49 0.01,-45.73 m 1.95,1.52 c 0.17,14.76 -0.06,29.52 0.11,44.28 0.73,1.54 1.18,4.39 3.44,4.17 23.01,0.01 46.02,-0.01 69.04,0.01 2.96,0.38 5.09,-2.77 5.51,-5.31 0.08,-13.62 0.02,-27.25 0.02,-40.88 0.42,-2.6 -1.78,-5.26 -4.48,-4.87 -23.4,-0.14 -46.68,-0.34 -70.06,0.03 -1.72,-0.13 -2.61,1.46 -3.58,2.57 z"
       transform="matrix(2.4871786,0,0,2.8320231,-236.14488,-592.87122)" /><path
       style="fill:#9c575b;stroke:#9c575b;stroke-width:0.0938"
       inkscape:connector-curvature="0"
       id="path10930"
       d="m 597.81,337.66 c 24.37,-0.46 48.8,-0.04 73.2,-0.23 5.77,-0.8 10.23,3.6 15.4,5.31 4.92,3.53 10.09,6.96 13.9301,11.72 4.86,6.88 6.71,15.33 8.0099,23.49 -0.34,4.62 -1.48,9.49 -4,13.42 -0.35,0.08 -1.0699,0.23 -1.43,0.3 -33.29,0 -66.59,-0.02 -99.88,0 -3.71,0.64 -5.97,-2.96 -8.5,-5.01 -0.58,-14.21 -0.05,-28.48 -0.21,-42.7 0.06,-1.41 -0.3,-4 1.92,-3.83 -0.26,1.61 -0.48,3.23 -0.48,4.87 0,12.67 0.04,25.35 -0.03,38.02 -0.33,3.19 2.59,5.77 5.18,7.09 27.02,0.19 54.05,0.03 81.08,0.08 7.31,-0.24 14.72,0.51 21.96,-0.36 2.5099,-5.54 3.72,-12.02 1.6,-17.9 -2.27,-6.21 -3.58,-13.22 -8.5,-18 -6.51,-6.49 -14.41,-11.76 -23.17,-14.58 -16.94,-0.37 -33.9,-0.04 -50.84,-0.16 -8.7,0.12 -17.4,-0.26 -26.09,0.24 0.21,-0.44 0.64,-1.33 0.85,-1.77 z"
       transform="matrix(2.4871786,0,0,2.8320231,-236.14488,-592.87122)" /><path
       style="fill:#a62726;stroke:#a62726;stroke-width:0.0938"
       inkscape:connector-curvature="0"
       id="path10932"
       d="m 193.28,345.21 c 2.78,-3.1 5.84,-6.43 10.09,-7.31 -3.48,3.37 -7.62,6.06 -10.57,9.96 -6.27,8.2 -9.18,18.31 -11.69,28.17 -0.91,4.06 -3.94,8.44 -1.8,12.56 2.26,3.78 6.97,3 10.68,3 10.5,0.05 21,-0.25 31.5,0.21 -2.07,1.84 -4.92,1.32 -7.45,1.41 -9.33,-0.14 -18.66,-0.27 -27.99,0.04 -4.82,0.52 -9.4,-3.35 -9.68,-8.19 -0.96,5.98 -1.98,11.96 -3.01,17.93 -0.01,8.42 -2.29,16.65 -2.16,25.07 0,4.84 -0.26,9.68 -0.17,14.52 0.84,-0.08 1.67,-0.15 2.51,-0.21 0.23,0.6 0.7,1.81 0.93,2.41 7.77,-1.24 15.67,-0.59 23.5,-0.67 4.39,-0.14 9.31,0.94 13.06,-1.96 1.65,2.2 4.19,5.48 7.15,3.1 -1.03,-1.36 -2.06,-2.72 -3.06,-4.09 1.18,-1.87 2.16,-3.93 1.93,-6.2 -0.12,-10 -0.13,-20.01 -0.05,-30.01 0.18,-2.14 -0.73,-4.09 -1.71,-5.92 1.19,-1 2.46,-1.94 4,-2.31 -0.03,15.3 0.07,30.61 -0.03,45.91 0.31,0.09 0.92,0.27 1.23,0.37 2.24,1.52 4.96,1.31 7.53,1.27 119.33,0.07 238.67,0 358,0.01 1.58,0.12 2.97,-0.62 4.34,-1.33 l 0.31,-0.14 c 5.35,3.96 12.19,1.08 18.15,2.51 3.68,2 7.76,-0.11 11.68,0.31 0.22,-0.51 0.64,-1.54 0.85,-2.05 24.51,0.18 49.03,0.18 73.53,0.02 2.35,0.27 3.08,-2.07 3.84,-3.79 0.17,1.58 0.42,3.15 0.66,4.73 1.76,0.94 3.48,2.34 5.61,2.18 9.36,-0.05 18.72,-0.13 28.08,0.02 0.28,0.26 0.83,0.79 1.11,1.05 -111.06,-0.1 -222.13,0 -333.2,-0.04 -77.61,0.06 -155.22,-0.09 -232.83,0.07 1.34,-22.05 2.74,-44.17 6.68,-65.94 2.47,-12.76 5.68,-25.59 11.96,-37.06 1.31,-2.06 2.28,-4.47 4.28,-5.97 -0.79,6.15 -6.84,10.67 -5.82,17.23 1.9,-0.78 2.35,-2.89 3.22,-4.52 1.1,-2.46 3.12,-4.31 4.81,-6.35 z"
       transform="matrix(2.4871786,0,0,2.8320231,-236.14488,-592.87122)" /><path
       style="fill:#e6e6e6;stroke:#e6e6e6;stroke-width:0.0938"
       inkscape:connector-curvature="0"
       id="path10946"
       d="m 196.59,345.52 c 3.51,-3.05 7.25,-7.08 12.33,-6.71 12.06,0.1 24.12,-0.1 36.17,0.1 2.17,-0.05 4.09,1.93 4.19,4.03 -0.24,13.01 -0.09,26.02 -0.1,39.03 0.55,3.61 -2.71,6.1 -5.09,8.24 -20.42,0.01 -40.85,-0.1 -61.27,0.02 -1.17,-0.91 -2.25,-1.93 -3.23,-3.04 -0.22,-3.64 1.94,-6.71 2.55,-10.19 2.93,-11.15 6.06,-23.06 14.45,-31.48 z"
       transform="matrix(2.4871786,0,0,2.8320231,-236.14488,-592.87122)" /><path
       style="fill:#e6e6e6;stroke:#e6e6e6;stroke-width:0.0938"
       inkscape:connector-curvature="0"
       id="path10948"
       d="m 255.83,343.94 c -0.26,-2.39 1.63,-4.83 4.13,-4.72 23.34,-0.15 46.69,-0.03 70.05,0.01 2.98,-0.14 4.43,3.21 4.22,5.76 -0.02,12.66 -0.01,25.32 0,37.99 0.24,3 -1.52,5.87 -4.1,7.33 -23.79,-0.15 -47.58,-0.01 -71.36,-0.07 -2.28,-0.97 -2.62,-4.05 -2.92,-6.2 -0.06,-13.37 0.01,-26.74 -0.02,-40.1 z"
       transform="matrix(2.4871786,0,0,2.8320231,-236.14488,-592.87122)" /><path
       style="fill:#e6e6e6;stroke:#e6e6e6;stroke-width:0.0938"
       inkscape:connector-curvature="0"
       id="path10950"
       d="m 340.46,340.84 c 1.14,-0.73 2.27,-1.48 3.4,-2.23 23.72,0.07 47.44,0.02 71.16,0.03 1.42,0.74 2.65,1.76 3.57,3.09 -0.03,14.82 -0.02,29.64 0,44.45 -0.97,1.55 -2.04,3.05 -3.35,4.34 -24.45,-0.29 -48.91,0.14 -73.36,-0.22 -0.53,-1.78 -1.74,-3.4 -1.59,-5.33 0.11,-14.71 -0.22,-29.43 0.17,-44.13 z"
       transform="matrix(2.4871786,0,0,2.8320231,-236.14488,-592.87122)" /><path
       style="fill:#e6e6e6;stroke:#e6e6e6;stroke-width:0.0938"
       inkscape:connector-curvature="0"
       id="path10952"
       d="m 425.46,342.97 c -0.34,-2.22 2.03,-3.2 3.46,-4.31 23.71,0.03 47.42,0.01 71.12,0.02 3.33,1.19 4.99,5.01 3.97,8.34 0.2,7.27 0.74,14.7 -0.27,21.98 0.88,5.65 0.74,11.46 -0.19,17.1 0.04,2.07 -2.05,3.08 -3.3,4.38 -24.15,-0.16 -48.3,-0.07 -72.45,-0.04 -1.01,-1.65 -2.36,-3.33 -2.33,-5.35 -0.01,-14.04 0.02,-28.09 -0.01,-42.12 z"
       transform="matrix(2.4871786,0,0,2.8320231,-236.14488,-592.87122)" /><path
       style="fill:#e6e6e6;stroke:#e6e6e6;stroke-width:0.0938"
       inkscape:connector-curvature="0"
       id="path10954"
       d="m 510.42,341.82 c 0.97,-1.11 1.86,-2.7 3.58,-2.57 23.38,-0.37 46.66,-0.17 70.06,-0.03 2.7,-0.39 4.9,2.27 4.48,4.87 0,13.63 0.06,27.26 -0.02,40.88 -0.42,2.54 -2.55,5.69 -5.51,5.31 -23.02,-0.02 -46.03,0 -69.04,-0.01 -2.26,0.22 -2.71,-2.63 -3.44,-4.17 -0.17,-14.76 0.06,-29.52 -0.11,-44.28 z"
       transform="matrix(2.4871786,0,0,2.8320231,-236.14488,-592.87122)" /><path
       style="fill:#e6e6e6;stroke:#e6e6e6;stroke-width:0.0938"
       inkscape:connector-curvature="0"
       id="path10956"
       d="m 596.96,339.43 c 8.69,-0.5 17.39,-0.12 26.09,-0.24 16.94,0.12 33.9,-0.21 50.84,0.16 8.76,2.82 16.66,8.09 23.17,14.58 4.92,4.78 6.23,11.79 8.5,18 2.12,5.88 0.91,12.36 -1.6,17.9 -7.2401,0.87 -14.65,0.12 -21.96,0.36 -27.03,-0.05 -54.06,0.11 -81.08,-0.08 -2.59,-1.32 -5.51,-3.9 -5.18,-7.09 0.07,-12.67 0.03,-25.35 0.03,-38.02 0,-1.64 0.22,-3.26 0.48,-4.87 l 0.11,-0.66 0.6,-0.04 z"
       transform="matrix(2.4871786,0,0,2.8320231,-236.14488,-592.87122)" /><path
       style="fill:#e6e6e6;stroke:#e6e6e6;stroke-width:0.0938"
       inkscape:connector-curvature="0"
       id="path10958"
       d="m 637.45,425.97 c 0.93,-1.07 1.79,-1.07 2.6,0 -0.86,1.11 -1.72,1.11 -2.6,0 z"
       transform="matrix(2.4871786,0,0,2.8320231,-236.14488,-592.87122)" /><path
       style="fill:#e6e6e6;stroke:#e6e6e6;stroke-width:0.0938"
       inkscape:connector-curvature="0"
       id="path10960"
       d="m 657.8,476.63 c 17.78,0.23 35.59,0.21 53.38,0.05 0.03,41.92 0.13,83.84 -0.06,125.76 -16.92,0.19 -33.85,0.14 -50.77,0.02 0.61,-6.13 0.15,-12.29 0.29,-18.43 -0.12,-35.66 0.23,-71.33 -0.18,-106.98 -0.67,-0.1 -2,-0.32 -2.66,-0.42 z"
       transform="matrix(2.4871786,0,0,2.8320231,-236.14488,-592.87122)" /><path
       style="fill:#e6e6e6;stroke:#e6e6e6;stroke-width:0.0938"
       inkscape:connector-curvature="0"
       id="path10962"
       d="m 194.9,476.74 c 4.54,-0.14 9.11,-0.25 13.62,0.47 13.13,1.87 26.31,4 38.94,8.19 2.81,1.03 5.37,2.6 7.91,4.15 0.64,16.65 1.56,33.28 2.1,49.93 -20.16,0.02 -40.32,0 -60.49,0.01 -1.89,0.23 -3.44,-0.88 -4.99,-1.75 -0.19,-0.11 -0.56,-0.33 -0.75,-0.44 0.14,-9.65 -0.11,-19.3 0.24,-28.94 0.88,-10.57 2.94,-21.01 3.42,-31.62 z"
       transform="matrix(2.4871786,0,0,2.8320231,-236.14488,-592.87122)" /><path
       style="fill:#e6e6e6;stroke:#e6e6e6;stroke-width:0.0938"
       inkscape:connector-curvature="0"
       id="path10964"
       d="m 632.17,476.91 c 8.41,-0.35 16.83,0.1 25.24,-0.28 -0.17,41.95 0.19,83.92 -0.18,125.87 -8.38,0.07 -16.76,0.12 -25.13,-0.07 0.2,-15.82 -0.1,-31.63 0.06,-47.45 -0.59,-6 0.19,-12.01 -0.31,-18.01 0.58,-8.98 -0.56,-17.98 0.27,-26.96 -0.5,-11.02 0.33,-22.06 0.05,-33.1 z"
       transform="matrix(2.4871786,0,0,2.8320231,-236.14488,-592.87122)" /><path
       style="fill:#e6e6e6;stroke:#e6e6e6;stroke-width:0.0938"
       inkscape:connector-curvature="0"
       id="path10966"
       d="m 267.99,487.87 c 23.69,-0.1 47.39,-0.04 71.08,-0.04 2.73,-0.11 5.08,2.44 4.71,5.17 -0.11,11.02 0.38,22.03 0,33.04 -0.15,4.13 1.05,9.04 -2.27,12.28 -2.75,0.86 -5.67,0.82 -8.52,0.87 -19.66,-0.06 -39.32,-0.02 -58.99,0 -2.42,0 -4.82,-0.32 -7.21,-0.63 -0.12,-1.58 -1.17,-2.89 -1.23,-4.45 -0.15,-14.49 0.12,-28.98 -0.13,-43.47 0.84,-0.93 1.71,-1.85 2.56,-2.77 z"
       transform="matrix(2.4871786,0,0,2.8320231,-236.14488,-592.87122)" /><path
       style="fill:#e6e6e6;stroke:#e6e6e6;stroke-width:0.0938"
       inkscape:connector-curvature="0"
       id="path10968"
       d="m 350.84,488.87 c 1.37,-0.45 2.67,-1.34 4.18,-1.21 22.64,0.02 45.27,0.01 67.91,0.01 1.55,-0.2 2.91,0.52 4.24,1.22 0.75,1.26 1.42,2.58 1.24,4.12 0.03,14.03 -0.01,28.05 -0.01,42.08 -1.18,1.64 -2.47,3.21 -4.16,4.34 -23.81,-0.24 -47.63,-0.05 -71.44,-0.1 -1.75,-1.08 -2.37,-3.41 -3.08,-5.24 -0.01,-11.7 -0.01,-23.4 0,-35.1 0.09,-3.41 -0.57,-6.98 1.12,-10.12 z"
       transform="matrix(2.4871786,0,0,2.8320231,-236.14488,-592.87122)" /><path
       style="fill:#e6e6e6;stroke:#e6e6e6;stroke-width:0.0938"
       inkscape:connector-curvature="0"
       id="path10970"
       d="m 434.86,488.86 c 1.36,-0.44 2.64,-1.33 4.13,-1.19 22.67,0 45.35,0.01 68.03,-0.01 1.45,-0.13 2.74,0.69 4.09,1.13 0.64,1.32 1.43,2.66 1.26,4.21 0.01,13.31 -0.01,26.62 0.03,39.93 0.11,2.77 -1.98,5.04 -4.13,6.5 -23.84,-0.17 -47.7,-0.22 -71.54,0.02 -2.08,-1.46 -2.96,-4.03 -3.05,-6.47 0.02,-13.33 0.04,-26.67 0,-40 -0.21,-1.52 0.49,-2.84 1.18,-4.12 z"
       transform="matrix(2.4871786,0,0,2.8320231,-236.14488,-592.87122)" /><path
       style="fill:#e6e6e6;stroke:#e6e6e6;stroke-width:0.0938"
       inkscape:connector-curvature="0"
       id="path10972"
       d="m 517.54,489.92 c 1.08,-0.79 2.18,-1.56 3.3,-2.32 23.78,0.11 47.58,0.13 71.37,-0.01 1.54,1.08 3.83,2.09 3.46,4.41 0.07,13.64 0.04,27.29 0.02,40.93 0.07,2.76 -1.55,6.12 -4.63,6.37 -23.74,0.07 -47.49,-0.02 -71.23,0.04 -1.2,-1.57 -2.61,-3.26 -2.38,-5.38 0.03,-14.68 -0.14,-29.36 0.09,-44.04 z"
       transform="matrix(2.4871786,0,0,2.8320231,-236.14488,-592.87122)" /><path
       style="fill:#90333d;stroke:#90333d;stroke-width:0.0938"
       inkscape:connector-curvature="0"
       id="path10974"
       d="m 729.17,389.79 c 4.61,13.85 4.55,28.68 5.2,43.12 0.62,23.38 0.58,46.77 -0.05,70.15 -0.29,5.15 0.17,10.36 -0.63,15.47 -0.54,-1.8101 -1.01,-3.66 -0.85,-5.55 0.56,-12.66 0.16,-25.33 0.5,-37.99 -0.26,-6.57 0.61,-13.23 -0.82,-19.72 0.38,-0.3 1.13,-0.92 1.51,-1.23 0.53,-2.05 0.55,-4.18 0.15,-6.25 -0.28,-0.26 -0.83,-0.79 -1.11,-1.05 0.35,-11.06 0.13,-22.18 -1.42,-33.15 -0.77,-4.91 0.12,-10.01 -1.48,-14.78 -0.97,-2.91 -1.47,-5.98 -1,-9.02 z"
       transform="matrix(2.4871786,0,0,2.8320231,-236.14488,-592.87122)" /><path
       style="fill:#010000;stroke:#010000;stroke-width:0.0938"
       inkscape:connector-curvature="0"
       id="path10976"
       d="m 620.77,396.7 c 2.69,-0.58 5.43,-1.04 8.2,-0.94 20.01,0.15 40.03,-0.16 60.04,0.16 3.12,0.67 8.05,-1 9.4,2.95 0.52,13.63 -0.0699,27.3 0.31,40.94 -0.7599,1.72 -1.49,4.06 -3.84,3.79 -24.5,0.16 -49.02,0.16 -73.53,-0.02 -0.85,-1.78 -2.05,-3.53 -1.79,-5.6 -0.01,-11.66 0.03,-23.32 -0.02,-34.99 -0.13,-2.18 0.49,-4.27 1.23,-6.29 m 30.34,6.32 c 2.14,-0.14 2.61,-3.87 5.21,-2.06 2.13,4.53 -5.19,5.75 -5.67,9.92 2.64,-0.15 5.43,0.47 7.98,-0.34 -0.31,-2.34 -4.18,-0.31 -5.67,-1.03 1.41,-1.84 3.45,-3.07 4.84,-4.92 1.32,-1.73 0.43,-4.78 -1.85,-5.08 -2.37,-0.81 -5.03,0.92 -4.84,3.51 m 10.39,1.7 c -3.39,1.8 -1.12,7.12 2.5,6.41 3.65,-0.07 4.44,-4.9 1.71,-6.82 2.6,-1.15 0.82,-5.08 -1.65,-4.91 -3.06,-0.72 -5.16,3.39 -2.56,5.32 m -27.61,11.15 c 0.31,1.5 0.25,3.78 1.91,4.53 l 0.45,-1.29 c 1.45,1.27 3.46,1.19 5.25,1.58 0.38,-1.14 0.41,-2.31 -0.29,-3.33 0.36,-0.34 1.08,-1.03 1.44,-1.37 -2.23,-0.36 -4.52,1.1 -6.62,-0.02 -0.1,0.55 -0.29,1.67 -0.38,2.23 -0.3,-1.07 -0.88,-1.85 -1.76,-2.33 m 9.31,0.46 c -0.27,1.9 2.41,2.52 1.19,4.58 1.88,-0.83 1.46,-2.78 0.92,-4.39 2.03,0 2.75,1.07 2.15,3.21 0.25,-0.01 0.75,-0.01 1,-0.01 -0.54,-1.61 -0.08,-2.74 1.39,-3.4 -2.22,-0.16 -4.44,-0.1 -6.65,0.01 m 7.83,-0.58 c 0.34,1.45 -0.96,3.94 0.81,4.69 l 0.42,-1.65 c 0.94,0.53 1.87,1.1 2.8,1.7 0.37,-0.34 1.12,-1.03 1.5,-1.38 0.86,1.33 2.41,1.21 3.8,1.23 0.2,0.3 0.6,0.9 0.8,1.19 l 0.06,-1.42 c 2.9301,1.54 4.4,-3.65 7.34,-1.09 0.21,-0.79 0.63,-2.36 0.84,-3.14 -0.7,0.22 -2.1,0.65 -2.81,0.87 -1.76,-1.17 -5.69,-1.51 -5.9,1.3 l -0.76,-0.08 c -0.04,-0.43 -0.14,-1.27 -0.18,-1.7 l -0.76,0.06 c -0.96,1.24 -1.95,0.19 -2.88,-0.47 -0.16,0.52 -0.49,1.56 -0.65,2.08 -0.4901,-2.33 -1.78,-1.45 -3.03,-0.29 -0.35,-0.48 -1.05,-1.43 -1.4,-1.9 m 19.02,0.18 c 0.95,1.33 1.06,2.95 1.13,4.54 1.78,-0.71 -0.36,-3.9 2.18,-3.76 -0.04,0.76 -0.12,2.29 -0.17,3.05 0.71,-0.06 2.11,-0.18 2.81,-0.23 -0.36,-1.02 -1.36,-1.51 -2.13,-2.14 0.47,-0.1 1.4,-0.31 1.87,-0.41 l 0.43,-0.76 c -2.05,0 -4.09,-0.08 -6.12,-0.29 m 6.58,4.54 c 0.49,-0.37 1.47,-1.12 1.97,-1.49 1.09,1.99 3.42,1.34 5.22,1 0.16,-1.25 0.06,-2.47 -0.3,-3.66 -1.88,-0.73 -3.03,-0.26 -3.43,1.4 0.73,-0.18 2.2,-0.54 2.93,-0.73 -0.02,0.63 -0.06,1.88 -0.08,2.51 -1.87,-0.51 -3.79,-1.63 -4.33,-3.62 -1.02,1.32 -2.2,2.79 -1.98,4.59 m -9.33,-1.21 c 0.52,0.69 0.52,0.69 0,0 m 1.9,-0.03 c 0.58,0.63 0.58,0.63 0,0 m -40.11,6.19 c 0.06,1.05 0.1299,2.12 0.21,3.19 2.65,0 5.28,0.62 7.95,0.46 l -0.02,-1.01 c -1.38,-0.18 -1.92,-1.08 -1.63,-2.72 -0.72,-0.15 -2.17,-0.45 -2.9,-0.6 0.07,0.79 0.21,2.37 0.28,3.15 l -1,0.11 c 0.07,-0.77 0.2,-2.3 0.26,-3.06 -0.79,0.12 -2.36,0.36 -3.15,0.48 m 8.36,0.55 c 0.88,1.11 1.74,1.11 2.6,0 -0.81,-1.07 -1.67,-1.07 -2.6,0 m 3.38,-0.93 c 0.09,2.18 -1.57,3.31 -3.65,2.38 l 0.53,1.53 c 2,-0.43 4.03,-0.54 6.0099,0.07 0.28,-0.39 0.84,-1.17 1.11,-1.56 0.21,0.3 0.62,0.91 0.83,1.21 1.02,-1.15 1.13,-2.36 0.33,-3.62 l -0.47,0.16 c -0.51,0.08 -1.52,0.24 -2.03,0.32 0.49,1.77 -0.06,2.63 -1.65,2.57 0.01,-0.77 0.02,-2.33 0.02,-3.1 l -1.0299,0.04 m 6.41,0.11 c -0.68,1.36 -0.49,2.36 0.59,2.98 0.75,-1.43 0.55,-2.42 -0.59,-2.98 m 1.55,-0.39 c 0.11,0.69 0.35,2.07 0.47,2.76 1.15,0.11 2.07,0.67 2.75,1.69 -0.08,-1.44 -0.14,-2.87 -0.18,-4.3 -0.35,0.28 -1.05,0.85 -1.4,1.13 -0.41,-0.32 -1.23,-0.96 -1.64,-1.28 m 5.32,0.22 c 0.01,1.38 0.02,2.77 0.02,4.17 0.39,-0.5 1.17,-1.48 1.56,-1.97 0.32,0.46 0.96,1.4 1.28,1.87 -0.77,-1.41 -0.78,-2.75 -0.01,-4.05 l -0.86,-0.2 -0.23,1.34 c -0.4401,-0.29 -1.3201,-0.87 -1.7601,-1.16 m 3.63,-0.25 c -0.04,1.47 -0.07,2.93 -0.1,4.41 1.93,-0.25 4.44,0.14 4.98,-2.26 0.23,2.83 3.59,1.57 5.49,1.96 0.06,-0.49 0.17,-1.49 0.22,-1.98 l -1.4,-0.26 -0.18,1.41 -1.52,-0.14 c 0.55,-1.52 2.71,-1.29 3.2,-2.84 -2.65,-0.01 -5.36,1.27 -7.85,-0.17 0.08,0.84 0.25,2.52 0.34,3.35 -0.46,-0.04 -1.38,-0.13 -1.84,-0.17 0.59,-1.67 1.46,-3.7 -1.34,-3.31 m 11.64,0.57 c -0.03,1.23 -0.01,2.46 0.05,3.69 1.42,0.03 1,-1.9 2.33,-2.06 l 0.26,1.74 1.52,-0.26 c -0.95,-1.28 -2.12,-4.2 -4.16,-3.11 m 3.8,0.18 c -1.4,3.39 5.12,5.13 4.79,1.39 -1.03,0.4 -2.06,0.81 -3.0699,1.24 0,-0.57 0.01,-1.7 0.01,-2.27 0.67,0.15 2.01,0.45 2.6801,0.6 l -0.2401,-1.41 c -1.4,0.14 -2.79,0.29 -4.17,0.45 m 5.15,-0.67 c 0.45,1.46 0.59,3.07 1.45,4.38 0,-0.79 -0.02,-2.36 -0.03,-3.15 l 1.45,-0.55 c -1.1,3.34 2.14,3.69 4.43,3.06 0.01,-0.43 0.03,-1.29 0.05,-1.72 1.06,0.64 2.05,1.46 3.02,2.26 0.08,-1.47 0.13,-2.94 0.16,-4.41 -0.25,0.51 -0.76,1.53 -1.01,2.04 l -0.99,0 -0.12,-1.4 c -2.82,0.15 -5.66,0.14 -8.41,-0.51 m -41.18,8.44 c 0.38,1.56 0.73,3.13 1.06,4.72 0.93,-2.59 3.88,-0.65 5.86,-1.45 1.72,1.35 5.66,2.32 6.22,-0.66 0.7,0.53 1.4,1.08 2.1,1.65 1.21,-1.04 2.45,-1.2 3.63,0.11 0.88,-2.46 3.02,0.57 4.37,-1.24 0.02,-1.18 0.01,-2.48 -0.96,-3.29 -0.36,0.99 -0.71,1.98 -1.04,2.99 -0.54,-0.96 -0.48,-2.43 -1.66,-2.87 -0.31,0.63 -0.95,1.88 -1.26,2.51 -0.23,-0.62 -0.68,-1.86 -0.91,-2.48 -1.37,0.62 -1.41,2.5 -2.32,3.57 -0.06,-0.71 -0.19,-2.15 -0.25,-2.87 -0.34,0.4 -1.03,1.19 -1.38,1.59 -0.46,-0.85 -0.91,-1.69 -1.35,-2.53 -0.19,1.52 -0.34,3.04 -0.45,4.57 -2.36,-0.27 -1.72,-2.96 -2.27,-4.64 -0.34,1.24 -0.74,2.48 -1.2,3.69 -0.3701,-0.87 -1.13,-2.63 -1.5,-3.51 -0.26,0.76 -0.78,2.28 -1.03,3.05 -0.31,-0.46 -0.94,-1.38 -1.25,-1.84 -1.6,-0.43 -3.54,1.08 -4.41,-1.07 m 24.83,0.88 c 0.01,0.68 0.03,2.05 0.04,2.74 0.52,0.3 1.55,0.91 2.07,1.22 1.25,-0.53 2.47,-1.13 3.66,-1.79 1.43,1.17 4.1,2.45 5.61,0.96 -0.56,-0.09 -1.7,-0.27 -2.27,-0.35 l 0.02,-0.74 c 0.55,0 1.65,0 2.2,0 l -0.05,-1.24 c -0.6,-0.13 -1.79,-0.37 -2.39,-0.5 0.64,-0.33 1.9,-0.99 2.53,-1.32 -1.82,-0.06 -3.66,0.82 -5.42,0.05 -2.04,1.18 -4.22,-0.96 -6,0.97 m 12.33,3.63 c 1.69,-0.22 4.31,0.3 3.33,-2.54 1.36,0.33 1.97,1.75 2.95,2.65 0.09,-1.66 0.1299,-3.33 0.17,-4.98 -0.38,1.03 -0.88,2 -1.5,2.89 -0.34,-0.6 -1,-1.81 -1.34,-2.41 -0.51,3.15 -3.99,2.21 -2.16,-0.52 -2.42,0.29 -1.37,3.26 -1.45,4.91 z"
       transform="matrix(2.4871786,0,0,2.8320231,-236.14488,-592.87122)" /><path
       style="fill:#010000;stroke:#010000;stroke-width:0.0938"
       inkscape:connector-curvature="0"
       id="path10978"
       d="m 682.22,426.18 c 1.6801,-0.51 2.25,0.03 1.72,1.61 -1.68,0.52 -2.26,-0.02 -1.72,-1.61 z"
       transform="matrix(2.4871786,0,0,2.8320231,-236.14488,-592.87122)" /><path
       style="fill:#010000;stroke:#010000;stroke-width:0.0938"
       inkscape:connector-curvature="0"
       id="path10980"
       d="m 675.26,436.14 c 3.17,-1.5 0.17,3.18 0,0 z"
       transform="matrix(2.4871786,0,0,2.8320231,-236.14488,-592.87122)" /><path
       style="fill:#010101;stroke:#010101;stroke-width:0.0938"
       inkscape:connector-curvature="0"
       id="path10982"
       d="m 662.2,401.13 c 1.28,-1.5 4.17,0.19 3.07,1.92 -0.85,2.59 -5.02,0.1 -3.07,-1.92 z"
       transform="matrix(2.4871786,0,0,2.8320231,-236.14488,-592.87122)" /><path
       style="fill:#010101;stroke:#010101;stroke-width:0.0938"
       inkscape:connector-curvature="0"
       id="path10984"
       d="m 662.57,405.55 c 2.67,-1.63 4.9,3.24 1.91,4.17 -2.53,1.16 -4.63,-3.01 -1.91,-4.17 z"
       transform="matrix(2.4871786,0,0,2.8320231,-236.14488,-592.87122)" /><path
       style="fill:#6b6b6b;stroke:#6b6b6b;stroke-width:0.0938"
       inkscape:connector-curvature="0"
       id="path11046"
       d="m 633.89,415.87 c 0.88,0.48 1.46,1.26 1.76,2.33 0.09,-0.56 0.28,-1.68 0.38,-2.23 2.1,1.12 4.39,-0.34 6.62,0.02 -0.36,0.34 -1.08,1.03 -1.44,1.37 0.7,1.02 0.67,2.19 0.29,3.33 -1.79,-0.39 -3.8,-0.31 -5.25,-1.58 l -0.45,1.29 c -1.66,-0.75 -1.6,-3.03 -1.91,-4.53 z"
       transform="matrix(2.4871786,0,0,2.8320231,-236.14488,-592.87122)" /><path
       style="fill:#c0bfc0;stroke:#c0bfc0;stroke-width:0.0938"
       inkscape:connector-curvature="0"
       id="path11048"
       d="m 643.2,416.33 c 2.21,-0.11 4.43,-0.17 6.65,-0.01 -1.47,0.66 -1.93,1.79 -1.39,3.4 -0.25,0 -0.75,0 -1,0.01 0.6,-2.14 -0.12,-3.21 -2.15,-3.21 0.54,1.61 0.96,3.56 -0.92,4.39 1.22,-2.06 -1.46,-2.68 -1.19,-4.58 z"
       transform="matrix(2.4871786,0,0,2.8320231,-236.14488,-592.87122)" /><path
       style="fill:#c0bfc0;stroke:#c0bfc0;stroke-width:0.0938"
       inkscape:connector-curvature="0"
       id="path11050"
       d="m 648.79,424.76 c 0.41,0.32 1.23,0.96 1.64,1.28 0.35,-0.28 1.05,-0.85 1.4,-1.13 0.04,1.43 0.1,2.86 0.18,4.3 -0.68,-1.02 -1.6,-1.58 -2.75,-1.69 -0.12,-0.69 -0.36,-2.07 -0.47,-2.76 z"
       transform="matrix(2.4871786,0,0,2.8320231,-236.14488,-592.87122)" /><path
       style="fill:#c0bfc0;stroke:#c0bfc0;stroke-width:0.0938"
       inkscape:connector-curvature="0"
       id="path11052"
       d="m 654.11,424.98 c 0.44,0.29 1.32,0.87 1.76,1.16 l 0.23,-1.34 0.86,0.2 c -0.77,1.3 -0.76,2.64 0.01,4.05 -0.3199,-0.47 -0.96,-1.41 -1.28,-1.87 -0.39,0.49 -1.17,1.47 -1.56,1.97 10e-5,-1.4 -0.01,-2.79 -0.0199,-4.17 z"
       transform="matrix(2.4871786,0,0,2.8320231,-236.14488,-592.87122)" /><path
       style="fill:#c0bfc0;stroke:#c0bfc0;stroke-width:0.0938"
       inkscape:connector-curvature="0"
       id="path11054"
       d="m 669.38,425.3 c 2.04,-1.09 3.21,1.83 4.16,3.11 l -1.52,0.26 -0.26,-1.74 c -1.33,0.16 -0.91,2.09 -2.33,2.06 -0.06,-1.23 -0.08,-2.46 -0.05,-3.69 z"
       transform="matrix(2.4871786,0,0,2.8320231,-236.14488,-592.87122)" /><path
       style="fill:#c0bfc0;stroke:#c0bfc0;stroke-width:0.0938"
       inkscape:connector-curvature="0"
       id="path11056"
       d="m 678.33,424.81 c 2.75,0.65 5.59,0.66 8.41,0.51 l 0.12,1.4 0.99,0 c 0.25,-0.51 0.76,-1.53 1.01,-2.04 -0.03,1.47 -0.08,2.94 -0.16,4.41 -0.97,-0.8 -1.96,-1.62 -3.02,-2.26 -0.02,0.43 -0.04,1.29 -0.05,1.72 -2.29,0.63 -5.53,0.28 -4.43,-3.06 l -1.45,0.55 c 0.01,0.79 0.03,2.36 0.03,3.15 -0.86,-1.31 -1,-2.92 -1.45,-4.38 m 3.89,1.37 c -0.54,1.59 0.04,2.13 1.72,1.61 0.53,-1.58 -0.04,-2.12 -1.72,-1.61 z"
       transform="matrix(2.4871786,0,0,2.8320231,-236.14488,-592.87122)" /><path
       style="fill:#c0bfc0;stroke:#c0bfc0;stroke-width:0.0938"
       inkscape:connector-curvature="0"
       id="path11058"
       d="m 674.31,437.76 c 0.08,-1.65 -0.97,-4.62 1.45,-4.91 -1.83,2.73 1.65,3.67 2.16,0.52 0.34,0.6 1,1.81 1.34,2.41 0.62,-0.89 1.12,-1.86 1.5,-2.89 -0.04,1.65 -0.08,3.32 -0.17,4.98 -0.98,-0.9 -1.59,-2.32 -2.95,-2.65 0.98,2.84 -1.64,2.32 -3.33,2.54 m 0.95,-1.62 c 0.17,3.18 3.17,-1.5 0,0 z"
       transform="matrix(2.4871786,0,0,2.8320231,-236.14488,-592.87122)" /><path
       style="fill:#6f6f6f;stroke:#6f6f6f;stroke-width:0.0938"
       inkscape:connector-curvature="0"
       id="path11060"
       d="m 651.03,415.75 c 0.35,0.47 1.05,1.42 1.4,1.9 1.25,-1.16 2.54,-2.04 3.03,0.29 0.16,-0.52 0.49,-1.56 0.65,-2.08 0.93,0.66 1.92,1.71 2.88,0.47 0.06,0.39 0.17,1.17 0.23,1.56 l 0.71,0.08 0.76,0.08 c 0.21,-2.81 4.14,-2.47 5.9,-1.3 0.71,-0.22 2.11,-0.65 2.81,-0.87 -0.21,0.78 -0.63,2.35 -0.84,3.14 -2.94,-2.56 -4.41,2.63 -7.34,1.09 l -0.06,1.42 c -0.2,-0.29 -0.6,-0.89 -0.8,-1.19 -1.39,-0.02 -2.94,0.1 -3.8,-1.23 -0.38,0.35 -1.13,1.04 -1.5,1.38 -0.93,-0.6 -1.86,-1.17 -2.8,-1.7 l -0.42,1.65 c -1.77,-0.75 -0.47,-3.24 -0.81,-4.69 m 13.21,1.47 c 0.57,0.65 0.57,0.65 0,0 z"
       transform="matrix(2.4871786,0,0,2.8320231,-236.14488,-592.87122)" /><path
       style="fill:#6f6f6f;stroke:#6f6f6f;stroke-width:0.0938"
       inkscape:connector-curvature="0"
       id="path11062"
       d="m 657.41,476.63 0.39,0 c 0.66,0.1 1.99,0.32 2.66,0.42 0.41,35.65 0.06,71.32 0.18,106.98 -0.14,6.14 0.32,12.3 -0.29,18.43 -1.06,-0.02 -2.08,0.02 -3.12,0.04 0.37,-41.95 0.01,-83.92 0.18,-125.87 z"
       transform="matrix(2.4871786,0,0,2.8320231,-236.14488,-592.87122)" /><path
       style="fill:#a0a0a0;stroke:#a0a0a0;stroke-width:0.0938"
       inkscape:connector-curvature="0"
       id="path11064"
       d="m 658.99,416.33 0.76,-0.06 c 0.04,0.43 0.14,1.27 0.18,1.7 l -0.71,-0.08 c -0.06,-0.39 -0.17,-1.17 -0.23,-1.56 z"
       transform="matrix(2.4871786,0,0,2.8320231,-236.14488,-592.87122)" /><path
       style="fill:#a2a2a2;stroke:#a2a2a2;stroke-width:0.0938"
       inkscape:connector-curvature="0"
       id="path11066"
       d="m 670.05,415.93 c 2.03,0.21 4.07,0.29 6.12,0.29 l -0.43,0.76 c -0.47,0.1 -1.4,0.31 -1.87,0.41 0.77,0.63 1.77,1.12 2.13,2.14 -0.7,0.05 -2.1,0.17 -2.81,0.23 0.05,-0.76 0.13,-2.29 0.17,-3.05 -2.54,-0.14 -0.4,3.05 -2.18,3.76 -0.07,-1.59 -0.18,-3.21 -1.13,-4.54 z"
       transform="matrix(2.4871786,0,0,2.8320231,-236.14488,-592.87122)" /><path
       style="fill:#a2a2a2;stroke:#a2a2a2;stroke-width:0.0938"
       inkscape:connector-curvature="0"
       id="path11068"
       d="m 676.63,420.47 c -0.22,-1.8 0.96,-3.27 1.98,-4.59 0.54,1.99 2.46,3.11 4.33,3.62 0.02,-0.63 0.06,-1.88 0.08,-2.51 -0.73,0.19 -2.2,0.55 -2.93,0.73 0.4,-1.66 1.55,-2.13 3.43,-1.4 0.36,1.19 0.46,2.41 0.3,3.66 -1.8,0.34 -4.13,0.99 -5.22,-1 -0.5,0.37 -1.48,1.12 -1.97,1.49 z"
       transform="matrix(2.4871786,0,0,2.8320231,-236.14488,-592.87122)" /><path
       style="fill:#a2a2a2;stroke:#a2a2a2;stroke-width:0.0938"
       inkscape:connector-curvature="0"
       id="path11070"
       d="m 640.83,425.04 1.03,-0.04 c 0,0.77 -0.01,2.33 -0.02,3.1 1.59,0.06 2.14,-0.8 1.65,-2.57 0.51,-0.08 1.52,-0.24 2.03,-0.32 -0.17,0.57 -0.51,1.69 -0.69,2.25 -0.27,0.39 -0.83,1.17 -1.11,1.56 -1.98,-0.61 -4.0099,-0.5 -6.0099,-0.07 l -0.53,-1.53 c 2.0799,0.93 3.7399,-0.2 3.6499,-2.38 z"
       transform="matrix(2.4871786,0,0,2.8320231,-236.14488,-592.87122)" /><path
       style="fill:#a2a2a2;stroke:#a2a2a2;stroke-width:0.0938"
       inkscape:connector-curvature="0"
       id="path11072"
       d="m 657.74,424.73 c 2.8,-0.39 1.93,1.64 1.34,3.31 0.46,0.04 1.38,0.13 1.84,0.17 -0.09,-0.83 -0.26,-2.51 -0.34,-3.35 2.49,1.44 5.2,0.16 7.85,0.17 -0.49,1.55 -2.65,1.32 -3.2,2.84 l 1.52,0.14 0.18,-1.41 1.4,0.26 c -0.05,0.49 -0.16,1.49 -0.22,1.98 -1.9,-0.39 -5.26,0.87 -5.49,-1.96 -0.54,2.4 -3.05,2.01 -4.98,2.26 0.03,-1.48 0.06,-2.94 0.1,-4.41 z"
       transform="matrix(2.4871786,0,0,2.8320231,-236.14488,-592.87122)" /><path
       style="fill:#a2a2a2;stroke:#a2a2a2;stroke-width:0.0938"
       inkscape:connector-curvature="0"
       id="path11074"
       d="m 673.18,425.48 c 1.38,-0.16 2.77,-0.31 4.17,-0.45 l 0.2401,1.41 c -0.67,-0.15 -2.01,-0.45 -2.6801,-0.6 0,0.57 -0.01,1.7 -0.01,2.27 1.0099,-0.43 2.04,-0.84 3.0699,-1.24 0.33,3.74 -6.19,2 -4.79,-1.39 z"
       transform="matrix(2.4871786,0,0,2.8320231,-236.14488,-592.87122)" /><path
       style="fill:#a2a2a2;stroke:#a2a2a2;stroke-width:0.0938"
       inkscape:connector-curvature="0"
       id="path11076"
       d="m 637.15,433.25 c 0.87,2.15 2.81,0.64 4.41,1.07 0.31,0.46 0.94,1.38 1.25,1.84 0.25,-0.77 0.77,-2.29 1.03,-3.05 0.37,0.88 1.1299,2.64 1.5,3.51 0.46,-1.21 0.86,-2.45 1.2,-3.69 0.55,1.68 -0.09,4.37 2.27,4.64 0.11,-1.53 0.26,-3.05 0.45,-4.57 0.44,0.84 0.89,1.68 1.35,2.53 0.35,-0.4 1.04,-1.19 1.38,-1.59 0.06,0.72 0.19,2.16 0.25,2.87 0.91,-1.07 0.95,-2.95 2.32,-3.57 0.23,0.62 0.68,1.86 0.91,2.48 0.3101,-0.63 0.95,-1.88 1.26,-2.51 1.18,0.44 1.12,1.91 1.66,2.87 0.33,-1.01 0.68,-2 1.04,-2.99 0.97,0.81 0.98,2.11 0.96,3.29 -1.35,1.81 -3.49,-1.22 -4.37,1.24 -1.18,-1.31 -2.42,-1.15 -3.63,-0.11 -0.7,-0.57 -1.4,-1.12 -2.1,-1.65 -0.56,2.98 -4.5,2.01 -6.22,0.66 -1.98,0.8 -4.93,-1.14 -5.86,1.45 -0.33,-1.59 -0.68,-3.16 -1.06,-4.72 z"
       transform="matrix(2.4871786,0,0,2.8320231,-236.14488,-592.87122)" /><path
       style="fill:#686868;stroke:#686868;stroke-width:0.0938"
       inkscape:connector-curvature="0"
       id="path11088"
       d="m 629.09,425.42 c 0.79,-0.12 2.36,-0.36 3.15,-0.48 -0.06,0.76 -0.19,2.29 -0.26,3.06 l 1,-0.11 c -0.07,-0.78 -0.21,-2.36 -0.28,-3.15 0.73,0.15 2.18,0.45 2.9,0.6 -0.29,1.64 0.25,2.54 1.63,2.72 l 0.02,1.01 c -2.67,0.16 -5.3,-0.46 -7.95,-0.46 -0.08,-1.07 -0.15,-2.14 -0.21,-3.19 z"
       transform="matrix(2.4871786,0,0,2.8320231,-236.14488,-592.87122)" /><path
       style="fill:#a7a7a7;stroke:#a7a7a7;stroke-width:0.0938"
       inkscape:connector-curvature="0"
       id="path11090"
       d="m 645.52,425.21 0.47,-0.16 c 0.8,1.26 0.69,2.47 -0.33,3.62 -0.21,-0.3 -0.62,-0.91 -0.83,-1.21 0.18,-0.56 0.52,-1.68 0.69,-2.25 z"
       transform="matrix(2.4871786,0,0,2.8320231,-236.14488,-592.87122)" /><path
       style="fill:#a1a1a1;stroke:#a1a1a1;stroke-width:0.0938"
       inkscape:connector-curvature="0"
       id="path11092"
       d="m 647.24,425.15 c 1.14,0.56 1.34,1.55 0.59,2.98 -1.08,-0.62 -1.27,-1.62 -0.59,-2.98 z"
       transform="matrix(2.4871786,0,0,2.8320231,-236.14488,-592.87122)" /><path
       style="fill:#757074;stroke:#757074;stroke-width:0.0938"
       inkscape:connector-curvature="0"
       id="path11094"
       d="m 661.98,434.13 c 1.78,-1.93 3.96,0.21 6,-0.97 1.76,0.77 3.6,-0.11 5.42,-0.05 -0.63,0.33 -1.89,0.99 -2.53,1.32 0.6,0.13 1.79,0.37 2.39,0.5 l 0.05,1.24 c -0.55,0 -1.65,0 -2.2,0 l -0.02,0.74 c 0.5699,0.08 1.71,0.26 2.27,0.35 -1.51,1.49 -4.18,0.21 -5.61,-0.96 -1.19,0.66 -2.41,1.26 -3.66,1.79 -0.52,-0.31 -1.55,-0.92 -2.07,-1.22 -0.01,-0.69 -0.03,-2.06 -0.04,-2.74 z"
       transform="matrix(2.4871786,0,0,2.8320231,-236.14488,-592.87122)" /><path
       style="fill:#83353b;stroke:#83353b;stroke-width:0.0938"
       inkscape:connector-curvature="0"
       id="path11096"
       d="m 220.49,443 c 7.18,-0.24 14.36,-0.07 21.53,-0.12 116.11,0.05 232.23,-0.08 348.34,0.07 -1.37,0.71 -2.76,1.45 -4.34,1.33 -119.33,-0.01 -238.67,0.06 -358,-0.01 -2.57,0.04 -5.29,0.25 -7.53,-1.27 z"
       transform="matrix(2.4871786,0,0,2.8320231,-236.14488,-592.87122)" /><path
       style="fill:#d4b677;stroke:#d4b677;stroke-width:0.0938"
       inkscape:connector-curvature="0"
       id="path11098"
       d="m 168.15,447.82 c 77.61,-0.16 155.22,-0.01 232.83,-0.07 111.07,0.04 222.14,-0.06 333.2,0.04 0.4,2.07 0.38,4.2 -0.15,6.25 -108.69,0.18 -217.3701,0.02 -326.06,0.08 -79.62,-0.05 -159.24,0.07 -238.85,-0.07 l -1.56,-0.24 c 0.01,-2.02 0.25,-4.01 0.59,-5.99 z"
       transform="matrix(2.4871786,0,0,2.8320231,-236.14488,-592.87122)" /><path
       style="fill:#8e2e33;stroke:#8e2e33;stroke-width:0.0938"
       inkscape:connector-curvature="0"
       id="path11100"
       d="m 167.56,453.81 1.56,0.24 c 0.1,4.57 -0.8,9.08 -0.84,13.65 2.65,3.15 6.89,3.63 10.75,3.37 3.43,-0.64 5.72,2.88 5.79,5.91 0.3,5.34 0.01,10.69 0.03,16.03 -0.28,13.54 0.52,27.12 -0.2,40.64 -2.37,3.3199 -5.94,5.52 -9.3,7.72 -2.19,1.5 -4.97,2.3 -6.5,4.6 -1.59,2.42 -4.61,3.88 -5.1,6.95 -0.67,3.75 -2.19,7.31 -2.78,11.07 -0.45,12.34 -0.33,24.71 0.03,37.05 0.89,4.48 2.9,8.94 1.5,13.6 -1.91,-3.6 -2.06,-7.75 -2.59,-11.69 -0.88,-13.97 -1.97,-28.06 0.18,-41.97 1.04,-7.59 4.08,-15.94 11.38,-19.55 4.56,-2.15 9.4,-4.73 11.9,-9.31 0.04,-18.39 -0.01,-36.78 0.02,-55.17 0.37,-2.42 -1.84,-4.2 -4,-4.58 -4.3,-0.83 -8.84,-0.24 -12.96,-1.95 0.11,-5.56 1.15,-11.05 1.13,-16.61 z"
       transform="matrix(2.4871786,0,0,2.8320231,-236.14488,-592.87122)" /><path
       style="fill:#984f53;stroke:#984f53;stroke-width:0.0938"
       inkscape:connector-curvature="0"
       id="path11102"
       d="m 706.94,475.44 c 1.36,0.07 2.62,-0.51 3.87,-1 0.35,0.5 1.05,1.49 1.4,1.99 -0.26,0.06 -0.78,0.18 -1.03,0.25 -17.79,0.16 -35.6,0.18 -53.38,-0.05 l -0.39,0 c -8.41,0.38 -16.83,-0.07 -25.24,0.28 0.28,11.04 -0.55,22.08 -0.05,33.1 -0.83,8.98 0.31,17.98 -0.27,26.96 0.5,6 -0.28,12.01 0.31,18.01 -0.16,15.82 0.14,31.63 -0.06,47.45 -0.33,0.26 -0.98,0.79 -1.31,1.06 -0.1,-0.62 -0.32,-1.85 -0.42,-2.47 -0.06,-40.33 0.04,-80.67 -0.07,-121 0.12,-1.41 -0.25,-2.99 0.48,-4.27 1.98,-0.75 4.18,-0.29 6.2599,-0.38 23.3001,0.1 46.6001,-0.06 69.9001,0.07 z"
       transform="matrix(2.4871786,0,0,2.8320231,-236.14488,-592.87122)" /><path
       style="fill:#935654;stroke:#935654;stroke-width:0.0938"
       inkscape:connector-curvature="0"
       id="path11104"
       d="m 193.88,475.88 c 3.32,-1.45 7.44,-0.2 11.06,-0.49 6.95,-0.47 13.61,2.12 20.51,2.26 9.74,2.86 20.19,3.8 29.13,8.91 2.8,1.52 2.18,5.21 2.85,7.86 0.05,10.2 1.16,20.37 0.9,30.59 -0.23,4.68 0.96,9.29 0.82,13.97 -0.79,2.62 -4.06,2.04 -6.17,2.26 -18.32,-0.05 -36.64,0.06 -54.96,-0.06 -2.26,-0.15 -6.2,-0.25 -6.03,-3.44 1.55,0.87 3.1,1.98 4.99,1.75 20.17,-0.01 40.33,0.01 60.49,-0.01 -0.54,-16.65 -1.46,-33.28 -2.1,-49.93 -2.54,-1.55 -5.1,-3.12 -7.91,-4.15 -12.63,-4.19 -25.81,-6.32 -38.94,-8.19 -4.51,-0.72 -9.08,-0.61 -13.62,-0.47 -0.48,10.61 -2.54,21.05 -3.42,31.62 -0.35,9.64 -0.1,19.29 -0.24,28.94 -0.38,-0.3 -1.14,-0.9 -1.52,-1.2 -0.11,-8.0099 0.05,-16.02 -0.04,-24.02 -0.2,-6.47 2.28,-12.67 2.03,-19.14 1.39,-5.59 0.53,-11.55 2.17,-17.06 z"
       transform="matrix(2.4871786,0,0,2.8320231,-236.14488,-592.87122)" /><path
       style="fill:#aa7879;stroke:#aa7879;stroke-width:0.0938"
       inkscape:connector-curvature="0"
       id="path11106"
       d="m 712.21,476.43 0.35,-0.09 c -0.05,42.43 -0.08,84.87 0.01,127.3 -18.19,0.51 -36.4,-0.26 -54.58,0.42 -9.05,-0.75 -18.16,0.27 -27.2,-0.57 0.33,-0.27 0.98,-0.8 1.31,-1.06 8.37,0.19 16.75,0.14 25.13,0.07 1.04,-0.02 2.06,-0.06 3.12,-0.04 16.92,0.12 33.85,0.17 50.77,-0.02 0.19,-41.92 0.09,-83.84 0.06,-125.76 0.25,-0.07 0.77,-0.19 1.03,-0.25 z"
       transform="matrix(2.4871786,0,0,2.8320231,-236.14488,-592.87122)" /><path
       style="fill:#9b5559;stroke:#9b5559;stroke-width:0.0938"
       inkscape:connector-curvature="0"
       id="path11108"
       d="m 267.99,487.87 c 0.47,-1.87 2.59,-1.4 4.04,-1.53 22,0.06 44,0.07 66.01,0 1.27,0.06 2.62,-0.02 3.84,0.46 1.51,1.74 3.39,3.58 3.1,6.12 0.06,14.32 0.34,28.67 -0.15,42.97 -0.24,2.1 -1.37,4.66 -3.86,4.6 -16,0.15 -32.01,0 -48.02,0.06 -8.36,-0.1 -16.73,0.28 -25.07,-0.32 -0.27,-0.42 -0.82,-1.26 -1.09,-1.67 2.39,0.31 4.79,0.63 7.21,0.63 19.67,-0.02 39.33,-0.06 58.99,0 2.85,-0.05 5.77,-0.01 8.52,-0.87 3.32,-3.24 2.12,-8.15 2.27,-12.28 0.38,-11.0099 -0.11,-22.02 0,-33.04 0.37,-2.73 -1.98,-5.28 -4.71,-5.17 -23.69,0 -47.39,-0.06 -71.08,0.04 z"
       transform="matrix(2.4871786,0,0,2.8320231,-236.14488,-592.87122)" /><path
       style="fill:#963238;stroke:#963238;stroke-width:0.0938"
       inkscape:connector-curvature="0"
       id="path11110"
       d="m 347.91,490.39 c 0.84,-2.26 3.07,-3.57 5.08,-4.67 23.31,-0.17 46.64,-0.02 69.96,-0.09 3.37,-0.28 6.31,1.72 8.02,4.49 2.35,-1.48 3.9,-4.69 7.01,-4.54 23.36,0.11 46.72,0.06 70.07,0.09 2.66,-0.19 4.62,1.69 6.11,3.63 2.55,-0.75 3.91,-3.9 6.82,-3.61 23.35,-0.12 46.7,0.02 70.04,-0.05 5.71,-0.74 7.73,5.86 7.19,10.39 0.03,11.98 0.21,23.96 -0.06,35.94 0.18,3.73 -1.82,7.5 -5.17,9.21 -24.65,-0.24 -49.3,0.14 -73.95,-0.09 -2.16,-0.91 -2.98,-3.32 -4.27,-5.09 -2.63,1.46 -2.98,5.8 -6.75,5.22 -24.01,-0.23 -48.04,-0.01 -72.04,-0.11 -2.9,-0.1 -2.55,-4.2 -4.9,-5.38 -1.95,2.23 -3.61,5.75 -7.08,5.5 -23.35,-0.21 -46.71,0.01 -70.05,-0.13 -2.94,0.27 -6.1,-2.37 -5.88,-5.4 -0.21,-15.1 -0.13,-30.21 -0.15,-45.31 m 2.93,-1.52 c -1.69,3.14 -1.03,6.71 -1.12,10.12 -0.01,11.7 -0.01,23.4 0,35.1 0.71,1.83 1.33,4.16 3.08,5.24 23.81,0.05 47.63,-0.14 71.44,0.1 1.69,-1.13 2.98,-2.7 4.16,-4.34 0,-14.03 0.04,-28.05 0.01,-42.08 0.18,-1.54 -0.49,-2.86 -1.24,-4.12 -1.33,-0.7 -2.69,-1.42 -4.24,-1.22 -22.64,0 -45.27,0.01 -67.91,-0.01 -1.51,-0.13 -2.81,0.76 -4.18,1.21 m 84.02,-0.01 c -0.69,1.28 -1.39,2.6 -1.18,4.12 0.04,13.33 0.02,26.67 0,40 0.09,2.44 0.97,5.01 3.05,6.47 23.84,-0.24 47.7,-0.19 71.54,-0.02 2.15,-1.46 4.24,-3.73 4.13,-6.5 -0.04,-13.31 -0.02,-26.62 -0.03,-39.93 0.17,-1.55 -0.62,-2.89 -1.26,-4.21 -1.35,-0.44 -2.64,-1.26 -4.09,-1.13 -22.68,0.02 -45.36,0.01 -68.03,0.01 -1.49,-0.14 -2.77,0.75 -4.13,1.19 m 82.68,1.06 c -0.23,14.68 -0.06,29.36 -0.09,44.04 -0.23,2.12 1.18,3.81 2.38,5.38 23.74,-0.06 47.49,0.03 71.23,-0.04 3.08,-0.25 4.7,-3.61 4.63,-6.37 0.02,-13.64 0.05,-27.29 -0.02,-40.93 0.37,-2.32 -1.92,-3.33 -3.46,-4.41 -23.79,0.14 -47.59,0.12 -71.37,0.01 -1.12,0.76 -2.22,1.53 -3.3,2.32 z"
       transform="matrix(2.4871786,0,0,2.8320231,-236.14488,-592.87122)" /><path
       style="fill:#9f282e;stroke:#9f282e;stroke-width:0.0938"
       inkscape:connector-curvature="0"
       id="path11112"
       d="m 341.88,486.8 c 2.46,0.04 3.82,2.72 6.03,3.59 0.02,15.1 -0.06,30.21 0.15,45.31 -1.08,-0.1 -2.17,-0.01 -3.23,0.19 0.49,-14.3 0.21,-28.65 0.15,-42.97 0.29,-2.54 -1.59,-4.38 -3.1,-6.12 z"
       transform="matrix(2.4871786,0,0,2.8320231,-236.14488,-592.87122)" /><path
       style="fill:#933335;stroke:#933335;stroke-width:0.0938"
       inkscape:connector-curvature="0"
       id="path11114"
       d="m 572.31,571.6 c 3.29,-1.33 6.68,0 9.71,1.37 4.36,1.77 7.84,5.01 11.91,7.29 8.69,6.41 13.39,16.74 15.95,26.96 1.95,3.38 0.11,7.7401 2.04,10.96 7.6,2.76 15.8,1.54 23.69,2.25 10.77,0.82 21.59,0.63 32.39,0.68 11.33,-0.2 22.68,0.26 34.01,-0.31 1.93,-0.17 3.87,0.03 5.66,0.83 -1.54,0.34 -3.1,0.51 -4.67,0.51 -31.13,0.53 -62.34,0.76 -93.41,-1.52 0.33,-13.95 -4.71,-28.46 -15.4301,-37.74 C 588.03,577.2 580.21,573.94 572.31,571.6 Z"
       transform="matrix(2.4871786,0,0,2.8320231,-236.14488,-592.87122)" /><path
       style="fill:#a3272f;stroke:#a3272f;stroke-width:0.0938"
       inkscape:connector-curvature="0"
       id="path11116"
       d="m 223.48,594.74 c 4.82,-0.84 10.2,-1.09 14.62,1.36 10.38,4.28 15.39,17.3 11.59,27.7 -0.81,3.67 -3.72,6.14 -5.77,9.11 -4.18,2.7 -8.83,5.25 -13.93,5.39 -7.63,0.43 -15.09,-3.74 -19.44,-9.88 -2.97,-5.2 -5.01,-11.6 -2.97,-17.48 1.74,-7.83 8.25,-14.11 15.9,-16.2 m 0.7,4.52 c -8.72,2.24 -14.61,11.89 -12.44,20.67 1.65,8.7 10.61,15.12 19.4,13.79 9.71,-0.93 17.21,-11.04 15.18,-20.62 -1.52,-9.91 -12.53,-16.92 -22.14,-13.84 z"
       transform="matrix(2.4871786,0,0,2.8320231,-236.14488,-592.87122)" /><path
       style="fill:#a4272e;stroke:#a4272e;stroke-width:0.0938"
       inkscape:connector-curvature="0"
       id="path11118"
       d="m 554.17,595.1 c 5.31,-1.44 11.36,-1.23 16.22,1.55 6.35,3.02 10.6,9.5099 11.73,16.35 1.12,7.67 -2.05,15.91 -8.16,20.72 -5.53,3.9301 -12.75,5.84 -19.38,3.82 -7.17,-1.83 -12.66,-7.61 -15.63,-14.19 -0.86,-4.49 -1.01,-9.17 -0.08,-13.66 1.77,-3.67 3.73,-7.35 6.73,-10.18 2.19,-2.5 5.56,-3.33 8.57,-4.41 m 0.25,4.47 c -7.86,2.58 -13.07,11.21 -11.58,19.37 0.8199,5.72 4.69,10.89 9.96,13.27 6.49,3.16 14.89,1.68 19.9,-3.5 5.03,-4.84 6.57,-12.85 3.81,-19.25 -3.25,-8.43 -13.61,-13.09 -22.09,-9.89 z"
       transform="matrix(2.4871786,0,0,2.8320231,-236.14488,-592.87122)" /><path
       style="fill:#982d32;stroke:#982d32;stroke-width:0.0938"
       inkscape:connector-curvature="0"
       id="path11120"
       d="m 510.23,615 c 0.67,-5.89 0.83,-12.22 4.35,-17.28 0.1,0.55 0.31,1.65 0.42,2.2 -2.76,7.56 -3.71,15.65 -3.36,23.67 -21.14,0.77 -42.31,1.02 -63.45,1.5099 -24.73,-0.3199 -49.47,0.27 -74.2,-0.1 -8.07,0.07 -16.13,-0.16 -24.19,0.1 -21.39,-0.54 -42.81,-0.6 -64.18,-1.62 -2.31,-7.14 -5.19,-14.09 -8.6,-20.77 0.43,-0.08 1.31,-0.22 1.75,-0.3 1.95,3.09 3.26,6.51 4.58,9.9 0.35,0.09 1.04,0.26 1.39,0.35 -0.52,4.3701 2.47,9.46 7.26,9.34 5.67,-0.02 11.32,0.6 16.98,0.86 18.34,-0.06 36.67,0.23 55.01,0.34 18,-0.32 35.99,1.27 53.99,0.11 28.12,-0.2 56.26,-0.32 84.37,-0.75 4.4,0.9801 7.4,-3.7899 7.88,-7.5599 z"
       transform="matrix(2.4871786,0,0,2.8320231,-236.14488,-592.87122)" /><path
       style="fill:#ffe9e9;stroke:#ffe9e9;stroke-width:0.0938"
       inkscape:connector-curvature="0"
       id="path11122"
       d="m 224.18,599.26 c 9.61,-3.08 20.62,3.93 22.14,13.84 2.03,9.58 -5.47,19.69 -15.18,20.62 -8.79,1.33 -17.75,-5.09 -19.4,-13.79 -2.17,-8.78 3.72,-18.43 12.44,-20.67 m 0.36,3.5 c -4.89,1.69 -8.72,6.07 -9.53,11.21 -1.62,8.26 5.62,16.72 14.05,16.35 8.37,0.26 15.46,-8.18 13.85,-16.37 -1.12,-8.33 -10.45,-13.94 -18.37,-11.19 z"
       transform="matrix(2.4871786,0,0,2.8320231,-236.14488,-592.87122)" /><path
       style="fill:#ffe9e9;stroke:#ffe9e9;stroke-width:0.0938"
       inkscape:connector-curvature="0"
       id="path11124"
       d="m 554.42,599.57 c 8.48,-3.2 18.84,1.46 22.09,9.89 2.76,6.4 1.22,14.41 -3.81,19.25 -5.01,5.18 -13.41,6.66 -19.9,3.5 -5.27,-2.38 -9.14,-7.55 -9.96,-13.27 -1.49,-8.16 3.72,-16.79 11.58,-19.37 m 1.97,3.08 c -5.81,1.5699 -10.3,7.2 -10.22,13.28 -0.43,7.57 6.32,14.56 13.91,14.37 8.04,0.34 15.15,-7.29 14.21,-15.29 -0.41,-8.55 -9.76,-14.93 -17.9,-12.36 z"
       transform="matrix(2.4871786,0,0,2.8320231,-236.14488,-592.87122)" /><path
       style="fill:#a5262e;stroke:#a5262e;stroke-width:0.0938"
       inkscape:connector-curvature="0"
       id="path11126"
       d="m 224.54,602.76 c 7.92,-2.75 17.25,2.86 18.37,11.19 1.61,8.19 -5.48,16.63 -13.85,16.37 -8.43,0.37 -15.67,-8.09 -14.05,-16.35 0.81,-5.14 4.64,-9.52 9.53,-11.21 m 1.82,4.79 c -6.59,1.62 -8.59,11.12 -3.44,15.43 4.78,4.62 13.84,1.74 14.84,-4.89 1.73,-6.41 -5.16,-12.66 -11.4,-10.54 z"
       transform="matrix(2.4871786,0,0,2.8320231,-236.14488,-592.87122)" /><path
       style="fill:#a7262c;stroke:#a7262c;stroke-width:0.0938"
       inkscape:connector-curvature="0"
       id="path11128"
       d="m 556.39,602.65 c 8.14,-2.57 17.49,3.81 17.9,12.36 0.94,8 -6.17,15.63 -14.21,15.29 -7.59,0.19 -14.34,-6.8 -13.91,-14.37 -0.08,-6.08 4.41,-11.71 10.22,-13.28 m 1.07,4.95 c -6.07,1.71 -8.39,10.27 -3.86,14.73 4.21,5.16 13.54,3.09 15.23,-3.34 2.55,-6.64 -4.75,-13.87 -11.37,-11.39 z"
       transform="matrix(2.4871786,0,0,2.8320231,-236.14488,-592.87122)" /><path
       style="fill:#f5f1f1;stroke:#f5f1f1;stroke-width:0.0938"
       inkscape:connector-curvature="0"
       id="path11130"
       d="m 226.36,607.55 c 6.24,-2.12 13.13,4.13 11.4,10.54 -1,6.6299 -10.06,9.5099 -14.84,4.89 -5.15,-4.31 -3.15,-13.81 3.44,-15.43 z"
       transform="matrix(2.4871786,0,0,2.8320231,-236.14488,-592.87122)" /><path
       style="fill:#f5f0f0;stroke:#f5f0f0;stroke-width:0.0938"
       inkscape:connector-curvature="0"
       id="path11132"
       d="m 557.46,607.6 c 6.62,-2.48 13.92,4.75 11.37,11.39 -1.69,6.43 -11.02,8.5 -15.23,3.34 -4.53,-4.46 -2.21,-13.02 3.86,-14.73 z"
       transform="matrix(2.4871786,0,0,2.8320231,-236.14488,-592.87122)" /><path
       style="fill:#fac1c2;stroke:#fac1c2;stroke-width:0.0938"
       inkscape:connector-curvature="0"
       id="path11134"
       d="m 349.8,625.1 c 8.06,-0.2599 16.12,-0.03 24.19,-0.1 24.73,0.37 49.47,-0.22 74.2,0.1 -1.36,0.44 -2.8,0.54 -4.21,0.55 -29.67,0.63 -59.35,0.6 -89.01,0.04 -1.73,-0.08 -3.56,0.19 -5.17,-0.59 z"
       transform="matrix(2.4871786,0,0,2.8320231,-236.14488,-592.87122)" /><path
       id="path11136"
       d="m 124.87,779.02 c 0.07,-1.8 -0.09,-3.75 1.04,-5.26 0.29,15.53 0.12,31.07 0.09,46.6 -1.29,-1.48 -1.12,-3.52 -1.22,-5.33 -0.08,-12 0.04,-24.01 0.09,-36.01 z"
       inkscape:connector-curvature="0"
       style="fill:#b9bcdf;stroke:#b9bcdf;stroke-width:0.0938" /></g><path
     d="m 237.38367,1274.4274 c 0.37,-4.0601 -0.65,-8.5 0.98,-12.28 -0.21,9.14 -0.13,18.29 -0.25,27.4399 -1.43,-4.8899 -0.3,-10.1399 -0.73,-15.1599 z"
     id="path12150"
     inkscape:connector-curvature="0"
     style="fill:#fac1c1;stroke:#fac1c1;stroke-width:0.0938" /></svg>